solid OpenSCAD_Model
  facet normal 1 -0 0
    outer loop
      vertex 5 0 7.5
      vertex 5 5 0
      vertex 5 5 7.5
    endloop
  endfacet
  facet normal 1 0 0
    outer loop
      vertex 5 5 0
      vertex 5 0 7.5
      vertex 5 0 0
    endloop
  endfacet
  facet normal 0 0 1
    outer loop
      vertex 1.7 5 7.5
      vertex 0 5 7.5
      vertex 1.7 1.7 7.5
    endloop
  endfacet
  facet normal 0 0 1
    outer loop
      vertex 3.3 1.7 7.5
      vertex 5 5 7.5
      vertex 3.3 5 7.5
    endloop
  endfacet
  facet normal 0 0 1
    outer loop
      vertex 5 5 7.5
      vertex 3.3 1.7 7.5
      vertex 5 0 7.5
    endloop
  endfacet
  facet normal -0 0 1
    outer loop
      vertex 1.7 1.7 7.5
      vertex 5 0 7.5
      vertex 3.3 1.7 7.5
    endloop
  endfacet
  facet normal 0 0 1
    outer loop
      vertex 1.7 1.7 7.5
      vertex 0 0 7.5
      vertex 5 0 7.5
    endloop
  endfacet
  facet normal 0 0 1
    outer loop
      vertex 0 0 7.5
      vertex 1.7 1.7 7.5
      vertex 0 5 7.5
    endloop
  endfacet
  facet normal 0 0 -1
    outer loop
      vertex 5 0 0
      vertex 3.3 1.7 0
      vertex 5 5 0
    endloop
  endfacet
  facet normal 0 0 -1
    outer loop
      vertex 5 0 0
      vertex 1.7 1.7 0
      vertex 3.3 1.7 0
    endloop
  endfacet
  facet normal 0 0 -1
    outer loop
      vertex 0 0 0
      vertex 1.7 1.7 0
      vertex 5 0 0
    endloop
  endfacet
  facet normal 0 0 -1
    outer loop
      vertex 0 5 0
      vertex 1.7 1.7 0
      vertex 0 0 0
    endloop
  endfacet
  facet normal 0 0 -1
    outer loop
      vertex 1.7 1.7 0
      vertex 0 5 0
      vertex 1.7 5 0
    endloop
  endfacet
  facet normal -0 0 -1
    outer loop
      vertex 5 5 0
      vertex 3.3 1.7 0
      vertex 3.3 5 0
    endloop
  endfacet
  facet normal -1 0 0
    outer loop
      vertex 0 0 0
      vertex 0 5 7.5
      vertex 0 5 0
    endloop
  endfacet
  facet normal -1 -0 0
    outer loop
      vertex 0 5 7.5
      vertex 0 0 0
      vertex 0 0 7.5
    endloop
  endfacet
  facet normal 0 1 -0
    outer loop
      vertex 1.7 5 0
      vertex 0 5 7.5
      vertex 1.7 5 7.5
    endloop
  endfacet
  facet normal 0 1 0
    outer loop
      vertex 0 5 7.5
      vertex 1.7 5 0
      vertex 0 5 0
    endloop
  endfacet
  facet normal 0 1 -0
    outer loop
      vertex 5 5 0
      vertex 3.3 5 7.5
      vertex 5 5 7.5
    endloop
  endfacet
  facet normal 0 1 0
    outer loop
      vertex 3.3 5 7.5
      vertex 5 5 0
      vertex 3.3 5 0
    endloop
  endfacet
  facet normal 0 -1 0
    outer loop
      vertex 0 0 0
      vertex 5 0 7.5
      vertex 0 0 7.5
    endloop
  endfacet
  facet normal 0 -1 -0
    outer loop
      vertex 5 0 7.5
      vertex 0 0 0
      vertex 5 0 0
    endloop
  endfacet
  facet normal -1 0 0
    outer loop
      vertex 3.3 1.7 0
      vertex 3.3 5 7.5
      vertex 3.3 5 0
    endloop
  endfacet
  facet normal -1 -0 0
    outer loop
      vertex 3.3 5 7.5
      vertex 3.3 1.7 0
      vertex 3.3 1.7 7.5
    endloop
  endfacet
  facet normal 1 -0 0
    outer loop
      vertex 1.7 1.7 7.5
      vertex 1.7 5 0
      vertex 1.7 5 7.5
    endloop
  endfacet
  facet normal 1 0 0
    outer loop
      vertex 1.7 5 0
      vertex 1.7 1.7 7.5
      vertex 1.7 1.7 0
    endloop
  endfacet
  facet normal 0 1 -0
    outer loop
      vertex 3.3 1.7 0
      vertex 1.7 1.7 7.5
      vertex 3.3 1.7 7.5
    endloop
  endfacet
  facet normal 0 1 0
    outer loop
      vertex 1.7 1.7 7.5
      vertex 3.3 1.7 0
      vertex 1.7 1.7 0
    endloop
  endfacet
endsolid OpenSCAD_Model
