M48
; DRILL file {KiCad (6.0.10)} date Thu Feb 23 14:30:14 2023
; FORMAT={-:-/ absolute / metric / decimal}
; #@! TF.CreationDate,2023-02-23T14:30:14-05:00
; #@! TF.GenerationSoftware,Kicad,Pcbnew,(6.0.10)
; #@! TF.FileFunction,MixedPlating,1,2
FMAT,2
METRIC
; #@! TA.AperFunction,Plated,PTH,ViaDrill
T1C0.400
; #@! TA.AperFunction,Plated,PTH,ComponentDrill
T2C0.700
; #@! TA.AperFunction,Plated,PTH,ComponentDrill
T3C0.800
; #@! TA.AperFunction,Plated,PTH,ComponentDrill
T4C1.000
; #@! TA.AperFunction,Plated,PTH,ComponentDrill
T5C1.000
; #@! TA.AperFunction,Plated,PTH,ComponentDrill
T6C1.200
; #@! TA.AperFunction,NonPlated,NPTH,ComponentDrill
T7C2.000
%
G90
G05
T1
X111.8Y-79.2
X112.2Y-102.4
X112.3Y-112.8
X114.4Y-76.3
X114.7Y-113.9
X114.7Y-114.8
X115.0Y-99.7
X115.459Y-115.451
X115.5Y-101.2
X117.983Y-69.852
X117.983Y-74.562
X118.8Y-75.822
X119.034Y-74.534
X119.761Y-55.385
X120.2Y-106.9
X120.777Y-53.48
X121.031Y-49.289
X121.296Y-85.504
X121.5Y-102.6
X121.6Y-111.6
X121.955Y-88.445
X122.459Y-114.251
X122.459Y-115.277
X122.555Y-49.289
X122.555Y-57.483
X122.555Y-58.433
X122.996Y-87.204
X123.005Y-89.495
X123.19Y-54.877
X124.683Y-82.117
X125.095Y-62.624
X125.553Y-57.203
X126.492Y-55.25
X126.492Y-56.528
X126.7Y-101.2
X126.9Y-74.5
X126.938Y-72.447
X127.127Y-57.925
X127.127Y-63.386
X127.508Y-57.036
X127.8Y-110.5
X127.889Y-73.279
X128.3Y-96.8
X128.651Y-55.25
X128.651Y-57.026
X128.795Y-85.805
X129.2Y-101.2
X129.54Y-69.228
X129.7Y-86.425
X129.921Y-66.307
X130.1Y-102.6
X130.225Y-83.425
X130.4Y-114.8
X130.5Y-113.8
X131.086Y-87.775
X131.225Y-82.225
X131.225Y-83.225
X131.236Y-115.386
X131.572Y-68.339
X131.826Y-52.197
X132.395Y-96.405
X132.699Y-81.355
X132.821Y-74.279
X132.842Y-52.464
X132.969Y-60.465
X132.969Y-61.608
X132.969Y-62.751
X133.206Y-55.567
X133.388Y-97.322
X133.451Y-80.775
X133.477Y-51.054
X133.553Y-87.753
X133.6Y-45.8
X133.875Y-85.6
X134.112Y-60.465
X134.112Y-62.751
X134.122Y-61.605
X134.493Y-47.625
X134.705Y-63.705
X135.001Y-66.688
X135.166Y-59.505
X135.229Y-80.729
X135.255Y-60.465
X135.255Y-61.608
X135.255Y-62.751
X135.5Y-91.2
X135.509Y-72.657
X135.9Y-81.4
X136.2Y-85.8
X136.271Y-68.466
X136.425Y-84.225
X136.5Y-69.5
X136.87Y-95.958
X137.2Y-46.1
X137.8Y-106.5
X137.902Y-54.295
X138.3Y-50.1
X138.43Y-52.959
X138.436Y-114.186
X138.536Y-115.154
X138.938Y-54.242
X139.0Y-70.6
X139.0Y-102.5
X139.2Y-111.3
X139.624Y-66.2
X140.1Y-64.5
X140.716Y-48.514
X140.716Y-53.594
X140.843Y-56.515
X140.843Y-57.417
X141.1Y-80.3
X141.3Y-112.5
X141.6Y-95.5
X141.9Y-114.0
X142.5Y-89.0
X142.621Y-45.847
X142.7Y-64.0
X142.7Y-83.8
X143.002Y-62.611
X143.4Y-90.6
X143.4Y-95.9
X143.8Y-82.4
X144.2Y-63.9
X144.924Y-84.5
X145.275Y-98.2
X145.9Y-113.8
X145.9Y-114.9
X146.5Y-112.3
X146.644Y-115.572
X147.308Y-98.808
X149.042Y-100.542
X149.15Y-83.999
X149.352Y-61.722
X149.7Y-81.8
X150.55Y-86.0
X150.59Y-63.641
X151.5Y-86.0
X151.6Y-82.6
X151.892Y-51.968
X152.044Y-113.5
X152.044Y-114.872
X152.344Y-64.144
X152.781Y-57.912
X153.543Y-45.466
X154.813Y-57.912
X158.115Y-56.079
X158.496Y-50.292
X158.496Y-61.468
T2
X132.874Y-48.855
X137.714Y-48.855
T3
X154.3Y-82.3
X154.3Y-95.0
X154.3Y-97.2
X154.3Y-109.9
X158.1Y-82.25
X158.1Y-94.95
X158.1Y-97.15
X158.1Y-109.85
T4
X113.7Y-75.2
X113.7Y-79.2
T5
X112.314Y-105.548
X112.314Y-108.088
X112.314Y-110.628
X113.6Y-94.0
X113.6Y-97.8
X115.311Y-47.63
X115.311Y-50.17
X115.311Y-52.71
X115.311Y-55.25
X115.311Y-57.79
X115.311Y-60.33
X115.311Y-62.87
X115.311Y-65.41
X115.311Y-67.95
X117.851Y-47.63
X117.851Y-50.17
X117.851Y-52.71
X117.851Y-55.25
X117.851Y-57.79
X117.851Y-60.33
X117.851Y-62.87
X117.851Y-65.41
X117.851Y-67.95
X119.5Y-97.8
X119.55Y-94.02
X122.306Y-65.291
X122.306Y-67.831
X122.306Y-70.371
X122.306Y-72.911
X122.306Y-75.451
X122.306Y-77.991
X123.49Y-105.548
X123.49Y-108.088
X123.49Y-110.628
X124.846Y-65.291
X124.846Y-67.831
X124.846Y-70.371
X124.846Y-72.911
X124.846Y-75.451
X124.846Y-77.991
X126.111Y-47.511
X128.651Y-47.511
X128.778Y-75.669
X128.778Y-78.209
X129.84Y-105.37
X129.84Y-107.91
X129.84Y-110.45
X131.318Y-75.669
X131.318Y-78.209
X133.858Y-75.669
X133.858Y-78.209
X136.398Y-75.669
X136.398Y-78.209
X137.945Y-72.2
X138.938Y-75.669
X138.938Y-78.209
X140.485Y-72.2
X140.6Y-84.045
X140.6Y-86.585
X140.6Y-89.125
X141.0Y-105.4
X141.0Y-107.94
X141.0Y-110.48
X141.125Y-66.4
X142.8Y-77.76
X142.8Y-80.3
X143.025Y-72.2
X143.665Y-66.4
X144.653Y-54.356
X144.653Y-58.293
X146.5Y-105.4
X146.5Y-107.94
X146.5Y-110.48
X147.193Y-54.356
X147.193Y-58.293
X149.733Y-54.356
X149.733Y-58.293
X157.226Y-76.703
X157.226Y-79.243
T6
X113.5Y-84.5
X113.5Y-89.5
X116.803Y-120.887
X121.803Y-120.887
X133.156Y-120.995
X138.156Y-120.995
X148.5Y-121.1
X153.5Y-121.1
X155.575Y-66.969
X155.575Y-71.969
T7
X111.506Y-47.371
X157.3Y-123.3
T2
G00X131.695Y-46.586
M15
G01X131.695Y-45.785
M16
G05
G00X138.894Y-46.586
M15
G01X138.894Y-45.785
M16
G05
T0
M30
