%TF.GenerationSoftware,KiCad,Pcbnew,(6.0.10)*%
%TF.CreationDate,2023-02-23T14:30:16-05:00*%
%TF.ProjectId,rp2040_v0,72703230-3430-45f7-9630-2e6b69636164,rev?*%
%TF.SameCoordinates,Original*%
%TF.FileFunction,Paste,Top*%
%TF.FilePolarity,Positive*%
%FSLAX46Y46*%
G04 Gerber Fmt 4.6, Leading zero omitted, Abs format (unit mm)*
G04 Created by KiCad (PCBNEW (6.0.10)) date 2023-02-23 14:30:16*
%MOMM*%
%LPD*%
G01*
G04 APERTURE LIST*
G04 Aperture macros list*
%AMRoundRect*
0 Rectangle with rounded corners*
0 $1 Rounding radius*
0 $2 $3 $4 $5 $6 $7 $8 $9 X,Y pos of 4 corners*
0 Add a 4 corners polygon primitive as box body*
4,1,4,$2,$3,$4,$5,$6,$7,$8,$9,$2,$3,0*
0 Add four circle primitives for the rounded corners*
1,1,$1+$1,$2,$3*
1,1,$1+$1,$4,$5*
1,1,$1+$1,$6,$7*
1,1,$1+$1,$8,$9*
0 Add four rect primitives between the rounded corners*
20,1,$1+$1,$2,$3,$4,$5,0*
20,1,$1+$1,$4,$5,$6,$7,0*
20,1,$1+$1,$6,$7,$8,$9,0*
20,1,$1+$1,$8,$9,$2,$3,0*%
G04 Aperture macros list end*
%ADD10RoundRect,0.135000X0.185000X-0.135000X0.185000X0.135000X-0.185000X0.135000X-0.185000X-0.135000X0*%
%ADD11R,1.500000X2.000000*%
%ADD12R,3.800000X2.000000*%
%ADD13RoundRect,0.150000X-0.150000X0.587500X-0.150000X-0.587500X0.150000X-0.587500X0.150000X0.587500X0*%
%ADD14R,4.550000X5.250000*%
%ADD15R,4.600000X1.100000*%
%ADD16RoundRect,0.250000X-0.250000X-0.475000X0.250000X-0.475000X0.250000X0.475000X-0.250000X0.475000X0*%
%ADD17R,0.800000X0.250000*%
%ADD18R,0.250000X0.800000*%
%ADD19RoundRect,0.135000X0.135000X0.185000X-0.135000X0.185000X-0.135000X-0.185000X0.135000X-0.185000X0*%
%ADD20RoundRect,0.150000X0.150000X-0.587500X0.150000X0.587500X-0.150000X0.587500X-0.150000X-0.587500X0*%
%ADD21RoundRect,0.135000X-0.185000X0.135000X-0.185000X-0.135000X0.185000X-0.135000X0.185000X0.135000X0*%
%ADD22RoundRect,0.140000X0.140000X0.170000X-0.140000X0.170000X-0.140000X-0.170000X0.140000X-0.170000X0*%
%ADD23RoundRect,0.135000X-0.135000X-0.185000X0.135000X-0.185000X0.135000X0.185000X-0.135000X0.185000X0*%
%ADD24RoundRect,0.250000X0.475000X-0.250000X0.475000X0.250000X-0.475000X0.250000X-0.475000X-0.250000X0*%
%ADD25C,2.000000*%
%ADD26RoundRect,0.140000X-0.140000X-0.170000X0.140000X-0.170000X0.140000X0.170000X-0.140000X0.170000X0*%
%ADD27R,0.600000X0.450000*%
%ADD28RoundRect,0.200000X-0.200000X-0.275000X0.200000X-0.275000X0.200000X0.275000X-0.200000X0.275000X0*%
%ADD29RoundRect,0.250000X0.250000X0.475000X-0.250000X0.475000X-0.250000X-0.475000X0.250000X-0.475000X0*%
%ADD30RoundRect,0.140000X-0.170000X0.140000X-0.170000X-0.140000X0.170000X-0.140000X0.170000X0.140000X0*%
%ADD31RoundRect,0.140000X0.170000X-0.140000X0.170000X0.140000X-0.170000X0.140000X-0.170000X-0.140000X0*%
%ADD32RoundRect,0.218750X0.256250X-0.218750X0.256250X0.218750X-0.256250X0.218750X-0.256250X-0.218750X0*%
%ADD33R,1.100000X0.200000*%
%ADD34R,0.200000X1.100000*%
%ADD35R,3.100000X3.100000*%
%ADD36R,2.000000X1.500000*%
%ADD37R,2.000000X3.800000*%
%ADD38RoundRect,0.250000X-0.475000X0.250000X-0.475000X-0.250000X0.475000X-0.250000X0.475000X0.250000X0*%
%ADD39RoundRect,0.200000X0.275000X-0.200000X0.275000X0.200000X-0.275000X0.200000X-0.275000X-0.200000X0*%
%ADD40RoundRect,0.218750X0.218750X0.256250X-0.218750X0.256250X-0.218750X-0.256250X0.218750X-0.256250X0*%
%ADD41R,0.400000X1.400000*%
%ADD42C,1.300000*%
%ADD43O,1.300000X2.200000*%
%ADD44RoundRect,0.150000X-0.650000X-0.150000X0.650000X-0.150000X0.650000X0.150000X-0.650000X0.150000X0*%
%ADD45R,0.650000X0.750000*%
%ADD46R,0.250000X0.500000*%
%ADD47RoundRect,0.200000X0.200000X0.275000X-0.200000X0.275000X-0.200000X-0.275000X0.200000X-0.275000X0*%
%ADD48RoundRect,0.200000X-0.275000X0.200000X-0.275000X-0.200000X0.275000X-0.200000X0.275000X0.200000X0*%
%ADD49R,0.350000X0.500000*%
%ADD50RoundRect,0.218750X-0.218750X-0.256250X0.218750X-0.256250X0.218750X0.256250X-0.218750X0.256250X0*%
%ADD51R,1.400000X1.200000*%
%ADD52RoundRect,0.225000X0.225000X0.250000X-0.225000X0.250000X-0.225000X-0.250000X0.225000X-0.250000X0*%
%ADD53C,1.800000*%
G04 APERTURE END LIST*
D10*
%TO.C,R55*%
X139836000Y-115810000D03*
X139836000Y-114790000D03*
%TD*%
%TO.C,R53*%
X123600000Y-115910000D03*
X123600000Y-114890000D03*
%TD*%
%TO.C,R42*%
X153300000Y-116010000D03*
X153300000Y-114990000D03*
%TD*%
%TO.C,R40*%
X141800000Y-58100000D03*
X141800000Y-57080000D03*
%TD*%
D11*
%TO.C,U7*%
X115686000Y-104828000D03*
X117986000Y-104828000D03*
D12*
X117986000Y-111128000D03*
D11*
X120286000Y-104828000D03*
%TD*%
D13*
%TO.C,Q2*%
X147738000Y-115949500D03*
X146788000Y-114074500D03*
X148688000Y-114074500D03*
%TD*%
D14*
%TO.C,R39*%
X163550000Y-91075000D03*
X168400000Y-85525000D03*
X163550000Y-85525000D03*
X168400000Y-91075000D03*
D15*
X156825000Y-85760000D03*
X156825000Y-90840000D03*
%TD*%
D16*
%TO.C,C25*%
X133330000Y-102300000D03*
X131430000Y-102300000D03*
%TD*%
D17*
%TO.C,U5*%
X136410000Y-94476500D03*
D18*
X136000000Y-93276500D03*
X135500000Y-93276500D03*
X135000000Y-93276500D03*
X134500000Y-93276500D03*
X134000000Y-93276500D03*
X133500000Y-93276500D03*
X133000000Y-93276500D03*
D17*
X132590000Y-94476500D03*
D18*
X133000000Y-95676500D03*
X133500000Y-95676500D03*
X134000000Y-95676500D03*
X134500000Y-95676500D03*
X135000000Y-95676500D03*
X135500000Y-95676500D03*
X136000000Y-95676500D03*
%TD*%
D19*
%TO.C,R25*%
X124081000Y-67831000D03*
X123061000Y-67831000D03*
%TD*%
D20*
%TO.C,Q1*%
X140400000Y-95162500D03*
X141350000Y-97037500D03*
X139450000Y-97037500D03*
%TD*%
D21*
%TO.C,R6*%
X154559000Y-50036000D03*
X154559000Y-51056000D03*
%TD*%
D22*
%TO.C,C12*%
X127002000Y-62605000D03*
X126042000Y-62605000D03*
%TD*%
D23*
%TO.C,R17*%
X116071000Y-60330000D03*
X117091000Y-60330000D03*
%TD*%
D24*
%TO.C,C5*%
X153543000Y-48702000D03*
X153543000Y-46802000D03*
%TD*%
D25*
%TO.C,J27*%
X116803000Y-120887500D03*
X121803000Y-120887500D03*
%TD*%
D26*
%TO.C,C17*%
X141169000Y-62592000D03*
X142129000Y-62592000D03*
%TD*%
D10*
%TO.C,R57*%
X137636000Y-113311500D03*
X137636000Y-114331500D03*
%TD*%
D23*
%TO.C,R33*%
X140090000Y-91800000D03*
X141110000Y-91800000D03*
%TD*%
D27*
%TO.C,D1*%
X138269000Y-51956000D03*
X140369000Y-51956000D03*
%TD*%
D16*
%TO.C,C24*%
X115550000Y-102500000D03*
X113650000Y-102500000D03*
%TD*%
D28*
%TO.C,R41*%
X151865000Y-116028000D03*
X150215000Y-116028000D03*
%TD*%
D10*
%TO.C,R56*%
X121459000Y-113641500D03*
X121459000Y-114661500D03*
%TD*%
D13*
%TO.C,Q5*%
X132350000Y-115775000D03*
X131400000Y-113900000D03*
X133300000Y-113900000D03*
%TD*%
D21*
%TO.C,R32*%
X138200000Y-92590000D03*
X138200000Y-93610000D03*
%TD*%
D29*
%TO.C,C38*%
X132775000Y-84825000D03*
X130875000Y-84825000D03*
%TD*%
D26*
%TO.C,C21*%
X134623000Y-91179500D03*
X133663000Y-91179500D03*
%TD*%
%TO.C,C19*%
X138966000Y-58433000D03*
X139926000Y-58433000D03*
%TD*%
D30*
%TO.C,C1*%
X129692000Y-70399000D03*
X129692000Y-71359000D03*
%TD*%
%TO.C,C3*%
X135182000Y-70399000D03*
X135182000Y-71359000D03*
%TD*%
D23*
%TO.C,R16*%
X116076000Y-57780000D03*
X117096000Y-57780000D03*
%TD*%
D31*
%TO.C,C16*%
X138922000Y-56085000D03*
X138922000Y-55125000D03*
%TD*%
D21*
%TO.C,R59*%
X135700000Y-114331500D03*
X135700000Y-113311500D03*
%TD*%
D32*
%TO.C,D4*%
X150622000Y-62509500D03*
X150622000Y-60934500D03*
%TD*%
D19*
%TO.C,R22*%
X124081000Y-75451000D03*
X123061000Y-75451000D03*
%TD*%
D33*
%TO.C,U3*%
X130572000Y-59005000D03*
X130572000Y-59405000D03*
X130572000Y-59805000D03*
X130572000Y-60205000D03*
X130572000Y-60605000D03*
X130572000Y-61005000D03*
X130572000Y-61405000D03*
X130572000Y-61805000D03*
X130572000Y-62205000D03*
X130572000Y-62605000D03*
X130572000Y-63005000D03*
X130572000Y-63405000D03*
X130572000Y-63805000D03*
X130572000Y-64205000D03*
D34*
X131522000Y-65155000D03*
X131922000Y-65155000D03*
X132322000Y-65155000D03*
X132722000Y-65155000D03*
X133122000Y-65155000D03*
X133522000Y-65155000D03*
X133922000Y-65155000D03*
X134322000Y-65155000D03*
X134722000Y-65155000D03*
X135122000Y-65155000D03*
X135522000Y-65155000D03*
X135922000Y-65155000D03*
X136322000Y-65155000D03*
X136722000Y-65155000D03*
D33*
X137672000Y-64205000D03*
X137672000Y-63805000D03*
X137672000Y-63405000D03*
X137672000Y-63005000D03*
X137672000Y-62605000D03*
X137672000Y-62205000D03*
X137672000Y-61805000D03*
X137672000Y-61405000D03*
X137672000Y-61005000D03*
X137672000Y-60605000D03*
X137672000Y-60205000D03*
X137672000Y-59805000D03*
X137672000Y-59405000D03*
X137672000Y-59005000D03*
D34*
X136722000Y-58055000D03*
X136322000Y-58055000D03*
X135922000Y-58055000D03*
X135522000Y-58055000D03*
X135122000Y-58055000D03*
X134722000Y-58055000D03*
X134322000Y-58055000D03*
X133922000Y-58055000D03*
X133522000Y-58055000D03*
X133122000Y-58055000D03*
X132722000Y-58055000D03*
X132322000Y-58055000D03*
X131922000Y-58055000D03*
X131522000Y-58055000D03*
D35*
X134122000Y-61605000D03*
%TD*%
D26*
%TO.C,C20*%
X136024000Y-96894500D03*
X135064000Y-96894500D03*
%TD*%
%TO.C,C23*%
X117757000Y-73546000D03*
X118717000Y-73546000D03*
%TD*%
D16*
%TO.C,C27*%
X120122000Y-102500000D03*
X118222000Y-102500000D03*
%TD*%
D23*
%TO.C,R19*%
X116071000Y-65410000D03*
X117091000Y-65410000D03*
%TD*%
D36*
%TO.C,U2*%
X144551000Y-46341000D03*
D37*
X150851000Y-48641000D03*
D36*
X144551000Y-48641000D03*
X144551000Y-50941000D03*
%TD*%
D21*
%TO.C,R45*%
X150000000Y-114506000D03*
X150000000Y-113486000D03*
%TD*%
D26*
%TO.C,C4*%
X131798000Y-51194000D03*
X130838000Y-51194000D03*
%TD*%
D28*
%TO.C,R52*%
X121284000Y-116107500D03*
X119634000Y-116107500D03*
%TD*%
D38*
%TO.C,C2*%
X142113000Y-48580000D03*
X142113000Y-50480000D03*
%TD*%
D13*
%TO.C,Q4*%
X116550000Y-115775000D03*
X115600000Y-113900000D03*
X117500000Y-113900000D03*
%TD*%
D16*
%TO.C,C11*%
X156276000Y-63119000D03*
X158176000Y-63119000D03*
%TD*%
D23*
%TO.C,R13*%
X116071000Y-52710000D03*
X117091000Y-52710000D03*
%TD*%
D19*
%TO.C,R23*%
X124081000Y-72911000D03*
X123061000Y-72911000D03*
%TD*%
%TO.C,R26*%
X124081000Y-65291000D03*
X123061000Y-65291000D03*
%TD*%
D10*
%TO.C,R35*%
X131281000Y-77474000D03*
X131281000Y-76454000D03*
%TD*%
D29*
%TO.C,C9*%
X158176000Y-51816000D03*
X156276000Y-51816000D03*
%TD*%
D30*
%TO.C,C6*%
X132842000Y-53381000D03*
X132842000Y-54341000D03*
%TD*%
D39*
%TO.C,R4*%
X134818500Y-53230000D03*
X134818500Y-51580000D03*
%TD*%
D40*
%TO.C,D5*%
X141287500Y-93200000D03*
X139712500Y-93200000D03*
%TD*%
D10*
%TO.C,R38*%
X138900000Y-77450000D03*
X138900000Y-76430000D03*
%TD*%
D21*
%TO.C,R58*%
X119659000Y-114661500D03*
X119659000Y-113641500D03*
%TD*%
D25*
%TO.C,J25*%
X148500000Y-121100000D03*
X153500000Y-121100000D03*
%TD*%
%TO.C,J28*%
X133156000Y-120995500D03*
X138156000Y-120995500D03*
%TD*%
D23*
%TO.C,R9*%
X116073000Y-47630000D03*
X117093000Y-47630000D03*
%TD*%
D41*
%TO.C,J5*%
X136594500Y-49225500D03*
X135944500Y-49225500D03*
X135294500Y-49225500D03*
X134644500Y-49225500D03*
X133994500Y-49225500D03*
D42*
X132874500Y-48855500D03*
D43*
X131694500Y-46185500D03*
X138894500Y-46185500D03*
D42*
X137714500Y-48855500D03*
%TD*%
D23*
%TO.C,R2*%
X121791000Y-48400000D03*
X122811000Y-48400000D03*
%TD*%
D44*
%TO.C,U1*%
X122130000Y-50410000D03*
X122130000Y-51680000D03*
X122130000Y-52950000D03*
X122130000Y-54220000D03*
X129330000Y-54220000D03*
X129330000Y-52950000D03*
X129330000Y-51680000D03*
X129330000Y-50410000D03*
%TD*%
D16*
%TO.C,C28*%
X137394000Y-102300000D03*
X135494000Y-102300000D03*
%TD*%
D10*
%TO.C,R3*%
X133362000Y-68535000D03*
X133362000Y-67515000D03*
%TD*%
D19*
%TO.C,R21*%
X124081000Y-77991000D03*
X123061000Y-77991000D03*
%TD*%
D23*
%TO.C,R12*%
X116071000Y-50170000D03*
X117091000Y-50170000D03*
%TD*%
D10*
%TO.C,R36*%
X136400000Y-77450000D03*
X136400000Y-76430000D03*
%TD*%
%TO.C,R34*%
X128741000Y-77472000D03*
X128741000Y-76452000D03*
%TD*%
D23*
%TO.C,R20*%
X116071000Y-67950000D03*
X117091000Y-67950000D03*
%TD*%
D45*
%TO.C,U12*%
X135225000Y-83225000D03*
X134425000Y-83225000D03*
D46*
X134075000Y-84175000D03*
X134575000Y-84175000D03*
X135075000Y-84175000D03*
X135575000Y-84175000D03*
X135575000Y-82275000D03*
X135075000Y-82275000D03*
X134575000Y-82275000D03*
X134075000Y-82275000D03*
%TD*%
D10*
%TO.C,R37*%
X133853000Y-77444000D03*
X133853000Y-76424000D03*
%TD*%
D26*
%TO.C,C14*%
X138966000Y-57400000D03*
X139926000Y-57400000D03*
%TD*%
D25*
%TO.C,J23*%
X113500000Y-89500000D03*
X113500000Y-84500000D03*
%TD*%
D19*
%TO.C,R24*%
X124081000Y-70371000D03*
X123061000Y-70371000D03*
%TD*%
D32*
%TO.C,D6*%
X153035000Y-51968500D03*
X153035000Y-50393500D03*
%TD*%
D31*
%TO.C,C18*%
X134112000Y-55484000D03*
X134112000Y-54524000D03*
%TD*%
D11*
%TO.C,U8*%
X133128000Y-104643000D03*
X135428000Y-104643000D03*
D12*
X135428000Y-110943000D03*
D11*
X137728000Y-104643000D03*
%TD*%
D47*
%TO.C,R43*%
X148272000Y-61976000D03*
X146622000Y-61976000D03*
%TD*%
D19*
%TO.C,R1*%
X123825000Y-46749000D03*
X122805000Y-46749000D03*
%TD*%
D22*
%TO.C,C15*%
X129258000Y-57925000D03*
X128298000Y-57925000D03*
%TD*%
D30*
%TO.C,C22*%
X119761000Y-73574000D03*
X119761000Y-74534000D03*
%TD*%
D48*
%TO.C,R5*%
X136418500Y-51580000D03*
X136418500Y-53230000D03*
%TD*%
D49*
%TO.C,U6*%
X118024000Y-72314000D03*
X118674000Y-72314000D03*
X119324000Y-72314000D03*
X119974000Y-72314000D03*
X119974000Y-70714000D03*
X119324000Y-70714000D03*
X118674000Y-70714000D03*
X118024000Y-70714000D03*
%TD*%
D50*
%TO.C,D3*%
X125612500Y-93000000D03*
X127187500Y-93000000D03*
%TD*%
D28*
%TO.C,R54*%
X137361000Y-115853500D03*
X135711000Y-115853500D03*
%TD*%
D19*
%TO.C,R8*%
X143210000Y-75000000D03*
X142190000Y-75000000D03*
%TD*%
D11*
%TO.C,U4*%
X157748000Y-54453000D03*
D12*
X155448000Y-60753000D03*
D11*
X155448000Y-54453000D03*
X153148000Y-54453000D03*
%TD*%
D51*
%TO.C,X1*%
X131362000Y-71755000D03*
X133562000Y-71755000D03*
X133562000Y-69995000D03*
X131362000Y-69995000D03*
%TD*%
D23*
%TO.C,R18*%
X116071000Y-62870000D03*
X117091000Y-62870000D03*
%TD*%
%TO.C,R11*%
X125890000Y-91700000D03*
X126910000Y-91700000D03*
%TD*%
D25*
%TO.C,J12*%
X155575000Y-66969000D03*
X155575000Y-71969000D03*
%TD*%
D22*
%TO.C,C40*%
X133105000Y-82225000D03*
X132145000Y-82225000D03*
%TD*%
D23*
%TO.C,R14*%
X116071000Y-55250000D03*
X117091000Y-55250000D03*
%TD*%
D52*
%TO.C,C37*%
X132475000Y-86625000D03*
X130925000Y-86625000D03*
%TD*%
D27*
%TO.C,D2*%
X152239000Y-63119000D03*
X154339000Y-63119000D03*
%TD*%
D53*
%TO.C,BZ1*%
X113700000Y-75200000D03*
X113700000Y-79200000D03*
%TD*%
D21*
%TO.C,R10*%
X123900000Y-94580000D03*
X123900000Y-95600000D03*
%TD*%
D22*
%TO.C,C39*%
X133105000Y-83225000D03*
X132145000Y-83225000D03*
%TD*%
D10*
%TO.C,R44*%
X151040000Y-113486000D03*
X151040000Y-114506000D03*
%TD*%
D30*
%TO.C,C13*%
X134452000Y-67535000D03*
X134452000Y-68495000D03*
%TD*%
D20*
%TO.C,Q3*%
X125350000Y-96700000D03*
X127250000Y-96700000D03*
X126300000Y-94825000D03*
%TD*%
D31*
%TO.C,C8*%
X135452000Y-68495000D03*
X135452000Y-67535000D03*
%TD*%
%TO.C,C7*%
X137922000Y-56085000D03*
X137922000Y-55125000D03*
%TD*%
D23*
%TO.C,R7*%
X147445000Y-60706000D03*
X148465000Y-60706000D03*
%TD*%
M02*
