%TF.GenerationSoftware,KiCad,Pcbnew,(6.0.10)*%
%TF.CreationDate,2023-02-23T14:30:16-05:00*%
%TF.ProjectId,rp2040_v0,72703230-3430-45f7-9630-2e6b69636164,rev?*%
%TF.SameCoordinates,Original*%
%TF.FileFunction,Copper,L1,Top*%
%TF.FilePolarity,Positive*%
%FSLAX46Y46*%
G04 Gerber Fmt 4.6, Leading zero omitted, Abs format (unit mm)*
G04 Created by KiCad (PCBNEW (6.0.10)) date 2023-02-23 14:30:16*
%MOMM*%
%LPD*%
G01*
G04 APERTURE LIST*
G04 Aperture macros list*
%AMRoundRect*
0 Rectangle with rounded corners*
0 $1 Rounding radius*
0 $2 $3 $4 $5 $6 $7 $8 $9 X,Y pos of 4 corners*
0 Add a 4 corners polygon primitive as box body*
4,1,4,$2,$3,$4,$5,$6,$7,$8,$9,$2,$3,0*
0 Add four circle primitives for the rounded corners*
1,1,$1+$1,$2,$3*
1,1,$1+$1,$4,$5*
1,1,$1+$1,$6,$7*
1,1,$1+$1,$8,$9*
0 Add four rect primitives between the rounded corners*
20,1,$1+$1,$2,$3,$4,$5,0*
20,1,$1+$1,$4,$5,$6,$7,0*
20,1,$1+$1,$6,$7,$8,$9,0*
20,1,$1+$1,$8,$9,$2,$3,0*%
G04 Aperture macros list end*
%TA.AperFunction,SMDPad,CuDef*%
%ADD10RoundRect,0.135000X0.185000X-0.135000X0.185000X0.135000X-0.185000X0.135000X-0.185000X-0.135000X0*%
%TD*%
%TA.AperFunction,ComponentPad*%
%ADD11C,1.600000*%
%TD*%
%TA.AperFunction,ComponentPad*%
%ADD12O,1.600000X1.600000*%
%TD*%
%TA.AperFunction,SMDPad,CuDef*%
%ADD13R,1.500000X2.000000*%
%TD*%
%TA.AperFunction,SMDPad,CuDef*%
%ADD14R,3.800000X2.000000*%
%TD*%
%TA.AperFunction,SMDPad,CuDef*%
%ADD15RoundRect,0.150000X-0.150000X0.587500X-0.150000X-0.587500X0.150000X-0.587500X0.150000X0.587500X0*%
%TD*%
%TA.AperFunction,SMDPad,CuDef*%
%ADD16R,4.600000X1.100000*%
%TD*%
%TA.AperFunction,SMDPad,CuDef*%
%ADD17R,9.400000X10.800000*%
%TD*%
%TA.AperFunction,SMDPad,CuDef*%
%ADD18RoundRect,0.250000X-0.250000X-0.475000X0.250000X-0.475000X0.250000X0.475000X-0.250000X0.475000X0*%
%TD*%
%TA.AperFunction,SMDPad,CuDef*%
%ADD19R,0.800000X0.250000*%
%TD*%
%TA.AperFunction,SMDPad,CuDef*%
%ADD20R,0.250000X0.800000*%
%TD*%
%TA.AperFunction,SMDPad,CuDef*%
%ADD21RoundRect,0.135000X0.135000X0.185000X-0.135000X0.185000X-0.135000X-0.185000X0.135000X-0.185000X0*%
%TD*%
%TA.AperFunction,SMDPad,CuDef*%
%ADD22RoundRect,0.150000X0.150000X-0.587500X0.150000X0.587500X-0.150000X0.587500X-0.150000X-0.587500X0*%
%TD*%
%TA.AperFunction,SMDPad,CuDef*%
%ADD23RoundRect,0.135000X-0.185000X0.135000X-0.185000X-0.135000X0.185000X-0.135000X0.185000X0.135000X0*%
%TD*%
%TA.AperFunction,SMDPad,CuDef*%
%ADD24RoundRect,0.140000X0.140000X0.170000X-0.140000X0.170000X-0.140000X-0.170000X0.140000X-0.170000X0*%
%TD*%
%TA.AperFunction,SMDPad,CuDef*%
%ADD25RoundRect,0.135000X-0.135000X-0.185000X0.135000X-0.185000X0.135000X0.185000X-0.135000X0.185000X0*%
%TD*%
%TA.AperFunction,SMDPad,CuDef*%
%ADD26RoundRect,0.250000X0.475000X-0.250000X0.475000X0.250000X-0.475000X0.250000X-0.475000X-0.250000X0*%
%TD*%
%TA.AperFunction,ComponentPad*%
%ADD27C,2.000000*%
%TD*%
%TA.AperFunction,SMDPad,CuDef*%
%ADD28RoundRect,0.140000X-0.140000X-0.170000X0.140000X-0.170000X0.140000X0.170000X-0.140000X0.170000X0*%
%TD*%
%TA.AperFunction,SMDPad,CuDef*%
%ADD29R,0.600000X0.450000*%
%TD*%
%TA.AperFunction,ComponentPad*%
%ADD30R,1.700000X1.700000*%
%TD*%
%TA.AperFunction,ComponentPad*%
%ADD31O,1.700000X1.700000*%
%TD*%
%TA.AperFunction,SMDPad,CuDef*%
%ADD32RoundRect,0.200000X-0.200000X-0.275000X0.200000X-0.275000X0.200000X0.275000X-0.200000X0.275000X0*%
%TD*%
%TA.AperFunction,SMDPad,CuDef*%
%ADD33RoundRect,0.250000X0.250000X0.475000X-0.250000X0.475000X-0.250000X-0.475000X0.250000X-0.475000X0*%
%TD*%
%TA.AperFunction,SMDPad,CuDef*%
%ADD34RoundRect,0.140000X-0.170000X0.140000X-0.170000X-0.140000X0.170000X-0.140000X0.170000X0.140000X0*%
%TD*%
%TA.AperFunction,SMDPad,CuDef*%
%ADD35RoundRect,0.140000X0.170000X-0.140000X0.170000X0.140000X-0.170000X0.140000X-0.170000X-0.140000X0*%
%TD*%
%TA.AperFunction,SMDPad,CuDef*%
%ADD36RoundRect,0.218750X0.256250X-0.218750X0.256250X0.218750X-0.256250X0.218750X-0.256250X-0.218750X0*%
%TD*%
%TA.AperFunction,SMDPad,CuDef*%
%ADD37R,1.100000X0.200000*%
%TD*%
%TA.AperFunction,SMDPad,CuDef*%
%ADD38R,0.200000X1.100000*%
%TD*%
%TA.AperFunction,SMDPad,CuDef*%
%ADD39R,3.100000X3.100000*%
%TD*%
%TA.AperFunction,SMDPad,CuDef*%
%ADD40R,2.000000X1.500000*%
%TD*%
%TA.AperFunction,SMDPad,CuDef*%
%ADD41R,2.000000X3.800000*%
%TD*%
%TA.AperFunction,SMDPad,CuDef*%
%ADD42RoundRect,0.250000X-0.475000X0.250000X-0.475000X-0.250000X0.475000X-0.250000X0.475000X0.250000X0*%
%TD*%
%TA.AperFunction,SMDPad,CuDef*%
%ADD43RoundRect,0.200000X0.275000X-0.200000X0.275000X0.200000X-0.275000X0.200000X-0.275000X-0.200000X0*%
%TD*%
%TA.AperFunction,SMDPad,CuDef*%
%ADD44RoundRect,0.218750X0.218750X0.256250X-0.218750X0.256250X-0.218750X-0.256250X0.218750X-0.256250X0*%
%TD*%
%TA.AperFunction,SMDPad,CuDef*%
%ADD45R,0.400000X1.400000*%
%TD*%
%TA.AperFunction,ComponentPad*%
%ADD46C,1.300000*%
%TD*%
%TA.AperFunction,ComponentPad*%
%ADD47O,1.300000X2.200000*%
%TD*%
%TA.AperFunction,SMDPad,CuDef*%
%ADD48RoundRect,0.150000X-0.650000X-0.150000X0.650000X-0.150000X0.650000X0.150000X-0.650000X0.150000X0*%
%TD*%
%TA.AperFunction,SMDPad,CuDef*%
%ADD49R,0.250000X0.500000*%
%TD*%
%TA.AperFunction,SMDPad,CuDef*%
%ADD50R,1.600000X0.900000*%
%TD*%
%TA.AperFunction,SMDPad,CuDef*%
%ADD51RoundRect,0.200000X0.200000X0.275000X-0.200000X0.275000X-0.200000X-0.275000X0.200000X-0.275000X0*%
%TD*%
%TA.AperFunction,SMDPad,CuDef*%
%ADD52RoundRect,0.200000X-0.275000X0.200000X-0.275000X-0.200000X0.275000X-0.200000X0.275000X0.200000X0*%
%TD*%
%TA.AperFunction,SMDPad,CuDef*%
%ADD53R,0.350000X0.500000*%
%TD*%
%TA.AperFunction,SMDPad,CuDef*%
%ADD54RoundRect,0.218750X-0.218750X-0.256250X0.218750X-0.256250X0.218750X0.256250X-0.218750X0.256250X0*%
%TD*%
%TA.AperFunction,SMDPad,CuDef*%
%ADD55R,1.400000X1.200000*%
%TD*%
%TA.AperFunction,SMDPad,CuDef*%
%ADD56RoundRect,0.225000X0.225000X0.250000X-0.225000X0.250000X-0.225000X-0.250000X0.225000X-0.250000X0*%
%TD*%
%TA.AperFunction,ComponentPad*%
%ADD57C,1.800000*%
%TD*%
%TA.AperFunction,ViaPad*%
%ADD58C,0.800000*%
%TD*%
%TA.AperFunction,Conductor*%
%ADD59C,0.300000*%
%TD*%
%TA.AperFunction,Conductor*%
%ADD60C,0.150000*%
%TD*%
%TA.AperFunction,Conductor*%
%ADD61C,2.000000*%
%TD*%
%TA.AperFunction,Conductor*%
%ADD62C,0.500000*%
%TD*%
%TA.AperFunction,Conductor*%
%ADD63C,0.400000*%
%TD*%
%TA.AperFunction,Conductor*%
%ADD64C,0.600000*%
%TD*%
G04 APERTURE END LIST*
D10*
%TO.P,R55,1*%
%TO.N,ADC_2__Pyro_C_Continuity_Check*%
X139836000Y-115810000D03*
%TO.P,R55,2*%
%TO.N,GND*%
X139836000Y-114790000D03*
%TD*%
%TO.P,R53,1*%
%TO.N,ADC_1__Pyro_B_Continuity_Check*%
X123600000Y-115910000D03*
%TO.P,R53,2*%
%TO.N,GND*%
X123600000Y-114890000D03*
%TD*%
%TO.P,R42,1*%
%TO.N,ADC_0__Pyro_A_Continuity_Check*%
X153300000Y-116010000D03*
%TO.P,R42,2*%
%TO.N,GND*%
X153300000Y-114990000D03*
%TD*%
%TO.P,R40,1*%
%TO.N,ADC_3__Battery_Read*%
X141800000Y-58100000D03*
%TO.P,R40,2*%
%TO.N,GND*%
X141800000Y-57080000D03*
%TD*%
D11*
%TO.P,R49,1*%
%TO.N,Net-(R48-Pad2)*%
X154300000Y-97200000D03*
D12*
%TO.P,R49,2*%
%TO.N,Armed_Batt+_with_big_pyro_resistor*%
X154300000Y-109900000D03*
%TD*%
D11*
%TO.P,R47,1*%
%TO.N,Net-(R46-Pad2)*%
X158100000Y-97150000D03*
D12*
%TO.P,R47,2*%
%TO.N,Armed_Batt+_with_big_pyro_resistor*%
X158100000Y-109850000D03*
%TD*%
D11*
%TO.P,R48,1*%
%TO.N,Net-(J15-Pad2)*%
X154300000Y-82300000D03*
D12*
%TO.P,R48,2*%
%TO.N,Net-(R48-Pad2)*%
X154300000Y-95000000D03*
%TD*%
%TO.P,R46,2*%
%TO.N,Net-(R46-Pad2)*%
X158100000Y-94950000D03*
D11*
%TO.P,R46,1*%
%TO.N,Net-(J15-Pad2)*%
X158100000Y-82250000D03*
%TD*%
D13*
%TO.P,U7,3,VI*%
%TO.N,Protected_VBATT+*%
X115686000Y-104828000D03*
%TO.P,U7,2,VO*%
%TO.N,5v_Servo_AB*%
X117986000Y-104828000D03*
D14*
X117986000Y-111128000D03*
D13*
%TO.P,U7,1,GND*%
%TO.N,GND*%
X120286000Y-104828000D03*
%TD*%
D15*
%TO.P,Q2,3,D*%
%TO.N,Net-(J25-Pad2)*%
X147738000Y-115949500D03*
%TO.P,Q2,2,S*%
%TO.N,GND*%
X146788000Y-114074500D03*
%TO.P,Q2,1,G*%
%TO.N,Net-(Q2-Pad1)*%
X148688000Y-114074500D03*
%TD*%
D16*
%TO.P,R39,1*%
%TO.N,Net-(J15-Pad2)*%
X156825000Y-85760000D03*
D17*
X165975000Y-88300000D03*
D16*
%TO.P,R39,2*%
%TO.N,Armed_Batt+_with_big_pyro_resistor*%
X156825000Y-90840000D03*
%TD*%
D18*
%TO.P,C25,2*%
%TO.N,Protected_VBATT+*%
X133330000Y-102300000D03*
%TO.P,C25,1*%
%TO.N,GND*%
X131430000Y-102300000D03*
%TD*%
D19*
%TO.P,U5,16,INT1*%
%TO.N,Net-(J13-Pad15)*%
X136410000Y-94476500D03*
D20*
%TO.P,U5,15,SDO1*%
%TO.N,Net-(J13-Pad13)*%
X136000000Y-93276500D03*
%TO.P,U5,14,CSB1*%
%TO.N,Net-(J13-Pad11)*%
X135500000Y-93276500D03*
%TO.P,U5,13,INT4*%
%TO.N,unconnected-(U5-Pad13)*%
X135000000Y-93276500D03*
%TO.P,U5,12,INT3*%
%TO.N,Net-(J13-Pad9)*%
X134500000Y-93276500D03*
%TO.P,U5,11,VDDIO*%
%TO.N,Net-(C20-Pad1)*%
X134000000Y-93276500D03*
%TO.P,U5,10,SDO2*%
%TO.N,Net-(J13-Pad5)*%
X133500000Y-93276500D03*
%TO.P,U5,9,SDA/SDI*%
%TO.N,Net-(J13-Pad3)*%
X133000000Y-93276500D03*
D19*
%TO.P,U5,8,SCL/SCK*%
%TO.N,Net-(J13-Pad1)*%
X132590000Y-94476500D03*
D20*
%TO.P,U5,7,PS*%
%TO.N,GND*%
X133000000Y-95676500D03*
%TO.P,U5,6,GNDIO*%
X133500000Y-95676500D03*
%TO.P,U5,5,CSB2*%
%TO.N,Net-(J13-Pad17)*%
X134000000Y-95676500D03*
%TO.P,U5,4,GNDA*%
%TO.N,GND*%
X134500000Y-95676500D03*
%TO.P,U5,3,VDD*%
%TO.N,Net-(C20-Pad1)*%
X135000000Y-95676500D03*
%TO.P,U5,2,NC*%
%TO.N,GND*%
X135500000Y-95676500D03*
%TO.P,U5,1,INT2*%
%TO.N,unconnected-(U5-Pad1)*%
X136000000Y-95676500D03*
%TD*%
D21*
%TO.P,R25,1*%
%TO.N,SPI1_CSn__BMP280_CSn*%
X124081000Y-67831000D03*
%TO.P,R25,2*%
%TO.N,Net-(J14-Pad10)*%
X123061000Y-67831000D03*
%TD*%
D22*
%TO.P,Q1,3,D*%
%TO.N,Net-(D5-Pad1)*%
X140400000Y-95162500D03*
%TO.P,Q1,2,S*%
%TO.N,GND*%
X141350000Y-97037500D03*
%TO.P,Q1,1,G*%
%TO.N,Net-(Q1-Pad1)*%
X139450000Y-97037500D03*
%TD*%
D23*
%TO.P,R6,1*%
%TO.N,+3.3V*%
X154559000Y-50036000D03*
%TO.P,R6,2*%
%TO.N,Net-(D6-Pad2)*%
X154559000Y-51056000D03*
%TD*%
D24*
%TO.P,C12,1*%
%TO.N,+3.3V*%
X127002000Y-62605000D03*
%TO.P,C12,2*%
%TO.N,GND*%
X126042000Y-62605000D03*
%TD*%
D25*
%TO.P,R17,1*%
%TO.N,Net-(J13-Pad11)*%
X116071000Y-60330000D03*
%TO.P,R17,2*%
%TO.N,SPI0_CSn__BMI088_CS_ACCEL*%
X117091000Y-60330000D03*
%TD*%
D26*
%TO.P,C5,1*%
%TO.N,+3.3V*%
X153543000Y-48702000D03*
%TO.P,C5,2*%
%TO.N,GND*%
X153543000Y-46802000D03*
%TD*%
D27*
%TO.P,J27,2,Pin_2*%
%TO.N,Net-(J27-Pad2)*%
X116803000Y-120887500D03*
%TO.P,J27,1,Pin_1*%
%TO.N,Armed_Batt+_with_big_pyro_resistor*%
X121803000Y-120887500D03*
%TD*%
D28*
%TO.P,C17,1*%
%TO.N,+3.3V*%
X141169000Y-62592000D03*
%TO.P,C17,2*%
%TO.N,GND*%
X142129000Y-62592000D03*
%TD*%
D10*
%TO.P,R57,2*%
%TO.N,Pyro_Control_C*%
X137636000Y-113311500D03*
%TO.P,R57,1*%
%TO.N,GND*%
X137636000Y-114331500D03*
%TD*%
D25*
%TO.P,R33,1*%
%TO.N,Net-(D5-Pad2)*%
X140090000Y-91800000D03*
%TO.P,R33,2*%
%TO.N,+5V*%
X141110000Y-91800000D03*
%TD*%
D29*
%TO.P,D1,2,A*%
%TO.N,VBUS*%
X138269000Y-51956000D03*
%TO.P,D1,1,K*%
%TO.N,Net-(D1-Pad1)*%
X140369000Y-51956000D03*
%TD*%
D30*
%TO.P,J3,1,Pin_1*%
%TO.N,Net-(J3-Pad1)*%
X143025000Y-72200000D03*
D31*
%TO.P,J3,2,Pin_2*%
%TO.N,GND*%
X140485000Y-72200000D03*
%TO.P,J3,3,Pin_3*%
%TO.N,Net-(J3-Pad3)*%
X137945000Y-72200000D03*
%TD*%
D18*
%TO.P,C24,2*%
%TO.N,Protected_VBATT+*%
X115550000Y-102500000D03*
%TO.P,C24,1*%
%TO.N,GND*%
X113650000Y-102500000D03*
%TD*%
D32*
%TO.P,R41,2*%
%TO.N,ADC_0__Pyro_A_Continuity_Check*%
X151865000Y-116028000D03*
%TO.P,R41,1*%
%TO.N,Net-(J25-Pad2)*%
X150215000Y-116028000D03*
%TD*%
D10*
%TO.P,R56,2*%
%TO.N,Pyro_Control_B*%
X121459000Y-113641500D03*
%TO.P,R56,1*%
%TO.N,GND*%
X121459000Y-114661500D03*
%TD*%
D30*
%TO.P,J22,1,Pin_1*%
%TO.N,Net-(J22-Pad1)*%
X128778000Y-78209000D03*
D31*
%TO.P,J22,2,Pin_2*%
%TO.N,PWM_6_A__Reaction_Control_Wheel_In_A*%
X128778000Y-75669000D03*
%TO.P,J22,3,Pin_3*%
%TO.N,Net-(J22-Pad3)*%
X131318000Y-78209000D03*
%TO.P,J22,4,Pin_4*%
%TO.N,PWM_7_A__Reaction_Control_Wheel_In_B*%
X131318000Y-75669000D03*
%TO.P,J22,5,Pin_5*%
%TO.N,Net-(C40-Pad1)*%
X133858000Y-78209000D03*
%TO.P,J22,6,Pin_6*%
%TO.N,+3.3V*%
X133858000Y-75669000D03*
%TO.P,J22,7,Pin_7*%
%TO.N,Net-(J22-Pad7)*%
X136398000Y-78209000D03*
%TO.P,J22,8,Pin_8*%
%TO.N,+3.3V*%
X136398000Y-75669000D03*
%TO.P,J22,9,Pin_9*%
%TO.N,Net-(C37-Pad1)*%
X138938000Y-78209000D03*
%TO.P,J22,10,Pin_10*%
%TO.N,MOTOR_POWER*%
X138938000Y-75669000D03*
%TD*%
D15*
%TO.P,Q5,3,D*%
%TO.N,Net-(J28-Pad2)*%
X132350000Y-115775000D03*
%TO.P,Q5,2,S*%
%TO.N,GND*%
X131400000Y-113900000D03*
%TO.P,Q5,1,G*%
%TO.N,Net-(Q5-Pad1)*%
X133300000Y-113900000D03*
%TD*%
D23*
%TO.P,R32,1*%
%TO.N,User_controlled_LED_A*%
X138200000Y-92590000D03*
%TO.P,R32,2*%
%TO.N,Net-(Q1-Pad1)*%
X138200000Y-93610000D03*
%TD*%
D33*
%TO.P,C38,1*%
%TO.N,Net-(C37-Pad1)*%
X132775000Y-84825000D03*
%TO.P,C38,2*%
%TO.N,GND*%
X130875000Y-84825000D03*
%TD*%
D28*
%TO.P,C21,2*%
%TO.N,GND*%
X134623000Y-91179500D03*
%TO.P,C21,1*%
%TO.N,Net-(C20-Pad1)*%
X133663000Y-91179500D03*
%TD*%
%TO.P,C19,1*%
%TO.N,+3.3V*%
X138966000Y-58433000D03*
%TO.P,C19,2*%
%TO.N,GND*%
X139926000Y-58433000D03*
%TD*%
D31*
%TO.P,J18,3,Pin_3*%
%TO.N,GND*%
X141000000Y-110480000D03*
%TO.P,J18,2,Pin_2*%
%TO.N,5v_Servo_CD*%
X141000000Y-107940000D03*
D30*
%TO.P,J18,1,Pin_1*%
%TO.N,PWM_3_A__Servo_D*%
X141000000Y-105400000D03*
%TD*%
D34*
%TO.P,C1,1*%
%TO.N,GND*%
X129692000Y-70399000D03*
%TO.P,C1,2*%
%TO.N,XIN*%
X129692000Y-71359000D03*
%TD*%
%TO.P,C3,1*%
%TO.N,Net-(C3-Pad1)*%
X135182000Y-70399000D03*
%TO.P,C3,2*%
%TO.N,GND*%
X135182000Y-71359000D03*
%TD*%
D25*
%TO.P,R16,1*%
%TO.N,Net-(J13-Pad9)*%
X116076000Y-57780000D03*
%TO.P,R16,2*%
%TO.N,GYRO_INT*%
X117096000Y-57780000D03*
%TD*%
D35*
%TO.P,C16,1*%
%TO.N,+3.3V*%
X138922000Y-56085000D03*
%TO.P,C16,2*%
%TO.N,GND*%
X138922000Y-55125000D03*
%TD*%
D23*
%TO.P,R59,2*%
%TO.N,Net-(Q5-Pad1)*%
X135700000Y-114331500D03*
%TO.P,R59,1*%
%TO.N,Pyro_Control_C*%
X135700000Y-113311500D03*
%TD*%
D36*
%TO.P,D4,1,K*%
%TO.N,GND*%
X150622000Y-62509500D03*
%TO.P,D4,2,A*%
%TO.N,Net-(D4-Pad2)*%
X150622000Y-60934500D03*
%TD*%
D21*
%TO.P,R22,1*%
%TO.N,+3.3V*%
X124081000Y-75451000D03*
%TO.P,R22,2*%
%TO.N,Net-(C22-Pad1)*%
X123061000Y-75451000D03*
%TD*%
D37*
%TO.P,U3,1,IOVDD*%
%TO.N,+3.3V*%
X130572000Y-59005000D03*
%TO.P,U3,2,GPIO0*%
%TO.N,SPI0_RX__BMI088_MISO*%
X130572000Y-59405000D03*
%TO.P,U3,3,GPIO1*%
%TO.N,SPI0_CSn__BMI088_CS_ACCEL*%
X130572000Y-59805000D03*
%TO.P,U3,4,GPIO2*%
%TO.N,SPI0_SCK__BMI088_SCLK*%
X130572000Y-60205000D03*
%TO.P,U3,5,GPIO3*%
%TO.N,SPI0_TX__BMI088_MOSI*%
X130572000Y-60605000D03*
%TO.P,U3,6,GPIO4*%
%TO.N,GYRO_INT*%
X130572000Y-61005000D03*
%TO.P,U3,7,GPIO5*%
%TO.N,SPI0_CSn__BMI088_CS_GYRO*%
X130572000Y-61405000D03*
%TO.P,U3,8,GPIO6*%
%TO.N,ACCEL_INT*%
X130572000Y-61805000D03*
%TO.P,U3,9,GPIO7*%
%TO.N,Buzzer*%
X130572000Y-62205000D03*
%TO.P,U3,10,IOVDD*%
%TO.N,+3.3V*%
X130572000Y-62605000D03*
%TO.P,U3,11,GPIO8*%
%TO.N,SPI1_RX__BMP280_MISO*%
X130572000Y-63005000D03*
%TO.P,U3,12,GPIO9*%
%TO.N,SPI1_CSn__BMP280_CSn*%
X130572000Y-63405000D03*
%TO.P,U3,13,GPIO10*%
%TO.N,SPI1_SCK__BMP280_SCLK*%
X130572000Y-63805000D03*
%TO.P,U3,14,GPIO11*%
%TO.N,SPI1_TX__BMP280_MOSI*%
X130572000Y-64205000D03*
D38*
%TO.P,U3,15,GPIO12*%
%TO.N,PWM_6_A__Reaction_Control_Wheel_In_A*%
X131522000Y-65155000D03*
%TO.P,U3,16,GPIO13*%
%TO.N,User_controlled_LED_A*%
X131922000Y-65155000D03*
%TO.P,U3,17,GPIO14*%
%TO.N,PWM_7_A__Reaction_Control_Wheel_In_B*%
X132322000Y-65155000D03*
%TO.P,U3,18,GPIO15*%
%TO.N,User_controlled_LED_B*%
X132722000Y-65155000D03*
%TO.P,U3,19,TESTEN*%
%TO.N,GND*%
X133122000Y-65155000D03*
%TO.P,U3,20,XIN*%
%TO.N,XIN*%
X133522000Y-65155000D03*
%TO.P,U3,21,XOUT*%
%TO.N,XOUT*%
X133922000Y-65155000D03*
%TO.P,U3,22,IOVDD*%
%TO.N,+3.3V*%
X134322000Y-65155000D03*
%TO.P,U3,23,DVDD*%
%TO.N,+1V1*%
X134722000Y-65155000D03*
%TO.P,U3,24,SWCLK*%
%TO.N,Net-(J3-Pad3)*%
X135122000Y-65155000D03*
%TO.P,U3,25,SWD*%
%TO.N,Net-(J3-Pad1)*%
X135522000Y-65155000D03*
%TO.P,U3,26,RUN*%
%TO.N,Run*%
X135922000Y-65155000D03*
%TO.P,U3,27,GPIO16*%
%TO.N,PWM_0_A__Servo_A*%
X136322000Y-65155000D03*
%TO.P,U3,28,GPIO17*%
%TO.N,Pyro_Control_A*%
X136722000Y-65155000D03*
D37*
%TO.P,U3,29,GPIO18*%
%TO.N,PWM_1_A__Servo_B*%
X137672000Y-64205000D03*
%TO.P,U3,30,GPIO19*%
%TO.N,Pyro_Control_B*%
X137672000Y-63805000D03*
%TO.P,U3,31,GPIO20*%
%TO.N,UART_1_TX_I2C0_SDA*%
X137672000Y-63405000D03*
%TO.P,U3,32,GPIO21*%
%TO.N,PWM_2_B__Servo_C*%
X137672000Y-63005000D03*
%TO.P,U3,33,IOVDD*%
%TO.N,+3.3V*%
X137672000Y-62605000D03*
%TO.P,U3,34,GPIO22*%
%TO.N,PWM_3_A__Servo_D*%
X137672000Y-62205000D03*
%TO.P,U3,35,GPIO23*%
%TO.N,UART_1_RX_I2C0_SCL*%
X137672000Y-61805000D03*
%TO.P,U3,36,GPIO24*%
%TO.N,PWM_4_A__Servo_E*%
X137672000Y-61405000D03*
%TO.P,U3,37,GPIO25*%
%TO.N,Pyro_Control_C*%
X137672000Y-61005000D03*
%TO.P,U3,38,GPIO26_ADC0*%
%TO.N,ADC_0__Pyro_A_Continuity_Check*%
X137672000Y-60605000D03*
%TO.P,U3,39,GPIO27_ADC1*%
%TO.N,ADC_1__Pyro_B_Continuity_Check*%
X137672000Y-60205000D03*
%TO.P,U3,40,GPIO28_ADC2*%
%TO.N,ADC_2__Pyro_C_Continuity_Check*%
X137672000Y-59805000D03*
%TO.P,U3,41,GPIO29_ADC3*%
%TO.N,ADC_3__Battery_Read*%
X137672000Y-59405000D03*
%TO.P,U3,42,IOVDD*%
%TO.N,+3.3V*%
X137672000Y-59005000D03*
D38*
%TO.P,U3,43,ADC_AVDD*%
X136722000Y-58055000D03*
%TO.P,U3,44,VREG_IN*%
X136322000Y-58055000D03*
%TO.P,U3,45,VREG_VOUT*%
%TO.N,+1V1*%
X135922000Y-58055000D03*
%TO.P,U3,46,USB_DM*%
%TO.N,/D-*%
X135522000Y-58055000D03*
%TO.P,U3,47,USB_DP*%
%TO.N,/D+*%
X135122000Y-58055000D03*
%TO.P,U3,48,USB_VDD*%
%TO.N,+3.3V*%
X134722000Y-58055000D03*
%TO.P,U3,49,IOVDD*%
X134322000Y-58055000D03*
%TO.P,U3,50,DVDD*%
%TO.N,+1V1*%
X133922000Y-58055000D03*
%TO.P,U3,51,QSPI_SD3*%
%TO.N,/QSPI_SD3*%
X133522000Y-58055000D03*
%TO.P,U3,52,QSPI_SCLK*%
%TO.N,/QSPI_SCLK*%
X133122000Y-58055000D03*
%TO.P,U3,53,QSPI_SD0*%
%TO.N,/QSPI_SD0*%
X132722000Y-58055000D03*
%TO.P,U3,54,QSPI_SD2*%
%TO.N,/QSPI_SD2*%
X132322000Y-58055000D03*
%TO.P,U3,55,QSPI_SD1*%
%TO.N,/QSPI_SD1*%
X131922000Y-58055000D03*
%TO.P,U3,56,QSPI_SS*%
%TO.N,/QSPI_SS*%
X131522000Y-58055000D03*
D39*
%TO.P,U3,57,GND*%
%TO.N,GND*%
X134122000Y-61605000D03*
%TD*%
D28*
%TO.P,C20,2*%
%TO.N,GND*%
X136024000Y-96894500D03*
%TO.P,C20,1*%
%TO.N,Net-(C20-Pad1)*%
X135064000Y-96894500D03*
%TD*%
%TO.P,C23,1*%
%TO.N,Net-(C23-Pad1)*%
X117757000Y-73546000D03*
%TO.P,C23,2*%
%TO.N,GND*%
X118717000Y-73546000D03*
%TD*%
D18*
%TO.P,C27,2*%
%TO.N,GND*%
X120122000Y-102500000D03*
%TO.P,C27,1*%
%TO.N,5v_Servo_AB*%
X118222000Y-102500000D03*
%TD*%
D30*
%TO.P,J13,1,Pin_1*%
%TO.N,Net-(J13-Pad1)*%
X115311000Y-47630000D03*
D31*
%TO.P,J13,2,Pin_2*%
%TO.N,SPI0_SCK__BMI088_SCLK*%
X117851000Y-47630000D03*
%TO.P,J13,3,Pin_3*%
%TO.N,Net-(J13-Pad3)*%
X115311000Y-50170000D03*
%TO.P,J13,4,Pin_4*%
%TO.N,SPI0_TX__BMI088_MOSI*%
X117851000Y-50170000D03*
%TO.P,J13,5,Pin_5*%
%TO.N,Net-(J13-Pad5)*%
X115311000Y-52710000D03*
%TO.P,J13,6,Pin_6*%
%TO.N,SPI0_RX__BMI088_MISO*%
X117851000Y-52710000D03*
%TO.P,J13,7,Pin_7*%
%TO.N,Net-(C20-Pad1)*%
X115311000Y-55250000D03*
%TO.P,J13,8,Pin_8*%
%TO.N,+3.3V*%
X117851000Y-55250000D03*
%TO.P,J13,9,Pin_9*%
%TO.N,Net-(J13-Pad9)*%
X115311000Y-57790000D03*
%TO.P,J13,10,Pin_10*%
%TO.N,GYRO_INT*%
X117851000Y-57790000D03*
%TO.P,J13,11,Pin_11*%
%TO.N,Net-(J13-Pad11)*%
X115311000Y-60330000D03*
%TO.P,J13,12,Pin_12*%
%TO.N,SPI0_CSn__BMI088_CS_ACCEL*%
X117851000Y-60330000D03*
%TO.P,J13,13,Pin_13*%
%TO.N,Net-(J13-Pad13)*%
X115311000Y-62870000D03*
%TO.P,J13,14,Pin_14*%
%TO.N,SPI0_RX__BMI088_MISO*%
X117851000Y-62870000D03*
%TO.P,J13,15,Pin_15*%
%TO.N,Net-(J13-Pad15)*%
X115311000Y-65410000D03*
%TO.P,J13,16,Pin_16*%
%TO.N,ACCEL_INT*%
X117851000Y-65410000D03*
%TO.P,J13,17,Pin_17*%
%TO.N,Net-(J13-Pad17)*%
X115311000Y-67950000D03*
%TO.P,J13,18,Pin_18*%
%TO.N,SPI0_CSn__BMI088_CS_GYRO*%
X117851000Y-67950000D03*
%TD*%
D25*
%TO.P,R19,1*%
%TO.N,Net-(J13-Pad15)*%
X116071000Y-65410000D03*
%TO.P,R19,2*%
%TO.N,ACCEL_INT*%
X117091000Y-65410000D03*
%TD*%
D40*
%TO.P,U2,1,GND*%
%TO.N,GND*%
X144551000Y-46341000D03*
D41*
%TO.P,U2,2,VO*%
%TO.N,+3.3V*%
X150851000Y-48641000D03*
D40*
X144551000Y-48641000D03*
%TO.P,U2,3,VI*%
%TO.N,Net-(C2-Pad2)*%
X144551000Y-50941000D03*
%TD*%
D23*
%TO.P,R45,2*%
%TO.N,Net-(Q2-Pad1)*%
X150000000Y-114506000D03*
%TO.P,R45,1*%
%TO.N,Pyro_Control_A*%
X150000000Y-113486000D03*
%TD*%
D28*
%TO.P,C4,2*%
%TO.N,GND*%
X131798000Y-51194000D03*
%TO.P,C4,1*%
%TO.N,+3.3V*%
X130838000Y-51194000D03*
%TD*%
D32*
%TO.P,R52,2*%
%TO.N,ADC_1__Pyro_B_Continuity_Check*%
X121284000Y-116107500D03*
%TO.P,R52,1*%
%TO.N,Net-(J27-Pad2)*%
X119634000Y-116107500D03*
%TD*%
D42*
%TO.P,C2,1*%
%TO.N,GND*%
X142113000Y-48580000D03*
%TO.P,C2,2*%
%TO.N,Net-(C2-Pad2)*%
X142113000Y-50480000D03*
%TD*%
D15*
%TO.P,Q4,3,D*%
%TO.N,Net-(J27-Pad2)*%
X116550000Y-115775000D03*
%TO.P,Q4,2,S*%
%TO.N,GND*%
X115600000Y-113900000D03*
%TO.P,Q4,1,G*%
%TO.N,Net-(Q4-Pad1)*%
X117500000Y-113900000D03*
%TD*%
D31*
%TO.P,J19,3,Pin_3*%
%TO.N,GND*%
X129840000Y-110450000D03*
%TO.P,J19,2,Pin_2*%
%TO.N,5v_Servo_CD*%
X129840000Y-107910000D03*
D30*
%TO.P,J19,1,Pin_1*%
%TO.N,PWM_2_B__Servo_C*%
X129840000Y-105370000D03*
%TD*%
D18*
%TO.P,C11,1*%
%TO.N,Net-(C11-Pad1)*%
X156276000Y-63119000D03*
%TO.P,C11,2*%
%TO.N,GND*%
X158176000Y-63119000D03*
%TD*%
D25*
%TO.P,R13,1*%
%TO.N,Net-(J13-Pad5)*%
X116071000Y-52710000D03*
%TO.P,R13,2*%
%TO.N,SPI0_RX__BMI088_MISO*%
X117091000Y-52710000D03*
%TD*%
D21*
%TO.P,R23,1*%
%TO.N,SPI1_TX__BMP280_MOSI*%
X124081000Y-72911000D03*
%TO.P,R23,2*%
%TO.N,Net-(J14-Pad6)*%
X123061000Y-72911000D03*
%TD*%
%TO.P,R26,1*%
%TO.N,SPI1_RX__BMP280_MISO*%
X124081000Y-65291000D03*
%TO.P,R26,2*%
%TO.N,Net-(J14-Pad12)*%
X123061000Y-65291000D03*
%TD*%
D10*
%TO.P,R35,1*%
%TO.N,Net-(J22-Pad3)*%
X131281000Y-77474000D03*
%TO.P,R35,2*%
%TO.N,PWM_7_A__Reaction_Control_Wheel_In_B*%
X131281000Y-76454000D03*
%TD*%
D33*
%TO.P,C9,1*%
%TO.N,GND*%
X158176000Y-51816000D03*
%TO.P,C9,2*%
%TO.N,Protected_VBATT+*%
X156276000Y-51816000D03*
%TD*%
D30*
%TO.P,J11,1,Pin_1*%
%TO.N,UART_1_TX_I2C0_SDA*%
X141125000Y-66400000D03*
D31*
%TO.P,J11,2,Pin_2*%
%TO.N,UART_1_RX_I2C0_SCL*%
X143665000Y-66400000D03*
%TD*%
D34*
%TO.P,C6,1*%
%TO.N,GND*%
X132842000Y-53381000D03*
%TO.P,C6,2*%
%TO.N,+1V1*%
X132842000Y-54341000D03*
%TD*%
D30*
%TO.P,J15,1,Pin_1*%
%TO.N,+BATT*%
X157226000Y-76703000D03*
D31*
%TO.P,J15,2,Pin_2*%
%TO.N,Net-(J15-Pad2)*%
X157226000Y-79243000D03*
%TD*%
D43*
%TO.P,R4,1*%
%TO.N,/D+*%
X134818500Y-53230000D03*
%TO.P,R4,2*%
%TO.N,USB_D+*%
X134818500Y-51580000D03*
%TD*%
D30*
%TO.P,J7,1,Pin_1*%
%TO.N,+3.3V*%
X119550000Y-94020000D03*
%TD*%
D31*
%TO.P,J17,3,Pin_3*%
%TO.N,GND*%
X146500000Y-110480000D03*
%TO.P,J17,2,Pin_2*%
%TO.N,+5V*%
X146500000Y-107940000D03*
D30*
%TO.P,J17,1,Pin_1*%
%TO.N,PWM_4_A__Servo_E*%
X146500000Y-105400000D03*
%TD*%
%TO.P,J2,1,Pin_1*%
%TO.N,GND*%
X128651000Y-47511000D03*
D31*
%TO.P,J2,2,Pin_2*%
%TO.N,Net-(J2-Pad2)*%
X126111000Y-47511000D03*
%TD*%
D44*
%TO.P,D5,1,K*%
%TO.N,Net-(D5-Pad1)*%
X141287500Y-93200000D03*
%TO.P,D5,2,A*%
%TO.N,Net-(D5-Pad2)*%
X139712500Y-93200000D03*
%TD*%
D10*
%TO.P,R38,1*%
%TO.N,Net-(C37-Pad1)*%
X138900000Y-77450000D03*
%TO.P,R38,2*%
%TO.N,MOTOR_POWER*%
X138900000Y-76430000D03*
%TD*%
D23*
%TO.P,R58,2*%
%TO.N,Net-(Q4-Pad1)*%
X119659000Y-114661500D03*
%TO.P,R58,1*%
%TO.N,Pyro_Control_B*%
X119659000Y-113641500D03*
%TD*%
D27*
%TO.P,J25,2,Pin_2*%
%TO.N,Net-(J25-Pad2)*%
X148500000Y-121100000D03*
%TO.P,J25,1,Pin_1*%
%TO.N,Armed_Batt+_with_big_pyro_resistor*%
X153500000Y-121100000D03*
%TD*%
%TO.P,J28,2,Pin_2*%
%TO.N,Net-(J28-Pad2)*%
X133156000Y-120995500D03*
%TO.P,J28,1,Pin_1*%
%TO.N,Armed_Batt+_with_big_pyro_resistor*%
X138156000Y-120995500D03*
%TD*%
D25*
%TO.P,R9,1*%
%TO.N,Net-(J13-Pad1)*%
X116073000Y-47630000D03*
%TO.P,R9,2*%
%TO.N,SPI0_SCK__BMI088_SCLK*%
X117093000Y-47630000D03*
%TD*%
D45*
%TO.P,J5,1,VBUS*%
%TO.N,VBUS*%
X136594500Y-49225500D03*
%TO.P,J5,2,D-*%
%TO.N,USB_D-*%
X135944500Y-49225500D03*
%TO.P,J5,3,D+*%
%TO.N,USB_D+*%
X135294500Y-49225500D03*
%TO.P,J5,4,ID*%
%TO.N,unconnected-(J5-Pad4)*%
X134644500Y-49225500D03*
%TO.P,J5,5,GND*%
%TO.N,GND*%
X133994500Y-49225500D03*
D46*
%TO.P,J5,6,Shield*%
X132874500Y-48855500D03*
D47*
%TO.P,J5,7*%
%TO.N,N/C*%
X131694500Y-46185500D03*
%TO.P,J5,8*%
X138894500Y-46185500D03*
D46*
%TO.P,J5,9*%
X137714500Y-48855500D03*
%TD*%
D25*
%TO.P,R2,1*%
%TO.N,/QSPI_SS*%
X121791000Y-48400000D03*
%TO.P,R2,2*%
%TO.N,+3.3V*%
X122811000Y-48400000D03*
%TD*%
D48*
%TO.P,U1,1,~{CS}*%
%TO.N,/QSPI_SS*%
X122130000Y-50410000D03*
%TO.P,U1,2,DO*%
%TO.N,/QSPI_SD1*%
X122130000Y-51680000D03*
%TO.P,U1,3,IO2*%
%TO.N,/QSPI_SD2*%
X122130000Y-52950000D03*
%TO.P,U1,4,GND*%
%TO.N,GND*%
X122130000Y-54220000D03*
%TO.P,U1,5,DI*%
%TO.N,/QSPI_SD0*%
X129330000Y-54220000D03*
%TO.P,U1,6,CLK*%
%TO.N,/QSPI_SCLK*%
X129330000Y-52950000D03*
%TO.P,U1,7,IO3*%
%TO.N,/QSPI_SD3*%
X129330000Y-51680000D03*
%TO.P,U1,8,VCC*%
%TO.N,+3.3V*%
X129330000Y-50410000D03*
%TD*%
D18*
%TO.P,C28,2*%
%TO.N,GND*%
X137394000Y-102300000D03*
%TO.P,C28,1*%
%TO.N,5v_Servo_CD*%
X135494000Y-102300000D03*
%TD*%
D31*
%TO.P,J21,3,Pin_3*%
%TO.N,GND*%
X112314000Y-110628000D03*
%TO.P,J21,2,Pin_2*%
%TO.N,5v_Servo_AB*%
X112314000Y-108088000D03*
D30*
%TO.P,J21,1,Pin_1*%
%TO.N,PWM_0_A__Servo_A*%
X112314000Y-105548000D03*
%TD*%
%TO.P,J9,1,Pin_1*%
%TO.N,GND*%
X142800000Y-80300000D03*
D31*
%TO.P,J9,2,Pin_2*%
%TO.N,Run*%
X142800000Y-77760000D03*
%TD*%
D30*
%TO.P,J8,1,Pin_1*%
%TO.N,Net-(C11-Pad1)*%
X149733000Y-58293000D03*
D31*
%TO.P,J8,2,Pin_2*%
%TO.N,+5V*%
X147193000Y-58293000D03*
%TO.P,J8,3,Pin_3*%
%TO.N,VBUS*%
X144653000Y-58293000D03*
%TD*%
D10*
%TO.P,R3,1*%
%TO.N,Net-(C3-Pad1)*%
X133362000Y-68535000D03*
%TO.P,R3,2*%
%TO.N,XOUT*%
X133362000Y-67515000D03*
%TD*%
D21*
%TO.P,R21,1*%
%TO.N,+3.3V*%
X124081000Y-77991000D03*
%TO.P,R21,2*%
%TO.N,Net-(C23-Pad1)*%
X123061000Y-77991000D03*
%TD*%
D25*
%TO.P,R12,1*%
%TO.N,Net-(J13-Pad3)*%
X116071000Y-50170000D03*
%TO.P,R12,2*%
%TO.N,SPI0_TX__BMI088_MOSI*%
X117091000Y-50170000D03*
%TD*%
D10*
%TO.P,R36,1*%
%TO.N,Net-(J22-Pad7)*%
X136400000Y-77450000D03*
%TO.P,R36,2*%
%TO.N,+3.3V*%
X136400000Y-76430000D03*
%TD*%
%TO.P,R34,1*%
%TO.N,Net-(J22-Pad1)*%
X128741000Y-77472000D03*
%TO.P,R34,2*%
%TO.N,PWM_6_A__Reaction_Control_Wheel_In_A*%
X128741000Y-76452000D03*
%TD*%
D25*
%TO.P,R20,1*%
%TO.N,Net-(J13-Pad17)*%
X116071000Y-67950000D03*
%TO.P,R20,2*%
%TO.N,SPI0_CSn__BMI088_CS_GYRO*%
X117091000Y-67950000D03*
%TD*%
D30*
%TO.P,J14,1,Pin_1*%
%TO.N,+3.3V*%
X124846000Y-77991000D03*
D31*
%TO.P,J14,2,Pin_2*%
%TO.N,Net-(C23-Pad1)*%
X122306000Y-77991000D03*
%TO.P,J14,3,Pin_3*%
%TO.N,+3.3V*%
X124846000Y-75451000D03*
%TO.P,J14,4,Pin_4*%
%TO.N,Net-(C22-Pad1)*%
X122306000Y-75451000D03*
%TO.P,J14,5,Pin_5*%
%TO.N,SPI1_TX__BMP280_MOSI*%
X124846000Y-72911000D03*
%TO.P,J14,6,Pin_6*%
%TO.N,Net-(J14-Pad6)*%
X122306000Y-72911000D03*
%TO.P,J14,7,Pin_7*%
%TO.N,SPI1_SCK__BMP280_SCLK*%
X124846000Y-70371000D03*
%TO.P,J14,8,Pin_8*%
%TO.N,Net-(J14-Pad8)*%
X122306000Y-70371000D03*
%TO.P,J14,9,Pin_9*%
%TO.N,SPI1_CSn__BMP280_CSn*%
X124846000Y-67831000D03*
%TO.P,J14,10,Pin_10*%
%TO.N,Net-(J14-Pad10)*%
X122306000Y-67831000D03*
%TO.P,J14,11,Pin_11*%
%TO.N,SPI1_RX__BMP280_MISO*%
X124846000Y-65291000D03*
%TO.P,J14,12,Pin_12*%
%TO.N,Net-(J14-Pad12)*%
X122306000Y-65291000D03*
%TD*%
D49*
%TO.P,U12,1,VM*%
%TO.N,Net-(C37-Pad1)*%
X134075000Y-84175000D03*
%TO.P,U12,2,OUT1*%
%TO.N,Net-(J23-Pad2)*%
X134575000Y-84175000D03*
%TO.P,U12,3,OUT2*%
%TO.N,Net-(J23-Pad1)*%
X135075000Y-84175000D03*
%TO.P,U12,4,GND*%
%TO.N,GND*%
X135575000Y-84175000D03*
%TO.P,U12,5,IN2*%
%TO.N,Net-(J22-Pad1)*%
X135575000Y-82275000D03*
%TO.P,U12,6,IN1*%
%TO.N,Net-(J22-Pad3)*%
X135075000Y-82275000D03*
%TO.P,U12,7,~{SLEEP}*%
%TO.N,Net-(J22-Pad7)*%
X134575000Y-82275000D03*
%TO.P,U12,8,VCC*%
%TO.N,Net-(C40-Pad1)*%
X134075000Y-82275000D03*
D50*
%TO.P,U12,9,GND*%
%TO.N,GND*%
X134825000Y-83225000D03*
%TD*%
D10*
%TO.P,R37,1*%
%TO.N,Net-(C40-Pad1)*%
X133853000Y-77444000D03*
%TO.P,R37,2*%
%TO.N,+3.3V*%
X133853000Y-76424000D03*
%TD*%
D28*
%TO.P,C14,1*%
%TO.N,+3.3V*%
X138966000Y-57400000D03*
%TO.P,C14,2*%
%TO.N,GND*%
X139926000Y-57400000D03*
%TD*%
D27*
%TO.P,J23,1,Pin_1*%
%TO.N,Net-(J23-Pad1)*%
X113500000Y-89500000D03*
%TO.P,J23,2,Pin_2*%
%TO.N,Net-(J23-Pad2)*%
X113500000Y-84500000D03*
%TD*%
D21*
%TO.P,R24,1*%
%TO.N,SPI1_SCK__BMP280_SCLK*%
X124081000Y-70371000D03*
%TO.P,R24,2*%
%TO.N,Net-(J14-Pad8)*%
X123061000Y-70371000D03*
%TD*%
D36*
%TO.P,D6,1,K*%
%TO.N,GND*%
X153035000Y-51968500D03*
%TO.P,D6,2,A*%
%TO.N,Net-(D6-Pad2)*%
X153035000Y-50393500D03*
%TD*%
D35*
%TO.P,C18,1*%
%TO.N,+3.3V*%
X134112000Y-55484000D03*
%TO.P,C18,2*%
%TO.N,GND*%
X134112000Y-54524000D03*
%TD*%
D13*
%TO.P,U8,3,VI*%
%TO.N,Protected_VBATT+*%
X133128000Y-104643000D03*
%TO.P,U8,2,VO*%
%TO.N,5v_Servo_CD*%
X135428000Y-104643000D03*
D14*
X135428000Y-110943000D03*
D13*
%TO.P,U8,1,GND*%
%TO.N,GND*%
X137728000Y-104643000D03*
%TD*%
D51*
%TO.P,R43,1*%
%TO.N,+BATT*%
X148272000Y-61976000D03*
%TO.P,R43,2*%
%TO.N,ADC_3__Battery_Read*%
X146622000Y-61976000D03*
%TD*%
D31*
%TO.P,J16,3,Pin_3*%
%TO.N,+5V*%
X140600000Y-84045000D03*
%TO.P,J16,2,Pin_2*%
%TO.N,MOTOR_POWER*%
X140600000Y-86585000D03*
D30*
%TO.P,J16,1,Pin_1*%
%TO.N,Protected_VBATT+*%
X140600000Y-89125000D03*
%TD*%
D21*
%TO.P,R1,1*%
%TO.N,Net-(J2-Pad2)*%
X123825000Y-46749000D03*
%TO.P,R1,2*%
%TO.N,/QSPI_SS*%
X122805000Y-46749000D03*
%TD*%
D24*
%TO.P,C15,1*%
%TO.N,+3.3V*%
X129258000Y-57925000D03*
%TO.P,C15,2*%
%TO.N,GND*%
X128298000Y-57925000D03*
%TD*%
D34*
%TO.P,C22,1*%
%TO.N,Net-(C22-Pad1)*%
X119761000Y-73574000D03*
%TO.P,C22,2*%
%TO.N,GND*%
X119761000Y-74534000D03*
%TD*%
D52*
%TO.P,R5,1*%
%TO.N,USB_D-*%
X136418500Y-51580000D03*
%TO.P,R5,2*%
%TO.N,/D-*%
X136418500Y-53230000D03*
%TD*%
D53*
%TO.P,U6,8,VDD*%
%TO.N,Net-(C23-Pad1)*%
X118024000Y-72314000D03*
%TO.P,U6,7,GND*%
%TO.N,GND*%
X118674000Y-72314000D03*
%TO.P,U6,6,VDDIO*%
%TO.N,Net-(C22-Pad1)*%
X119324000Y-72314000D03*
%TO.P,U6,5,SDO*%
%TO.N,Net-(J14-Pad12)*%
X119974000Y-72314000D03*
%TO.P,U6,4,SCK*%
%TO.N,Net-(J14-Pad8)*%
X119974000Y-70714000D03*
%TO.P,U6,3,SDI*%
%TO.N,Net-(J14-Pad6)*%
X119324000Y-70714000D03*
%TO.P,U6,2,CSB*%
%TO.N,Net-(J14-Pad10)*%
X118674000Y-70714000D03*
%TO.P,U6,1,GND*%
%TO.N,GND*%
X118024000Y-70714000D03*
%TD*%
D54*
%TO.P,D3,1,K*%
%TO.N,Net-(D3-Pad1)*%
X125612500Y-93000000D03*
%TO.P,D3,2,A*%
%TO.N,Net-(D3-Pad2)*%
X127187500Y-93000000D03*
%TD*%
D30*
%TO.P,J6,1,Pin_1*%
%TO.N,+5V*%
X119500000Y-97800000D03*
%TD*%
D32*
%TO.P,R54,2*%
%TO.N,ADC_2__Pyro_C_Continuity_Check*%
X137361000Y-115853500D03*
%TO.P,R54,1*%
%TO.N,Net-(J28-Pad2)*%
X135711000Y-115853500D03*
%TD*%
D21*
%TO.P,R8,1*%
%TO.N,Run*%
X143210000Y-75000000D03*
%TO.P,R8,2*%
%TO.N,+3.3V*%
X142190000Y-75000000D03*
%TD*%
D13*
%TO.P,U4,1,GND*%
%TO.N,GND*%
X157748000Y-54453000D03*
D14*
%TO.P,U4,2,VO*%
%TO.N,Net-(C11-Pad1)*%
X155448000Y-60753000D03*
D13*
X155448000Y-54453000D03*
%TO.P,U4,3,VI*%
%TO.N,Protected_VBATT+*%
X153148000Y-54453000D03*
%TD*%
D31*
%TO.P,J20,3,Pin_3*%
%TO.N,GND*%
X123490000Y-110628000D03*
%TO.P,J20,2,Pin_2*%
%TO.N,5v_Servo_AB*%
X123490000Y-108088000D03*
D30*
%TO.P,J20,1,Pin_1*%
%TO.N,PWM_1_A__Servo_B*%
X123490000Y-105548000D03*
%TD*%
%TO.P,J4,1,Pin_1*%
%TO.N,Protected_VBATT+*%
X113600000Y-97800000D03*
%TD*%
%TO.P,J1,1,Pin_1*%
%TO.N,Protected_VBATT+*%
X149733000Y-54356000D03*
D31*
%TO.P,J1,2,Pin_2*%
%TO.N,Net-(C2-Pad2)*%
X147193000Y-54356000D03*
%TO.P,J1,3,Pin_3*%
%TO.N,Net-(D1-Pad1)*%
X144653000Y-54356000D03*
%TD*%
D55*
%TO.P,X1,1,OSC1*%
%TO.N,XIN*%
X131362000Y-71755000D03*
%TO.P,X1,2,GND*%
%TO.N,GND*%
X133562000Y-71755000D03*
%TO.P,X1,3,OSC2*%
%TO.N,Net-(C3-Pad1)*%
X133562000Y-69995000D03*
%TO.P,X1,4,GND*%
%TO.N,GND*%
X131362000Y-69995000D03*
%TD*%
D25*
%TO.P,R18,1*%
%TO.N,Net-(J13-Pad13)*%
X116071000Y-62870000D03*
%TO.P,R18,2*%
%TO.N,SPI0_RX__BMI088_MISO*%
X117091000Y-62870000D03*
%TD*%
%TO.P,R11,1*%
%TO.N,Net-(D3-Pad2)*%
X125890000Y-91700000D03*
%TO.P,R11,2*%
%TO.N,+5V*%
X126910000Y-91700000D03*
%TD*%
D27*
%TO.P,J12,1,Pin_1*%
%TO.N,+BATT*%
X155575000Y-66969000D03*
%TO.P,J12,2,Pin_2*%
%TO.N,GND*%
X155575000Y-71969000D03*
%TD*%
D30*
%TO.P,J10,1,Pin_1*%
%TO.N,GND*%
X113600000Y-94000000D03*
%TD*%
D24*
%TO.P,C40,1*%
%TO.N,Net-(C40-Pad1)*%
X133105000Y-82225000D03*
%TO.P,C40,2*%
%TO.N,GND*%
X132145000Y-82225000D03*
%TD*%
D25*
%TO.P,R14,1*%
%TO.N,Net-(C20-Pad1)*%
X116071000Y-55250000D03*
%TO.P,R14,2*%
%TO.N,+3.3V*%
X117091000Y-55250000D03*
%TD*%
D56*
%TO.P,C37,1*%
%TO.N,Net-(C37-Pad1)*%
X132475000Y-86625000D03*
%TO.P,C37,2*%
%TO.N,GND*%
X130925000Y-86625000D03*
%TD*%
D29*
%TO.P,D2,1,K*%
%TO.N,Protected_VBATT+*%
X152239000Y-63119000D03*
%TO.P,D2,2,A*%
%TO.N,+BATT*%
X154339000Y-63119000D03*
%TD*%
D57*
%TO.P,BZ1,1,-*%
%TO.N,Buzzer*%
X113700000Y-75200000D03*
%TO.P,BZ1,2,+*%
%TO.N,GND*%
X113700000Y-79200000D03*
%TD*%
D23*
%TO.P,R10,1*%
%TO.N,User_controlled_LED_B*%
X123900000Y-94580000D03*
%TO.P,R10,2*%
%TO.N,Net-(Q3-Pad1)*%
X123900000Y-95600000D03*
%TD*%
D24*
%TO.P,C39,1*%
%TO.N,Net-(C37-Pad1)*%
X133105000Y-83225000D03*
%TO.P,C39,2*%
%TO.N,GND*%
X132145000Y-83225000D03*
%TD*%
D10*
%TO.P,R44,2*%
%TO.N,Pyro_Control_A*%
X151040000Y-113486000D03*
%TO.P,R44,1*%
%TO.N,GND*%
X151040000Y-114506000D03*
%TD*%
D34*
%TO.P,C13,1*%
%TO.N,+3.3V*%
X134452000Y-67535000D03*
%TO.P,C13,2*%
%TO.N,GND*%
X134452000Y-68495000D03*
%TD*%
D22*
%TO.P,Q3,1,G*%
%TO.N,Net-(Q3-Pad1)*%
X125350000Y-96700000D03*
%TO.P,Q3,2,S*%
%TO.N,GND*%
X127250000Y-96700000D03*
%TO.P,Q3,3,D*%
%TO.N,Net-(D3-Pad1)*%
X126300000Y-94825000D03*
%TD*%
D35*
%TO.P,C8,1*%
%TO.N,GND*%
X135452000Y-68495000D03*
%TO.P,C8,2*%
%TO.N,+1V1*%
X135452000Y-67535000D03*
%TD*%
%TO.P,C7,1*%
%TO.N,+1V1*%
X137922000Y-56085000D03*
%TO.P,C7,2*%
%TO.N,GND*%
X137922000Y-55125000D03*
%TD*%
D25*
%TO.P,R7,1*%
%TO.N,+5V*%
X147445000Y-60706000D03*
%TO.P,R7,2*%
%TO.N,Net-(D4-Pad2)*%
X148465000Y-60706000D03*
%TD*%
D58*
%TO.N,GND*%
X146500000Y-112300000D03*
%TO.N,*%
X138300000Y-50100000D03*
X133600000Y-45800000D03*
X137200000Y-46100000D03*
%TO.N,GND*%
X145900000Y-113800000D03*
X130500000Y-113800000D03*
X114700000Y-113900000D03*
X136870500Y-95958411D03*
X114700000Y-114800000D03*
X145900000Y-114900000D03*
X130400000Y-114800000D03*
%TO.N,Protected_VBATT+*%
X142500000Y-89000000D03*
X143400000Y-90600000D03*
X143400000Y-95900000D03*
X145275500Y-98200000D03*
%TO.N,PWM_4_A__Servo_E*%
X149041589Y-100541589D03*
X147308411Y-98808411D03*
%TO.N,ADC_1__Pyro_B_Continuity_Check*%
X141900000Y-114000000D03*
X141300000Y-112500000D03*
%TO.N,ADC_0__Pyro_A_Continuity_Check*%
X151500000Y-86000000D03*
X149150000Y-83999500D03*
%TO.N,Pyro_Control_A*%
X150550497Y-86000000D03*
X144924500Y-84500000D03*
%TO.N,+3.3V*%
X124683325Y-82116675D03*
X121295911Y-85504089D03*
%TO.N,Protected_VBATT+*%
X126700000Y-101200000D03*
X129200000Y-101200000D03*
X115500000Y-101200000D03*
X115000000Y-99700000D03*
%TO.N,GND*%
X122459000Y-114251500D03*
X122459000Y-115277000D03*
X115459000Y-115451500D03*
X138436000Y-114186500D03*
X138536000Y-115154000D03*
X131236000Y-115386500D03*
X152044000Y-113500000D03*
X152044000Y-114872000D03*
X146644000Y-115572000D03*
X112200000Y-102400000D03*
X112300000Y-112800000D03*
X121600000Y-111600000D03*
X121500000Y-102600000D03*
X120200000Y-106900000D03*
X127800000Y-110500000D03*
X139200000Y-111300000D03*
X130100000Y-102600000D03*
X139000000Y-102500000D03*
X137800000Y-106500000D03*
%TO.N,User_controlled_LED_B*%
X122995911Y-87204089D03*
X128795457Y-85804543D03*
%TO.N,GND*%
X128300000Y-96800000D03*
X141600000Y-95500000D03*
%TO.N,Protected_VBATT+*%
X142700000Y-83800000D03*
X151600000Y-82600000D03*
%TO.N,+5V*%
X143800000Y-82400000D03*
X149700000Y-81800000D03*
%TO.N,PWM_3_A__Servo_D*%
X144200000Y-63900000D03*
X142700000Y-64000000D03*
%TO.N,PWM_2_B__Servo_C*%
X140100000Y-64500000D03*
X139624500Y-66200000D03*
%TO.N,GND*%
X141100000Y-80300000D03*
X139000000Y-70600000D03*
%TO.N,Net-(J23-Pad2)*%
X131086308Y-87775500D03*
X121955378Y-88444622D03*
%TO.N,Net-(J23-Pad1)*%
X133553353Y-87753353D03*
X123005378Y-89494622D03*
%TO.N,GND*%
X133387626Y-97322475D03*
X132394622Y-96405378D03*
X135500000Y-91200000D03*
X111800000Y-79200000D03*
%TO.N,+3.3V*%
X132820589Y-74279411D03*
X126900000Y-74500000D03*
%TO.N,Buzzer*%
X114400000Y-76300000D03*
X118800000Y-75821500D03*
%TO.N,Net-(C37-Pad1)*%
X133875500Y-85600000D03*
X136200000Y-85800000D03*
%TO.N,Net-(J22-Pad3)*%
X133450500Y-80775500D03*
X135228601Y-80728601D03*
%TO.N,Net-(J22-Pad1)*%
X132698588Y-81355312D03*
X135900000Y-81400000D03*
%TO.N,+3.3V*%
X119761000Y-55385000D03*
X120777000Y-53480000D03*
X121031000Y-49289000D03*
X127127000Y-63386000D03*
X122555000Y-49289000D03*
X129921000Y-66307000D03*
%TO.N,+1V1*%
X133205726Y-55566969D03*
X135166067Y-59505498D03*
X134705150Y-63704502D03*
X135001353Y-66687647D03*
%TO.N,Net-(C11-Pad1)*%
X154813000Y-57912000D03*
X152781000Y-57912000D03*
%TO.N,VBUS*%
X140716000Y-53594000D03*
X138430000Y-52959000D03*
%TO.N,+BATT*%
X150589752Y-63641473D03*
X152344332Y-64144332D03*
%TO.N,SPI0_RX__BMI088_MISO*%
X122555000Y-58433000D03*
X127127000Y-57925000D03*
%TO.N,SPI0_CSn__BMI088_CS_ACCEL*%
X122555000Y-57483497D03*
X125552662Y-57203486D03*
%TO.N,PWM_6_A__Reaction_Control_Wheel_In_A*%
X126937500Y-72446622D03*
X127889000Y-73279000D03*
%TO.N,/QSPI_SS*%
X128651000Y-55249660D03*
X128651000Y-57025500D03*
%TO.N,/QSPI_SD1*%
X126492000Y-55249660D03*
X126492000Y-56528000D03*
%TO.N,GND*%
X143002000Y-62611000D03*
X136425000Y-84225000D03*
X137902000Y-54295000D03*
X135255000Y-62751000D03*
X135509000Y-72657000D03*
X140843000Y-56515000D03*
X134122000Y-61605000D03*
X117983000Y-74562000D03*
X140843000Y-57417000D03*
X140716000Y-48514000D03*
X117983000Y-69852500D03*
X132969000Y-61608000D03*
X151892000Y-51968500D03*
X132969000Y-60465000D03*
X132842000Y-52464000D03*
X158496000Y-50292000D03*
X131225000Y-82225000D03*
X135255000Y-61608000D03*
X131572000Y-68339000D03*
X132969000Y-62751000D03*
X125095000Y-62624000D03*
X131826000Y-52197000D03*
X149352000Y-61722000D03*
X133477000Y-51054000D03*
X136271000Y-68466000D03*
X129540000Y-69228000D03*
X158496000Y-61468000D03*
X131225000Y-83225000D03*
X123190000Y-54877000D03*
X158115000Y-56079000D03*
X134112000Y-62751000D03*
X127508000Y-57036000D03*
X135255000Y-60465000D03*
X134493000Y-47625000D03*
X136500000Y-69500000D03*
X129700000Y-86425000D03*
X130225000Y-83425000D03*
X153543000Y-45466000D03*
X138938000Y-54242000D03*
X119034000Y-74534000D03*
X142621000Y-45847000D03*
X134112000Y-60465000D03*
%TD*%
D59*
%TO.N,GND*%
X141408000Y-57080000D02*
X140843000Y-56515000D01*
X141800000Y-57080000D02*
X141408000Y-57080000D01*
X153182000Y-114872000D02*
X152044000Y-114872000D01*
X153300000Y-114990000D02*
X153182000Y-114872000D01*
X138900000Y-114790000D02*
X138536000Y-115154000D01*
X139836000Y-114790000D02*
X138900000Y-114790000D01*
X122846000Y-114890000D02*
X122459000Y-115277000D01*
X123600000Y-114890000D02*
X122846000Y-114890000D01*
%TO.N,+5V*%
X148560000Y-107940000D02*
X146200000Y-107940000D01*
X149900000Y-106600000D02*
X148560000Y-107940000D01*
X149900000Y-101200000D02*
X149900000Y-106600000D01*
X149850497Y-101150497D02*
X149900000Y-101200000D01*
X149850497Y-85600967D02*
X149850497Y-101150497D01*
X150575000Y-84876464D02*
X149850497Y-85600967D01*
X150575000Y-82675000D02*
X150575000Y-84876464D01*
X149700000Y-81800000D02*
X150575000Y-82675000D01*
D60*
%TO.N,PWM_4_A__Servo_E*%
X146500000Y-105100000D02*
X146200000Y-105400000D01*
X146500000Y-103083178D02*
X146500000Y-105100000D01*
X149041589Y-100541589D02*
X146500000Y-103083178D01*
%TO.N,GND*%
X146500000Y-110480000D02*
X146500000Y-112300000D01*
%TO.N,Pyro_Control_A*%
X150275000Y-86275497D02*
X150275000Y-113211000D01*
X150275000Y-113211000D02*
X150000000Y-113486000D01*
X150550497Y-86000000D02*
X150275000Y-86275497D01*
%TO.N,ADC_0__Pyro_A_Continuity_Check*%
X154350000Y-112250000D02*
X154350000Y-115091000D01*
X154350000Y-115091000D02*
X154088000Y-115353000D01*
X150575000Y-108475000D02*
X154350000Y-112250000D01*
D61*
%TO.N,Armed_Batt+_with_big_pyro_resistor*%
X158000000Y-111400000D02*
X156450000Y-109850000D01*
X158300000Y-111400000D02*
X158300000Y-110395000D01*
X158300000Y-116300000D02*
X158300000Y-111400000D01*
X158300000Y-111400000D02*
X158000000Y-111400000D01*
X158300000Y-110395000D02*
X157952500Y-110047500D01*
X153500000Y-121100000D02*
X158300000Y-116300000D01*
X151200000Y-123400000D02*
X140560500Y-123400000D01*
X154000000Y-91900000D02*
X158500000Y-91900000D01*
X153550000Y-91450000D02*
X154000000Y-91900000D01*
X153550000Y-91450000D02*
X154235000Y-90765000D01*
X151800000Y-93200000D02*
X153550000Y-91450000D01*
%TO.N,Net-(J15-Pad2)*%
X156601000Y-83299000D02*
X155401000Y-83299000D01*
X155401000Y-83299000D02*
X154559000Y-83299000D01*
X155500000Y-84200000D02*
X155100000Y-84600000D01*
X158700000Y-84200000D02*
X155500000Y-84200000D01*
X158685000Y-85685000D02*
X158700000Y-85700000D01*
X157075000Y-85685000D02*
X158685000Y-85685000D01*
X158700000Y-84200000D02*
X158700000Y-85700000D01*
X153699000Y-85099000D02*
X153699000Y-83299000D01*
X154315000Y-85685000D02*
X154300000Y-85700000D01*
X154300000Y-85700000D02*
X153699000Y-85099000D01*
X157075000Y-85685000D02*
X154315000Y-85685000D01*
%TO.N,Armed_Batt+_with_big_pyro_resistor*%
X158565000Y-90765000D02*
X158600000Y-90800000D01*
X157075000Y-90765000D02*
X158565000Y-90765000D01*
X156450000Y-109850000D02*
X154350000Y-109850000D01*
X156450000Y-109850000D02*
X151800000Y-105200000D01*
X151800000Y-105200000D02*
X151800000Y-93200000D01*
X154235000Y-90765000D02*
X157075000Y-90765000D01*
X158100000Y-109850000D02*
X156450000Y-109850000D01*
%TO.N,Net-(J15-Pad2)*%
X158100000Y-82933000D02*
X157734000Y-83299000D01*
X158100000Y-80500000D02*
X158100000Y-82933000D01*
X158100000Y-80500000D02*
X158100000Y-82250000D01*
X158300000Y-80300000D02*
X158100000Y-80500000D01*
X158283000Y-80300000D02*
X158300000Y-80300000D01*
X157226000Y-79243000D02*
X158283000Y-80300000D01*
X157734000Y-82616000D02*
X158100000Y-82250000D01*
X157734000Y-83299000D02*
X157734000Y-82616000D01*
X153699000Y-83299000D02*
X156601000Y-83299000D01*
X153500000Y-83100000D02*
X153699000Y-83299000D01*
X153500000Y-82969000D02*
X153500000Y-83100000D01*
X155484500Y-80984500D02*
X153500000Y-82969000D01*
X155484500Y-80984500D02*
X157226000Y-79243000D01*
X154300000Y-82169000D02*
X155484500Y-80984500D01*
X154300000Y-82300000D02*
X154300000Y-82169000D01*
%TO.N,Armed_Batt+_with_big_pyro_resistor*%
X154350000Y-109850000D02*
X154300000Y-109900000D01*
X158100000Y-109900000D02*
X157952500Y-110047500D01*
X158100000Y-109850000D02*
X158100000Y-109900000D01*
%TO.N,Net-(R48-Pad2)*%
X154300000Y-97200000D02*
X154300000Y-95000000D01*
%TO.N,Net-(R46-Pad2)*%
X158100000Y-97150000D02*
X158100000Y-94950000D01*
D60*
%TO.N,ADC_0__Pyro_A_Continuity_Check*%
X150575000Y-86925000D02*
X150575000Y-108475000D01*
X154088000Y-115353000D02*
X153344000Y-116097000D01*
X151500000Y-86000000D02*
X150575000Y-86925000D01*
%TO.N,*%
X137714500Y-49514500D02*
X138300000Y-50100000D01*
X137714500Y-48855500D02*
X137714500Y-49514500D01*
X133214500Y-46185500D02*
X133600000Y-45800000D01*
X131694500Y-46185500D02*
X133214500Y-46185500D01*
X137285500Y-46185500D02*
X137200000Y-46100000D01*
X138894500Y-46185500D02*
X137285500Y-46185500D01*
%TO.N,GND*%
X135575000Y-84175000D02*
X135575000Y-83975000D01*
X135575000Y-83975000D02*
X134825000Y-83225000D01*
D61*
%TO.N,Armed_Batt+_with_big_pyro_resistor*%
X135751500Y-123400000D02*
X135100000Y-123400000D01*
X138156000Y-120995500D02*
X135751500Y-123400000D01*
X138400000Y-123400000D02*
X135100000Y-123400000D01*
X135100000Y-123400000D02*
X124315500Y-123400000D01*
X138156000Y-123156000D02*
X138156000Y-120995500D01*
X138400000Y-123400000D02*
X138156000Y-123156000D01*
X140560500Y-123400000D02*
X138400000Y-123400000D01*
D60*
%TO.N,GND*%
X146174500Y-114074500D02*
X145900000Y-113800000D01*
X146788000Y-114074500D02*
X146174500Y-114074500D01*
X130600000Y-113900000D02*
X130500000Y-113800000D01*
X131400000Y-113900000D02*
X130600000Y-113900000D01*
X115600000Y-113900000D02*
X114700000Y-113900000D01*
X136024000Y-96804911D02*
X136870500Y-95958411D01*
X136024000Y-96894500D02*
X136024000Y-96804911D01*
%TO.N,Net-(J13-Pad3)*%
X110744000Y-54737000D02*
X115311000Y-50170000D01*
X114725000Y-77225000D02*
X112625000Y-77225000D01*
X132500000Y-92200000D02*
X129700000Y-92200000D01*
X129700000Y-92200000D02*
X114725000Y-77225000D01*
X133000000Y-92700000D02*
X132500000Y-92200000D01*
X112625000Y-77225000D02*
X110744000Y-75344000D01*
X133000000Y-93276500D02*
X133000000Y-92700000D01*
X110744000Y-75344000D02*
X110744000Y-54737000D01*
%TO.N,Net-(J13-Pad1)*%
X131151500Y-94476500D02*
X132590000Y-94476500D01*
X110109000Y-52845000D02*
X110109000Y-76009000D01*
X110109000Y-76009000D02*
X111625000Y-77525000D01*
X114200000Y-77525000D02*
X131151500Y-94476500D01*
X115311000Y-47643000D02*
X110109000Y-52845000D01*
X111625000Y-77525000D02*
X114200000Y-77525000D01*
X115311000Y-47630000D02*
X115311000Y-47643000D01*
%TO.N,Net-(J13-Pad5)*%
X111379000Y-74579000D02*
X111379000Y-56642000D01*
X115425000Y-76925000D02*
X113725000Y-76925000D01*
X131900000Y-90800000D02*
X129300000Y-90800000D01*
X129300000Y-90800000D02*
X115425000Y-76925000D01*
X133500000Y-92400000D02*
X131900000Y-90800000D01*
X113725000Y-76925000D02*
X111379000Y-74579000D01*
X133500000Y-93276500D02*
X133500000Y-92400000D01*
X111379000Y-56642000D02*
X111626500Y-56394500D01*
D59*
%TO.N,+3.3V*%
X138811000Y-59005000D02*
X138505000Y-59005000D01*
X138916000Y-58900000D02*
X138811000Y-59005000D01*
X138966000Y-58900000D02*
X138916000Y-58900000D01*
D60*
X133908498Y-64329502D02*
X135327498Y-64329502D01*
D59*
X133500000Y-75311000D02*
X133858000Y-75669000D01*
X132820589Y-74279411D02*
X133179411Y-74279411D01*
X133179411Y-74279411D02*
X133500000Y-74600000D01*
X133500000Y-74600000D02*
X133500000Y-75311000D01*
D60*
%TO.N,GND*%
X133000000Y-96310756D02*
X133000000Y-95676500D01*
X132905378Y-96405378D02*
X133000000Y-96310756D01*
X132394622Y-96405378D02*
X132905378Y-96405378D01*
X119034000Y-74534000D02*
X119761000Y-74534000D01*
X135312000Y-69355000D02*
X134452000Y-68495000D01*
X136500000Y-69500000D02*
X136355000Y-69355000D01*
X136355000Y-69355000D02*
X135312000Y-69355000D01*
D59*
X152044000Y-113502000D02*
X151040000Y-114506000D01*
X152044000Y-113500000D02*
X152044000Y-113502000D01*
D60*
%TO.N,PWM_0_A__Servo_A*%
X144700000Y-71848528D02*
X144700000Y-71600000D01*
X145100000Y-72248528D02*
X144700000Y-71848528D01*
X145100000Y-82100000D02*
X145100000Y-72248528D01*
X144300000Y-82900000D02*
X145100000Y-82100000D01*
X144300000Y-96430330D02*
X144300000Y-82900000D01*
X141330330Y-99400000D02*
X144300000Y-96430330D01*
X114033884Y-101550000D02*
X116183884Y-99400000D01*
X116183884Y-99400000D02*
X141330330Y-99400000D01*
X111850000Y-101550000D02*
X114033884Y-101550000D01*
X111575000Y-104809000D02*
X111575000Y-101825000D01*
X111575000Y-101825000D02*
X111850000Y-101550000D01*
X112314000Y-105548000D02*
X111575000Y-104809000D01*
%TO.N,GND*%
X112300000Y-102500000D02*
X112200000Y-102400000D01*
X113650000Y-102500000D02*
X112300000Y-102500000D01*
X115600000Y-113900000D02*
X114700000Y-114800000D01*
X146725500Y-114074500D02*
X145900000Y-114900000D01*
X146788000Y-114074500D02*
X146725500Y-114074500D01*
X131300000Y-113900000D02*
X130400000Y-114800000D01*
X131400000Y-113900000D02*
X131300000Y-113900000D01*
D61*
%TO.N,Net-(J27-Pad2)*%
X116550000Y-117942500D02*
X116550000Y-117650000D01*
X116803000Y-118195500D02*
X116550000Y-117942500D01*
D62*
X116550000Y-115775000D02*
X116550000Y-117650000D01*
D61*
%TO.N,Net-(J28-Pad2)*%
X132336000Y-118286500D02*
X132336000Y-117764000D01*
D62*
X132336000Y-117764000D02*
X132336000Y-115789000D01*
D61*
%TO.N,Net-(J25-Pad2)*%
X147738000Y-119066000D02*
X147738000Y-117738000D01*
D62*
X147738000Y-117738000D02*
X147738000Y-115949500D01*
D61*
%TO.N,Net-(J27-Pad2)*%
X116803000Y-118195500D02*
X116803000Y-120887500D01*
D62*
%TO.N,Protected_VBATT+*%
X151200000Y-64158000D02*
X152239000Y-63119000D01*
X151600000Y-82600000D02*
X150800000Y-81800000D01*
X151200000Y-66500000D02*
X151200000Y-64158000D01*
X150800000Y-66900000D02*
X151200000Y-66500000D01*
X150800000Y-81800000D02*
X150800000Y-66900000D01*
D59*
%TO.N,+5V*%
X127096123Y-91700000D02*
X126910000Y-91700000D01*
X129700000Y-94303877D02*
X127096123Y-91700000D01*
X132750000Y-97750000D02*
X129700000Y-94700000D01*
X129700000Y-94700000D02*
X129700000Y-94303877D01*
D60*
%TO.N,ADC_2__Pyro_C_Continuity_Check*%
X141388500Y-115911500D02*
X139836000Y-115911500D01*
X144500000Y-104200000D02*
X144500000Y-112800000D01*
X149375000Y-99325000D02*
X144500000Y-104200000D01*
X149375000Y-85425000D02*
X149375000Y-99325000D01*
X150200000Y-84600000D02*
X149375000Y-85425000D01*
X150200000Y-83183884D02*
X150200000Y-84600000D01*
X149000000Y-81983884D02*
X150200000Y-83183884D01*
X149000000Y-65500000D02*
X149000000Y-81983884D01*
X145800000Y-62300000D02*
X149000000Y-65500000D01*
X145800000Y-61144000D02*
X145800000Y-62300000D01*
X143114736Y-60100000D02*
X144756000Y-60100000D01*
X144756000Y-60100000D02*
X145800000Y-61144000D01*
X144500000Y-112800000D02*
X141388500Y-115911500D01*
X142819736Y-59805000D02*
X143114736Y-60100000D01*
X137672000Y-59805000D02*
X142819736Y-59805000D01*
%TO.N,ADC_1__Pyro_B_Continuity_Check*%
X143900000Y-112000000D02*
X141900000Y-114000000D01*
X143900000Y-104000000D02*
X143900000Y-112000000D01*
X148400000Y-85800000D02*
X148400000Y-99500000D01*
X149775000Y-84425000D02*
X148400000Y-85800000D01*
X149775000Y-83183148D02*
X149775000Y-84425000D01*
X148700000Y-65624264D02*
X148700000Y-82108148D01*
X145500000Y-62424264D02*
X148700000Y-65624264D01*
X148700000Y-82108148D02*
X149775000Y-83183148D01*
X144631736Y-60400000D02*
X145500000Y-61268264D01*
X148400000Y-99500000D02*
X143900000Y-104000000D01*
X142990472Y-60400000D02*
X144631736Y-60400000D01*
X142795472Y-60205000D02*
X142990472Y-60400000D01*
X137672000Y-60205000D02*
X142795472Y-60205000D01*
X145500000Y-61268264D02*
X145500000Y-62424264D01*
%TO.N,ADC_0__Pyro_A_Continuity_Check*%
X142771208Y-60605000D02*
X137672000Y-60605000D01*
X142866208Y-60700000D02*
X142771208Y-60605000D01*
X144500000Y-60700000D02*
X142866208Y-60700000D01*
X145200000Y-62548528D02*
X145200000Y-61400000D01*
X145200000Y-61400000D02*
X144500000Y-60700000D01*
X148400000Y-65748528D02*
X145200000Y-62548528D01*
X149150000Y-83999500D02*
X148400000Y-83249500D01*
X148400000Y-83249500D02*
X148400000Y-65748528D01*
%TO.N,Pyro_Control_C*%
X141988500Y-113311500D02*
X137636000Y-113311500D01*
X143200000Y-103800000D02*
X143200000Y-112100000D01*
X148000000Y-65772792D02*
X148000000Y-99000000D01*
X143200000Y-112100000D02*
X141988500Y-113311500D01*
X144800000Y-62100000D02*
X144800000Y-62572792D01*
X143705000Y-61005000D02*
X144800000Y-62100000D01*
X140219000Y-61005000D02*
X143705000Y-61005000D01*
X144800000Y-62572792D02*
X148000000Y-65772792D01*
X148000000Y-99000000D02*
X143200000Y-103800000D01*
%TO.N,PWM_4_A__Servo_E*%
X138372000Y-61405000D02*
X137672000Y-61405000D01*
X138391000Y-61386000D02*
X138372000Y-61405000D01*
X143509412Y-61386000D02*
X138391000Y-61386000D01*
X144227000Y-62103588D02*
X143509412Y-61386000D01*
X144227000Y-62627000D02*
X144227000Y-62103588D01*
X145000000Y-63400000D02*
X144227000Y-62627000D01*
X147500000Y-66900000D02*
X145000000Y-64400000D01*
X147500000Y-85400000D02*
X147500000Y-66900000D01*
X146550000Y-86350000D02*
X147500000Y-85400000D01*
X145000000Y-64400000D02*
X145000000Y-63400000D01*
X146550000Y-98050000D02*
X146550000Y-86350000D01*
X147308411Y-98808411D02*
X146550000Y-98050000D01*
D59*
%TO.N,Protected_VBATT+*%
X145275500Y-98200000D02*
X145200000Y-98200000D01*
X145200000Y-98200000D02*
X142200000Y-101200000D01*
X142200000Y-101200000D02*
X133100000Y-101200000D01*
X142500000Y-88100000D02*
X142400000Y-88000000D01*
X142500000Y-89000000D02*
X142500000Y-88100000D01*
D62*
X142400000Y-88000000D02*
X141275000Y-89125000D01*
D59*
X143400000Y-95900000D02*
X143400000Y-90600000D01*
D62*
X142700000Y-87700000D02*
X142400000Y-88000000D01*
D60*
%TO.N,PWM_3_A__Servo_D*%
X141000000Y-103600000D02*
X141000000Y-105400000D01*
X145900000Y-98700000D02*
X141000000Y-103600000D01*
X145900000Y-86400000D02*
X145900000Y-98700000D01*
X147100000Y-85200000D02*
X145900000Y-86400000D01*
X145450000Y-65650000D02*
X147100000Y-67300000D01*
X147100000Y-67300000D02*
X147100000Y-85200000D01*
D59*
%TO.N,Protected_VBATT+*%
X133330000Y-101430000D02*
X133300000Y-101400000D01*
X133330000Y-102515000D02*
X133330000Y-101430000D01*
X133100000Y-101200000D02*
X133300000Y-101400000D01*
X132015000Y-101200000D02*
X133100000Y-101200000D01*
%TO.N,+5V*%
X142605000Y-90305000D02*
X142605000Y-90895000D01*
X142605000Y-90305000D02*
X142305000Y-90605000D01*
X143800000Y-89110000D02*
X142605000Y-90305000D01*
X142605000Y-90895000D02*
X142600000Y-90900000D01*
X133000000Y-98300000D02*
X132900000Y-98400000D01*
X132900000Y-98400000D02*
X132900000Y-97900000D01*
X132900000Y-98700000D02*
X132900000Y-98400000D01*
X133300000Y-98300000D02*
X133000000Y-98300000D01*
X132900000Y-97900000D02*
X132750000Y-97750000D01*
X133300000Y-98300000D02*
X132750000Y-97750000D01*
X132900000Y-98700000D02*
X133300000Y-98300000D01*
X124500000Y-98700000D02*
X132900000Y-98700000D01*
X133400000Y-98400000D02*
X133300000Y-98300000D01*
X123600000Y-97800000D02*
X124500000Y-98700000D01*
X119500000Y-97800000D02*
X123600000Y-97800000D01*
D60*
%TO.N,ADC_1__Pyro_B_Continuity_Check*%
X140900000Y-112500000D02*
X141300000Y-112500000D01*
X130100000Y-112500000D02*
X140900000Y-112500000D01*
X129900000Y-112700000D02*
X130100000Y-112500000D01*
X126623500Y-115976500D02*
X129900000Y-112700000D01*
X123659000Y-115976500D02*
X126623500Y-115976500D01*
%TO.N,GND*%
X127800000Y-110500000D02*
X129790000Y-110500000D01*
X129790000Y-110500000D02*
X129840000Y-110450000D01*
%TO.N,Pyro_Control_B*%
X139524264Y-68100000D02*
X139000000Y-67575736D01*
X141297056Y-68100000D02*
X139524264Y-68100000D01*
X144497056Y-69700000D02*
X142897056Y-69700000D01*
X146300000Y-71502944D02*
X144497056Y-69700000D01*
X145200000Y-85900000D02*
X146300000Y-84800000D01*
X142897056Y-69700000D02*
X141297056Y-68100000D01*
X145200000Y-96800000D02*
X145200000Y-85900000D01*
X141800000Y-100200000D02*
X145200000Y-96800000D01*
X139000000Y-67575736D02*
X139000000Y-64800000D01*
X128200000Y-100200000D02*
X141800000Y-100200000D01*
X146300000Y-84800000D02*
X146300000Y-71502944D01*
X127800000Y-100600000D02*
X128200000Y-100200000D01*
X124900000Y-112800000D02*
X126900000Y-110800000D01*
X126900000Y-110800000D02*
X126900000Y-103000000D01*
X121996780Y-113641500D02*
X122838280Y-112800000D01*
X126900000Y-103000000D02*
X127800000Y-102100000D01*
X121459000Y-113641500D02*
X121996780Y-113641500D01*
X122838280Y-112800000D02*
X124900000Y-112800000D01*
X127800000Y-102100000D02*
X127800000Y-100600000D01*
%TO.N,PWM_2_B__Servo_C*%
X129840000Y-104040000D02*
X129840000Y-105370000D01*
X128100000Y-102300000D02*
X129840000Y-104040000D01*
X128100000Y-101100000D02*
X128100000Y-102300000D01*
X128700000Y-100500000D02*
X128100000Y-101100000D01*
X142000000Y-100500000D02*
X128700000Y-100500000D01*
X145600000Y-96900000D02*
X142000000Y-100500000D01*
X145600000Y-86100000D02*
X145600000Y-96900000D01*
X146600000Y-85100000D02*
X145600000Y-86100000D01*
X144621320Y-69400000D02*
X146600000Y-71378680D01*
X141500000Y-67800000D02*
X143100000Y-69400000D01*
X139600000Y-67500000D02*
X139900000Y-67800000D01*
X139900000Y-67800000D02*
X141500000Y-67800000D01*
X143100000Y-69400000D02*
X144621320Y-69400000D01*
X146600000Y-71378680D02*
X146600000Y-85100000D01*
X139624500Y-67475500D02*
X139600000Y-67500000D01*
X139624500Y-66200000D02*
X139624500Y-67475500D01*
%TO.N,PWM_1_A__Servo_B*%
X138505000Y-64205000D02*
X137672000Y-64205000D01*
X138700000Y-64400000D02*
X138505000Y-64205000D01*
X138700000Y-67700000D02*
X138700000Y-64400000D01*
X139400000Y-68400000D02*
X138700000Y-67700000D01*
X142772792Y-70000000D02*
X141172792Y-68400000D01*
X144372792Y-70000000D02*
X142772792Y-70000000D01*
X145300000Y-70927208D02*
X144372792Y-70000000D01*
X145300000Y-71600000D02*
X145300000Y-70927208D01*
X145900000Y-72200000D02*
X145300000Y-71600000D01*
X141172792Y-68400000D02*
X139400000Y-68400000D01*
X145900000Y-84500000D02*
X145900000Y-72200000D01*
X144700000Y-85700000D02*
X145900000Y-84500000D01*
X144700000Y-96600000D02*
X144700000Y-85700000D01*
X127900000Y-99800000D02*
X141500000Y-99800000D01*
X141500000Y-99800000D02*
X144700000Y-96600000D01*
X124200000Y-103300000D02*
X125483884Y-103300000D01*
X125483884Y-103300000D02*
X127483884Y-101300000D01*
X123490000Y-104010000D02*
X124200000Y-103300000D01*
X127483884Y-101300000D02*
X127483884Y-100216116D01*
X127483884Y-100216116D02*
X127900000Y-99800000D01*
X123490000Y-105548000D02*
X123490000Y-104010000D01*
D61*
%TO.N,Armed_Batt+_with_big_pyro_resistor*%
X124315500Y-123400000D02*
X121803000Y-120887500D01*
X140560500Y-123400000D02*
X138156000Y-120995500D01*
X153500000Y-121100000D02*
X151200000Y-123400000D01*
D60*
%TO.N,GND*%
X122518000Y-111600000D02*
X123490000Y-110628000D01*
X121600000Y-111600000D02*
X122518000Y-111600000D01*
X140180000Y-111300000D02*
X141000000Y-110480000D01*
X139200000Y-111300000D02*
X140180000Y-111300000D01*
%TO.N,Pyro_Control_A*%
X144900000Y-84475500D02*
X144924500Y-84500000D01*
X144900000Y-83000000D02*
X144900000Y-84475500D01*
X145500000Y-82400000D02*
X144900000Y-83000000D01*
X145500000Y-81500000D02*
X145500000Y-82400000D01*
D59*
%TO.N,+3.3V*%
X124200000Y-89700000D02*
X124200000Y-90800000D01*
X121900000Y-87400000D02*
X124200000Y-89700000D01*
X124200000Y-90800000D02*
X120980000Y-94020000D01*
X121900000Y-86108178D02*
X121900000Y-87400000D01*
X121295911Y-85504089D02*
X121900000Y-86108178D01*
X120980000Y-94020000D02*
X119550000Y-94020000D01*
X124846000Y-81954000D02*
X124846000Y-77991000D01*
X124683325Y-82116675D02*
X124846000Y-81954000D01*
%TO.N,Net-(J23-Pad2)*%
X117300000Y-88300000D02*
X113500000Y-84500000D01*
X121955378Y-88444622D02*
X121810756Y-88300000D01*
X121810756Y-88300000D02*
X117300000Y-88300000D01*
%TO.N,Net-(J23-Pad1)*%
X123000000Y-89500000D02*
X113500000Y-89500000D01*
X123005378Y-89494622D02*
X123000000Y-89500000D01*
%TO.N,Protected_VBATT+*%
X115500000Y-101200000D02*
X126700000Y-101200000D01*
X129200000Y-101200000D02*
X132015000Y-101200000D01*
X113600000Y-98300000D02*
X115000000Y-99700000D01*
X113600000Y-97800000D02*
X113600000Y-98300000D01*
X115550000Y-101250000D02*
X115500000Y-101200000D01*
X115550000Y-102500000D02*
X115550000Y-101250000D01*
D61*
%TO.N,Net-(J25-Pad2)*%
X148500000Y-119828000D02*
X147738000Y-119066000D01*
X148500000Y-121100000D02*
X148500000Y-119828000D01*
D59*
%TO.N,ADC_0__Pyro_A_Continuity_Check*%
X153275000Y-116028000D02*
X153344000Y-116097000D01*
X151865000Y-116028000D02*
X153275000Y-116028000D01*
%TO.N,GND*%
X122049000Y-114661500D02*
X122459000Y-114251500D01*
X121459000Y-114661500D02*
X122049000Y-114661500D01*
%TO.N,ADC_1__Pyro_B_Continuity_Check*%
X121415000Y-115976500D02*
X121284000Y-116107500D01*
X123659000Y-115976500D02*
X121415000Y-115976500D01*
%TO.N,Pyro_Control_B*%
X119659000Y-113641500D02*
X121459000Y-113641500D01*
%TO.N,Net-(Q4-Pad1)*%
X117807500Y-113900000D02*
X117500000Y-113900000D01*
X118569000Y-114661500D02*
X117807500Y-113900000D01*
X119659000Y-114661500D02*
X118569000Y-114661500D01*
%TO.N,GND*%
X115600000Y-115310500D02*
X115459000Y-115451500D01*
X115600000Y-113900000D02*
X115600000Y-115310500D01*
D62*
%TO.N,Net-(J27-Pad2)*%
X119634000Y-116107500D02*
X118515000Y-116107500D01*
X118515000Y-116107500D02*
X118182500Y-115775000D01*
X116550000Y-115775000D02*
X118182500Y-115775000D01*
D59*
%TO.N,Net-(Q5-Pad1)*%
X133731500Y-114331500D02*
X133300000Y-113900000D01*
X135536000Y-114331500D02*
X133731500Y-114331500D01*
%TO.N,Pyro_Control_C*%
X137636000Y-113311500D02*
X135536000Y-113311500D01*
%TO.N,GND*%
X138291000Y-114331500D02*
X138436000Y-114186500D01*
X137636000Y-114331500D02*
X138291000Y-114331500D01*
%TO.N,ADC_2__Pyro_C_Continuity_Check*%
X139778000Y-115853500D02*
X139836000Y-115911500D01*
X137361000Y-115853500D02*
X139778000Y-115853500D01*
%TO.N,Net-(J28-Pad2)*%
X135632500Y-115775000D02*
X135711000Y-115853500D01*
D62*
X132350000Y-115775000D02*
X135632500Y-115775000D01*
D59*
X132336000Y-115789000D02*
X132350000Y-115775000D01*
D61*
X133156000Y-119106500D02*
X132336000Y-118286500D01*
X133156000Y-120995500D02*
X133156000Y-119106500D01*
D59*
%TO.N,GND*%
X131400000Y-115222500D02*
X131236000Y-115386500D01*
X131400000Y-113900000D02*
X131400000Y-115222500D01*
%TO.N,Net-(Q2-Pad1)*%
X149119500Y-114506000D02*
X148688000Y-114074500D01*
X150000000Y-114506000D02*
X149119500Y-114506000D01*
%TO.N,Pyro_Control_A*%
X151040000Y-113486000D02*
X150000000Y-113486000D01*
D62*
%TO.N,Net-(J25-Pad2)*%
X147738000Y-115949500D02*
X150136500Y-115949500D01*
D60*
X150136500Y-115949500D02*
X150215000Y-116028000D01*
%TO.N,GND*%
X146788000Y-115428000D02*
X146644000Y-115572000D01*
D62*
X146788000Y-114074500D02*
X146788000Y-115428000D01*
D59*
%TO.N,5v_Servo_AB*%
X115354000Y-111128000D02*
X112314000Y-108088000D01*
X117986000Y-111128000D02*
X115354000Y-111128000D01*
X120450000Y-111128000D02*
X123490000Y-108088000D01*
X117986000Y-111128000D02*
X120450000Y-111128000D01*
%TO.N,5v_Servo_CD*%
X132873000Y-110943000D02*
X129840000Y-107910000D01*
X135428000Y-110943000D02*
X132873000Y-110943000D01*
X137997000Y-110943000D02*
X141000000Y-107940000D01*
X135428000Y-110943000D02*
X137997000Y-110943000D01*
%TO.N,5v_Servo_AB*%
X118222000Y-104592000D02*
X117986000Y-104828000D01*
X118222000Y-102500000D02*
X118222000Y-104592000D01*
D60*
%TO.N,Protected_VBATT+*%
X115686000Y-102636000D02*
X115550000Y-102500000D01*
X115686000Y-104828000D02*
X115686000Y-102636000D01*
%TO.N,GND*%
X112314000Y-112786000D02*
X112300000Y-112800000D01*
X112314000Y-110628000D02*
X112314000Y-112786000D01*
X121400000Y-102500000D02*
X121500000Y-102600000D01*
X120122000Y-102500000D02*
X121400000Y-102500000D01*
X120286000Y-106814000D02*
X120200000Y-106900000D01*
X120286000Y-104828000D02*
X120286000Y-106814000D01*
D59*
%TO.N,5v_Servo_AB*%
X117986000Y-111128000D02*
X117986000Y-104828000D01*
D60*
%TO.N,Protected_VBATT+*%
X133128000Y-104643000D02*
X133128000Y-102717000D01*
X133128000Y-102717000D02*
X133330000Y-102515000D01*
D59*
%TO.N,5v_Servo_CD*%
X135428000Y-102581000D02*
X135494000Y-102515000D01*
X135428000Y-104643000D02*
X135428000Y-102581000D01*
D60*
%TO.N,GND*%
X130185000Y-102515000D02*
X130100000Y-102600000D01*
X131430000Y-102515000D02*
X130185000Y-102515000D01*
X138985000Y-102515000D02*
X139000000Y-102500000D01*
X137394000Y-102515000D02*
X138985000Y-102515000D01*
X137728000Y-106428000D02*
X137800000Y-106500000D01*
X137728000Y-104643000D02*
X137728000Y-106428000D01*
D59*
%TO.N,5v_Servo_CD*%
X135428000Y-110943000D02*
X135428000Y-104643000D01*
D60*
%TO.N,Pyro_Control_A*%
X145500000Y-72224264D02*
X145500000Y-81500000D01*
X145000000Y-71724264D02*
X145500000Y-72224264D01*
X145000000Y-71051472D02*
X145000000Y-71724264D01*
X142648528Y-70300000D02*
X144248528Y-70300000D01*
X141048528Y-68700000D02*
X142648528Y-70300000D01*
X139253000Y-68700000D02*
X141048528Y-68700000D01*
X144248528Y-70300000D02*
X145000000Y-71051472D01*
X136953000Y-66059060D02*
X136953000Y-66400000D01*
X136722000Y-65828060D02*
X136953000Y-66059060D01*
X136953000Y-66400000D02*
X139253000Y-68700000D01*
X136722000Y-65155000D02*
X136722000Y-65828060D01*
%TO.N,PWM_3_A__Servo_D*%
X144200000Y-64400000D02*
X145450000Y-65650000D01*
X144200000Y-63900000D02*
X144200000Y-64400000D01*
%TO.N,Net-(C37-Pad1)*%
X133850500Y-85575000D02*
X133425000Y-85575000D01*
X133875500Y-85600000D02*
X133850500Y-85575000D01*
D59*
%TO.N,Net-(J23-Pad1)*%
X134746647Y-87753353D02*
X135075000Y-87425000D01*
X133553353Y-87753353D02*
X134746647Y-87753353D01*
X135075000Y-87425000D02*
X135075000Y-84625000D01*
D60*
%TO.N,User_controlled_LED_B*%
X132722000Y-66213472D02*
X132722000Y-65155000D01*
X130332472Y-68603000D02*
X132722000Y-66213472D01*
X128905000Y-68979116D02*
X129281116Y-68603000D01*
X128905000Y-71882000D02*
X128905000Y-68979116D01*
X129339430Y-72316430D02*
X128905000Y-71882000D01*
X129339430Y-72639430D02*
X129339430Y-72316430D01*
X130868000Y-74168000D02*
X129339430Y-72639430D01*
X131826000Y-74168000D02*
X130868000Y-74168000D01*
X132588000Y-74930000D02*
X131826000Y-74168000D01*
X132588000Y-76327000D02*
X132588000Y-74930000D01*
X131953000Y-76962000D02*
X132588000Y-76327000D01*
X127635000Y-76962000D02*
X131953000Y-76962000D01*
X126873000Y-83882086D02*
X126873000Y-77724000D01*
X128795457Y-85804543D02*
X126873000Y-83882086D01*
X126873000Y-77724000D02*
X127635000Y-76962000D01*
X129281116Y-68603000D02*
X130332472Y-68603000D01*
X123900000Y-92700000D02*
X123900000Y-94580000D01*
X125500000Y-89708178D02*
X125500000Y-91100000D01*
X125500000Y-91100000D02*
X123900000Y-92700000D01*
X122995911Y-87204089D02*
X125500000Y-89708178D01*
%TO.N,Net-(Q3-Pad1)*%
X125000000Y-96700000D02*
X123900000Y-95600000D01*
X125350000Y-96700000D02*
X125000000Y-96700000D01*
%TO.N,GND*%
X128200000Y-96700000D02*
X128300000Y-96800000D01*
X127250000Y-96700000D02*
X128200000Y-96700000D01*
%TO.N,Net-(D3-Pad1)*%
X126300000Y-93687500D02*
X125612500Y-93000000D01*
X126300000Y-94825000D02*
X126300000Y-93687500D01*
%TO.N,Net-(D3-Pad2)*%
X127187500Y-92997500D02*
X125890000Y-91700000D01*
X127187500Y-93000000D02*
X127187500Y-92997500D01*
D59*
%TO.N,+5V*%
X142600000Y-97600000D02*
X141800000Y-98400000D01*
X141800000Y-98400000D02*
X133400000Y-98400000D01*
X142305000Y-90605000D02*
X142600000Y-90900000D01*
X142600000Y-90900000D02*
X142600000Y-97600000D01*
X142305000Y-90605000D02*
X141110000Y-91800000D01*
%TO.N,Net-(J23-Pad2)*%
X133900000Y-87000000D02*
X134575000Y-86325000D01*
X134575000Y-86325000D02*
X134575000Y-84575000D01*
X133316756Y-87000000D02*
X133900000Y-87000000D01*
X132616756Y-87700000D02*
X133316756Y-87000000D01*
X132500000Y-87700000D02*
X132616756Y-87700000D01*
X131086308Y-87775500D02*
X132424500Y-87775500D01*
X132424500Y-87775500D02*
X132500000Y-87700000D01*
D60*
%TO.N,User_controlled_LED_A*%
X138200000Y-90410972D02*
X138200000Y-92590000D01*
X136189028Y-88400000D02*
X138200000Y-90410972D01*
X130507736Y-88400000D02*
X136189028Y-88400000D01*
X126300000Y-84192264D02*
X130507736Y-88400000D01*
X126300000Y-76200000D02*
X126300000Y-84192264D01*
X127700000Y-74800000D02*
X126300000Y-76200000D01*
X127700000Y-74000000D02*
X127700000Y-74800000D01*
X127264000Y-73564000D02*
X127700000Y-74000000D01*
X127264000Y-73004006D02*
X127264000Y-73564000D01*
X127562500Y-72705506D02*
X127264000Y-73004006D01*
X128143000Y-71374000D02*
X127562500Y-71954500D01*
X129032588Y-68003000D02*
X128143000Y-68892588D01*
X130083944Y-68003000D02*
X129032588Y-68003000D01*
X131922000Y-66164944D02*
X130083944Y-68003000D01*
X128143000Y-68892588D02*
X128143000Y-71374000D01*
X131922000Y-65155000D02*
X131922000Y-66164944D01*
X127562500Y-71954500D02*
X127562500Y-72705506D01*
%TO.N,Net-(Q1-Pad1)*%
X138200000Y-95787500D02*
X139450000Y-97037500D01*
X138200000Y-93610000D02*
X138200000Y-95787500D01*
%TO.N,GND*%
X141600000Y-96787500D02*
X141600000Y-95500000D01*
X141350000Y-97037500D02*
X141600000Y-96787500D01*
D59*
%TO.N,Net-(D5-Pad1)*%
X141287500Y-94275000D02*
X140400000Y-95162500D01*
X141287500Y-93200000D02*
X141287500Y-94275000D01*
D60*
%TO.N,Net-(D5-Pad2)*%
X140090000Y-92822500D02*
X139712500Y-93200000D01*
X140090000Y-91800000D02*
X140090000Y-92822500D01*
D59*
%TO.N,+5V*%
X143800000Y-82400000D02*
X143800000Y-89110000D01*
D62*
%TO.N,Protected_VBATT+*%
X142700000Y-83800000D02*
X142700000Y-87700000D01*
X141275000Y-89125000D02*
X140600000Y-89125000D01*
%TO.N,+5V*%
X142245000Y-82400000D02*
X140600000Y-84045000D01*
X143800000Y-82400000D02*
X142245000Y-82400000D01*
X149700000Y-74400000D02*
X149700000Y-81800000D01*
X149700000Y-65400000D02*
X149700000Y-74400000D01*
D60*
%TO.N,PWM_0_A__Servo_A*%
X144700000Y-71600000D02*
X144700000Y-71800000D01*
X144700000Y-71175736D02*
X144700000Y-71600000D01*
D62*
%TO.N,+5V*%
X147422000Y-60729000D02*
X147422000Y-63094000D01*
X147422000Y-63094000D02*
X147445000Y-63117000D01*
X147445000Y-60706000D02*
X147422000Y-60729000D01*
%TO.N,Protected_VBATT+*%
X153800000Y-58417000D02*
X153800000Y-57407000D01*
X152781000Y-56388000D02*
X152781000Y-54820000D01*
X152239000Y-59978000D02*
X153800000Y-58417000D01*
X152239000Y-63119000D02*
X152239000Y-59978000D01*
X153800000Y-57407000D02*
X152781000Y-56388000D01*
D59*
%TO.N,+BATT*%
X152344332Y-64144332D02*
X153855668Y-64144332D01*
X153855668Y-64144332D02*
X154305000Y-63695000D01*
X149937473Y-63641473D02*
X148272000Y-61976000D01*
X150589752Y-63641473D02*
X149937473Y-63641473D01*
D62*
%TO.N,+5V*%
X147447000Y-63147000D02*
X148500000Y-64200000D01*
X148500000Y-64200000D02*
X149700000Y-65400000D01*
D59*
X147447000Y-63119000D02*
X147447000Y-63147000D01*
%TO.N,MOTOR_POWER*%
X140500000Y-79910050D02*
X139000000Y-81410050D01*
X139000000Y-81410050D02*
X139000000Y-84985000D01*
X140500000Y-76000000D02*
X140500000Y-79910050D01*
X140169000Y-75669000D02*
X140500000Y-76000000D01*
X139000000Y-84985000D02*
X140600000Y-86585000D01*
X138938000Y-75669000D02*
X140169000Y-75669000D01*
D61*
%TO.N,Net-(J15-Pad2)*%
X157734000Y-83299000D02*
X156601000Y-83299000D01*
D60*
%TO.N,PWM_3_A__Servo_D*%
X143627000Y-63073000D02*
X142700000Y-64000000D01*
X143627000Y-62800000D02*
X143627000Y-63073000D01*
%TO.N,UART_1_RX_I2C0_SCL*%
X143665000Y-64665000D02*
X143665000Y-66400000D01*
X143400000Y-64400000D02*
X143665000Y-64665000D01*
X143927000Y-62227852D02*
X143927000Y-63273000D01*
X143385148Y-61686000D02*
X143927000Y-62227852D01*
X138886000Y-61686000D02*
X143385148Y-61686000D01*
X143927000Y-63273000D02*
X143400000Y-63800000D01*
X138767000Y-61805000D02*
X138886000Y-61686000D01*
X137672000Y-61805000D02*
X138767000Y-61805000D01*
X143400000Y-63800000D02*
X143400000Y-64400000D01*
%TO.N,PWM_2_B__Servo_C*%
X140072792Y-64500000D02*
X140100000Y-64500000D01*
X137672000Y-63005000D02*
X138577792Y-63005000D01*
X138577792Y-63005000D02*
X140072792Y-64500000D01*
%TO.N,UART_1_TX_I2C0_SDA*%
X139300000Y-64151472D02*
X138553528Y-63405000D01*
X138553528Y-63405000D02*
X137672000Y-63405000D01*
X140800000Y-66400000D02*
X139300000Y-64900000D01*
X141125000Y-66400000D02*
X140800000Y-66400000D01*
X139300000Y-64900000D02*
X139300000Y-64151472D01*
%TO.N,Pyro_Control_B*%
X139000000Y-64275736D02*
X139000000Y-64800000D01*
%TO.N,PWM_0_A__Servo_A*%
X144124264Y-70600000D02*
X144700000Y-71175736D01*
X141962132Y-70037868D02*
X142524264Y-70600000D01*
X140924264Y-69000000D02*
X141962132Y-70037868D01*
X142524264Y-70600000D02*
X143400000Y-70600000D01*
X143400000Y-70600000D02*
X144124264Y-70600000D01*
X140100000Y-69000000D02*
X140924264Y-69000000D01*
X139100000Y-69000000D02*
X140100000Y-69000000D01*
X137700000Y-67600000D02*
X139100000Y-69000000D01*
%TO.N,Pyro_Control_B*%
X138912132Y-64187868D02*
X139000000Y-64275736D01*
X137672000Y-63805000D02*
X138529264Y-63805000D01*
X138529264Y-63805000D02*
X138912132Y-64187868D01*
%TO.N,Run*%
X144400000Y-73810000D02*
X143210000Y-75000000D01*
X144400000Y-71300000D02*
X144400000Y-73810000D01*
X144000000Y-70900000D02*
X144400000Y-71300000D01*
X142400000Y-70900000D02*
X144000000Y-70900000D01*
X140800000Y-69300000D02*
X142400000Y-70900000D01*
X138891716Y-69300000D02*
X140800000Y-69300000D01*
X136353000Y-66761284D02*
X138891716Y-69300000D01*
X136353000Y-66307588D02*
X136353000Y-66761284D01*
X135922000Y-65876588D02*
X136353000Y-66307588D01*
X135922000Y-65155000D02*
X135922000Y-65876588D01*
%TO.N,PWM_0_A__Servo_A*%
X136661000Y-66561000D02*
X137700000Y-67600000D01*
X136653000Y-66561000D02*
X136661000Y-66561000D01*
%TO.N,Net-(J3-Pad1)*%
X138767452Y-69600000D02*
X140425000Y-69600000D01*
X140425000Y-69600000D02*
X143025000Y-72200000D01*
X136053000Y-66885548D02*
X138767452Y-69600000D01*
X135522000Y-65900852D02*
X136053000Y-66431852D01*
X135522000Y-65155000D02*
X135522000Y-65900852D01*
X136053000Y-66431852D02*
X136053000Y-66885548D01*
%TO.N,Net-(J3-Pad3)*%
X137945000Y-69256116D02*
X137945000Y-72200000D01*
X136529884Y-67841000D02*
X137945000Y-69256116D01*
X136529884Y-67786696D02*
X136529884Y-67841000D01*
X135773188Y-67030000D02*
X136529884Y-67786696D01*
X135753000Y-66556116D02*
X135753000Y-67030000D01*
X135380000Y-66190000D02*
X135386884Y-66190000D01*
X135753000Y-67030000D02*
X135773188Y-67030000D01*
X135122000Y-65932000D02*
X135380000Y-66190000D01*
X135386884Y-66190000D02*
X135753000Y-66556116D01*
X135122000Y-65155000D02*
X135122000Y-65932000D01*
%TO.N,GND*%
X142800000Y-80300000D02*
X141100000Y-80300000D01*
%TO.N,Run*%
X142800000Y-75410000D02*
X143210000Y-75000000D01*
X142800000Y-77760000D02*
X142800000Y-75410000D01*
D59*
%TO.N,+3.3V*%
X141490000Y-74300000D02*
X142190000Y-75000000D01*
X136398000Y-75669000D02*
X137767000Y-74300000D01*
X137767000Y-74300000D02*
X141490000Y-74300000D01*
D60*
%TO.N,GND*%
X139000000Y-70715000D02*
X139000000Y-70600000D01*
X140485000Y-72200000D02*
X139000000Y-70715000D01*
%TO.N,ADC_3__Battery_Read*%
X146622000Y-61405000D02*
X146622000Y-61976000D01*
X145017000Y-59800000D02*
X146622000Y-61405000D01*
X143002000Y-59563000D02*
X143239000Y-59800000D01*
X143239000Y-59800000D02*
X145017000Y-59800000D01*
X141986000Y-58229000D02*
X143002000Y-59245000D01*
X143002000Y-59245000D02*
X143002000Y-59563000D01*
%TO.N,Pyro_Control_C*%
X137672000Y-61005000D02*
X140219000Y-61005000D01*
%TO.N,PWM_3_A__Servo_D*%
X143627000Y-62352116D02*
X143627000Y-62800000D01*
X143260884Y-61986000D02*
X143627000Y-62352116D01*
X140948812Y-61986000D02*
X143260884Y-61986000D01*
X140729812Y-62205000D02*
X140948812Y-61986000D01*
X137672000Y-62205000D02*
X140729812Y-62205000D01*
%TO.N,ADC_3__Battery_Read*%
X139421809Y-59066165D02*
X139293987Y-59193987D01*
X140450835Y-59066165D02*
X139421809Y-59066165D01*
X139293987Y-59193987D02*
X139330165Y-59157810D01*
X139082975Y-59405000D02*
X139293987Y-59193987D01*
%TO.N,Net-(J23-Pad2)*%
X134575000Y-84175000D02*
X134575000Y-84575000D01*
%TO.N,Net-(J23-Pad1)*%
X135075000Y-84175000D02*
X135075000Y-84625000D01*
%TO.N,GND*%
X133500000Y-97210101D02*
X133387626Y-97322475D01*
X133500000Y-95676500D02*
X133500000Y-97210101D01*
D59*
%TO.N,Net-(C20-Pad1)*%
X134845500Y-94926000D02*
X134000000Y-94080500D01*
X134000000Y-91516500D02*
X134000000Y-92700000D01*
X133663000Y-91179500D02*
X134000000Y-91516500D01*
D60*
X134000000Y-93276500D02*
X134000000Y-92700000D01*
%TO.N,GND*%
X135520500Y-91179500D02*
X135500000Y-91200000D01*
X135540000Y-91179500D02*
X135520500Y-91179500D01*
D59*
%TO.N,Net-(C20-Pad1)*%
X133137830Y-90275000D02*
X133663000Y-90800170D01*
X129696142Y-90275000D02*
X133137830Y-90275000D01*
X115173000Y-71673000D02*
X115173000Y-75751858D01*
X114575000Y-71075000D02*
X115173000Y-71673000D01*
X115173000Y-75751858D02*
X129696142Y-90275000D01*
X113076670Y-71075000D02*
X114575000Y-71075000D01*
X133663000Y-90800170D02*
X133663000Y-91179500D01*
X111887000Y-69885330D02*
X113076670Y-71075000D01*
D60*
%TO.N,Net-(J13-Pad9)*%
X136165000Y-91438384D02*
X136165000Y-90920616D01*
X135144384Y-89900000D02*
X129851472Y-89900000D01*
X129851472Y-89900000D02*
X115675736Y-75724264D01*
X135036000Y-92195500D02*
X135407884Y-92195500D01*
X134500000Y-92731500D02*
X135036000Y-92195500D01*
X136165000Y-90920616D02*
X135144384Y-89900000D01*
X134500000Y-93276500D02*
X134500000Y-92731500D01*
X135407884Y-92195500D02*
X136165000Y-91438384D01*
%TO.N,Net-(J13-Pad11)*%
X129975736Y-89600000D02*
X115848000Y-75472264D01*
X136465000Y-90796352D02*
X135268648Y-89600000D01*
X136465000Y-91562648D02*
X136465000Y-90796352D01*
X135268648Y-89600000D02*
X129975736Y-89600000D01*
X135500000Y-92527648D02*
X136465000Y-91562648D01*
X135500000Y-92874500D02*
X135500000Y-92527648D01*
X115848000Y-75472264D02*
X115848000Y-73552000D01*
%TO.N,Net-(J13-Pad13)*%
X113457000Y-70036000D02*
X112903000Y-69482000D01*
X115260264Y-70036000D02*
X113457000Y-70036000D01*
X136814000Y-90417500D02*
X135696500Y-89300000D01*
X135696500Y-89300000D02*
X130100000Y-89300000D01*
X136814000Y-91637912D02*
X136814000Y-90417500D01*
X116148000Y-70923736D02*
X115260264Y-70036000D01*
X136000000Y-92451912D02*
X136814000Y-91637912D01*
X130100000Y-89300000D02*
X116148000Y-75348000D01*
X116148000Y-75348000D02*
X116148000Y-70923736D01*
X136000000Y-93276500D02*
X136000000Y-92451912D01*
%TO.N,Net-(J13-Pad17)*%
X134400000Y-97600000D02*
X134000000Y-97200000D01*
X136200000Y-97600000D02*
X134400000Y-97600000D01*
X134000000Y-97200000D02*
X134000000Y-95676500D01*
X137495000Y-90130236D02*
X137495000Y-96305000D01*
X137495000Y-96305000D02*
X136200000Y-97600000D01*
X136064764Y-88700000D02*
X137495000Y-90130236D01*
X117241736Y-75558264D02*
X130383472Y-88700000D01*
X130383472Y-88700000D02*
X136064764Y-88700000D01*
%TO.N,Net-(J13-Pad15)*%
X113665000Y-69736000D02*
X113411000Y-69482000D01*
X115464000Y-69736000D02*
X113665000Y-69736000D01*
X130259208Y-89000000D02*
X116448000Y-75188792D01*
X135940500Y-89000000D02*
X130259208Y-89000000D01*
X137195000Y-94344500D02*
X137195000Y-90254500D01*
X116448000Y-70720000D02*
X115464000Y-69736000D01*
X137063000Y-94476500D02*
X137195000Y-94344500D01*
X116448000Y-75188792D02*
X116448000Y-70720000D01*
X136410000Y-94476500D02*
X137063000Y-94476500D01*
X137195000Y-90254500D02*
X135940500Y-89000000D01*
%TO.N,Net-(J13-Pad17)*%
X116991736Y-75308264D02*
X117041736Y-75358264D01*
X117241736Y-75558264D02*
X116991736Y-75308264D01*
D59*
%TO.N,+3.3V*%
X127002000Y-62605000D02*
X129695000Y-62605000D01*
D60*
X129695000Y-62605000D02*
X130572000Y-62605000D01*
D59*
X127002000Y-63261000D02*
X127127000Y-63386000D01*
X127002000Y-62605000D02*
X127002000Y-63261000D01*
X126600000Y-74500000D02*
X126900000Y-74500000D01*
X126238000Y-74138000D02*
X126600000Y-74500000D01*
X126238000Y-74059000D02*
X126238000Y-74138000D01*
X125701500Y-74801500D02*
X125701500Y-75101500D01*
X125598500Y-74698500D02*
X125701500Y-74801500D01*
X125701500Y-75101500D02*
X125195500Y-75101500D01*
X125798500Y-75101500D02*
X125701500Y-75101500D01*
X125598500Y-74698500D02*
X125798500Y-74498500D01*
X124846000Y-75451000D02*
X125598500Y-74698500D01*
X125195500Y-75101500D02*
X124846000Y-75451000D01*
X125798500Y-75101500D02*
X125798500Y-75300500D01*
X125798500Y-74498500D02*
X125798500Y-75101500D01*
X125798500Y-75300500D02*
X125949000Y-75451000D01*
X126100000Y-74700000D02*
X126050000Y-74650000D01*
X126400000Y-74700000D02*
X126100000Y-74700000D01*
X126550000Y-74850000D02*
X126900000Y-74500000D01*
X126550000Y-74850000D02*
X126400000Y-74700000D01*
X126400000Y-75000000D02*
X126550000Y-74850000D01*
X126050000Y-74650000D02*
X126050000Y-75250000D01*
X126100000Y-75300000D02*
X126400000Y-75000000D01*
X125949000Y-75451000D02*
X126100000Y-75300000D01*
X126050000Y-74650000D02*
X125898500Y-74498500D01*
X126400000Y-75000000D02*
X126050000Y-74650000D01*
X126050000Y-75250000D02*
X126100000Y-75300000D01*
X125898500Y-74498500D02*
X125798500Y-74498500D01*
X125798500Y-74498500D02*
X126048500Y-74248500D01*
X126900000Y-74500000D02*
X126300000Y-74500000D01*
X126300000Y-74500000D02*
X126048500Y-74248500D01*
X126048500Y-74248500D02*
X126238000Y-74059000D01*
D60*
%TO.N,GND*%
X113700000Y-79200000D02*
X111800000Y-79200000D01*
%TO.N,SPI0_CSn__BMI088_CS_ACCEL*%
X119500000Y-58681000D02*
X119500000Y-57700000D01*
X117851000Y-60330000D02*
X119500000Y-58681000D01*
X119500000Y-57700000D02*
X119716503Y-57483497D01*
X119716503Y-57483497D02*
X122555000Y-57483497D01*
D59*
%TO.N,+3.3V*%
X130932000Y-49168000D02*
X130932000Y-50432000D01*
X133500000Y-46600000D02*
X130932000Y-49168000D01*
X135900000Y-46600000D02*
X133500000Y-46600000D01*
X136900000Y-47600000D02*
X135900000Y-46600000D01*
X138833000Y-48133000D02*
X138300000Y-47600000D01*
X138300000Y-47600000D02*
X136900000Y-47600000D01*
X130932000Y-50432000D02*
X130556000Y-50432000D01*
X139573000Y-48133000D02*
X138833000Y-48133000D01*
X131120000Y-50432000D02*
X130932000Y-50432000D01*
X150851000Y-48641000D02*
X144551000Y-48641000D01*
X124846000Y-75451000D02*
X125949000Y-75451000D01*
D60*
%TO.N,Buzzer*%
X113700000Y-75600000D02*
X113700000Y-75200000D01*
X114400000Y-76300000D02*
X113700000Y-75600000D01*
%TO.N,Net-(J13-Pad9)*%
X115548000Y-75596528D02*
X115723736Y-75772264D01*
X115548000Y-72548000D02*
X115548000Y-75596528D01*
X115548000Y-71172264D02*
X115548000Y-72548000D01*
X115075736Y-70700000D02*
X115548000Y-71172264D01*
%TO.N,Net-(J13-Pad11)*%
X115848000Y-75100000D02*
X115848000Y-75472264D01*
X115500000Y-70700000D02*
X115848000Y-71048000D01*
X115848000Y-71048000D02*
X115848000Y-75100000D01*
X113396736Y-70400000D02*
X115200000Y-70400000D01*
X112603000Y-69606264D02*
X113396736Y-70400000D01*
X115200000Y-70400000D02*
X115500000Y-70700000D01*
%TO.N,Net-(J13-Pad9)*%
X113232000Y-70700000D02*
X115075736Y-70700000D01*
X112303000Y-69771000D02*
X113232000Y-70700000D01*
X112303000Y-69482000D02*
X112303000Y-69771000D01*
%TO.N,Net-(J13-Pad17)*%
X116748000Y-75064528D02*
X117241736Y-75558264D01*
X117003868Y-72703868D02*
X116748000Y-72959736D01*
X116748000Y-72959736D02*
X116748000Y-75064528D01*
X117048000Y-72659736D02*
X117003868Y-72703868D01*
X117048000Y-71000000D02*
X117048000Y-72659736D01*
D59*
%TO.N,+3.3V*%
X136398000Y-75669000D02*
X134243000Y-75669000D01*
D60*
%TO.N,Buzzer*%
X118100000Y-75497000D02*
X118475500Y-75497000D01*
X117604736Y-75497000D02*
X118100000Y-75497000D01*
X118475500Y-75497000D02*
X118800000Y-75821500D01*
X117048000Y-74940264D02*
X117604736Y-75497000D01*
X117048000Y-73719000D02*
X117048000Y-74940264D01*
%TO.N,Net-(J13-Pad17)*%
X117048000Y-69687000D02*
X117048000Y-71000000D01*
X116677000Y-69316000D02*
X117048000Y-69687000D01*
%TO.N,Buzzer*%
X117348000Y-69482000D02*
X117602000Y-69228000D01*
X117348000Y-72784000D02*
X117348000Y-69482000D01*
X117221000Y-72911000D02*
X117348000Y-72784000D01*
X117221000Y-73546000D02*
X117221000Y-72911000D01*
X117048000Y-73719000D02*
X117221000Y-73546000D01*
%TO.N,Net-(C37-Pad1)*%
X137600000Y-79547000D02*
X138938000Y-78209000D01*
X137600000Y-85100000D02*
X137600000Y-79547000D01*
X137000000Y-85700000D02*
X137600000Y-85100000D01*
X136300000Y-85700000D02*
X137000000Y-85700000D01*
X136200000Y-85800000D02*
X136300000Y-85700000D01*
X133425000Y-85575000D02*
X133425000Y-84225000D01*
X133425000Y-86000000D02*
X133425000Y-85575000D01*
%TO.N,Net-(J22-Pad1)*%
X132669870Y-81384030D02*
X132698588Y-81355312D01*
X131953030Y-81384030D02*
X132669870Y-81384030D01*
%TO.N,Net-(J22-Pad3)*%
X133450500Y-80775500D02*
X133450500Y-80341500D01*
X133450500Y-80341500D02*
X131318000Y-78209000D01*
X135075000Y-80882202D02*
X135228601Y-80728601D01*
X135075000Y-82275000D02*
X135075000Y-80882202D01*
%TO.N,Net-(J22-Pad7)*%
X134575000Y-80032000D02*
X136398000Y-78209000D01*
X134575000Y-82275000D02*
X134575000Y-80032000D01*
%TO.N,Net-(C40-Pad1)*%
X134075000Y-78426000D02*
X133858000Y-78209000D01*
X134075000Y-82275000D02*
X134075000Y-78426000D01*
%TO.N,Net-(J22-Pad1)*%
X135575000Y-81725000D02*
X135900000Y-81400000D01*
X135575000Y-82275000D02*
X135575000Y-81725000D01*
%TO.N,Buzzer*%
X117856000Y-69228000D02*
X117729000Y-69228000D01*
X127210736Y-61989000D02*
X122428000Y-61989000D01*
X118110000Y-69228000D02*
X117856000Y-69228000D01*
X122428000Y-61989000D02*
X120142000Y-64275000D01*
X127326736Y-62105000D02*
X127210736Y-61989000D01*
X127751000Y-62105000D02*
X127326736Y-62105000D01*
X130572000Y-62205000D02*
X127851000Y-62205000D01*
X117856000Y-69228000D02*
X117602000Y-69228000D01*
X127851000Y-62205000D02*
X127751000Y-62105000D01*
X120142000Y-68212000D02*
X119126000Y-69228000D01*
X119126000Y-69228000D02*
X118110000Y-69228000D01*
X120142000Y-64275000D02*
X120142000Y-68212000D01*
%TO.N,XIN*%
X132461000Y-71133000D02*
X131839000Y-71755000D01*
X132461000Y-67323000D02*
X132461000Y-71133000D01*
X131362000Y-71755000D02*
X130088000Y-71755000D01*
X133522000Y-66262000D02*
X132461000Y-67323000D01*
X130088000Y-71755000D02*
X129692000Y-71359000D01*
X133522000Y-65155000D02*
X133522000Y-66262000D01*
X131839000Y-71755000D02*
X131362000Y-71755000D01*
D59*
%TO.N,Net-(C2-Pad2)*%
X143764000Y-50673000D02*
X142875000Y-50673000D01*
X142875000Y-50419000D02*
X143383000Y-50419000D01*
X142875000Y-50673000D02*
X142875000Y-50419000D01*
X146812000Y-53594000D02*
X144551000Y-51333000D01*
X147193000Y-54356000D02*
X146812000Y-53975000D01*
X144032000Y-50941000D02*
X143764000Y-50673000D01*
X146812000Y-53975000D02*
X146812000Y-53594000D01*
X144551000Y-51333000D02*
X144551000Y-50941000D01*
X144032000Y-50941000D02*
X143510000Y-50419000D01*
X147193000Y-54356000D02*
X144043000Y-51206000D01*
D60*
%TO.N,Net-(C3-Pad1)*%
X134778000Y-69995000D02*
X135182000Y-70399000D01*
X133362000Y-68535000D02*
X133562000Y-68735000D01*
X133562000Y-68735000D02*
X133562000Y-69995000D01*
X133562000Y-69995000D02*
X134778000Y-69995000D01*
D59*
%TO.N,+3.3V*%
X137795000Y-57277000D02*
X137541000Y-57023000D01*
X138189000Y-58433000D02*
X138176000Y-58420000D01*
D60*
X134322000Y-56992000D02*
X134175500Y-56845500D01*
X137672000Y-59005000D02*
X138811000Y-59005000D01*
D59*
X122811000Y-48400000D02*
X122811000Y-49033000D01*
D60*
X129258000Y-58532000D02*
X129731000Y-59005000D01*
D59*
X136722000Y-57347000D02*
X136652000Y-57277000D01*
X129921000Y-66307000D02*
X129773994Y-66307000D01*
X137922000Y-57023000D02*
X138049000Y-57150000D01*
D62*
X142501000Y-47491000D02*
X142494000Y-47498000D01*
D59*
X136652000Y-57155330D02*
X136908665Y-56898665D01*
D62*
X142494000Y-47498000D02*
X140589000Y-47498000D01*
D59*
X136912500Y-57156500D02*
X137033000Y-57036000D01*
D62*
X138938000Y-56769000D02*
X138430000Y-56769000D01*
D59*
X136912500Y-57156500D02*
X137033000Y-57277000D01*
X137858500Y-57594500D02*
X138176000Y-57912000D01*
X131120000Y-50432000D02*
X132093000Y-50432000D01*
X136911330Y-56896000D02*
X137160000Y-56896000D01*
X138966000Y-58433000D02*
X138189000Y-58433000D01*
X130838000Y-50714000D02*
X130534000Y-50410000D01*
D60*
X129258000Y-57925000D02*
X129258000Y-58532000D01*
X139198000Y-62605000D02*
X141042000Y-62605000D01*
D59*
X133088825Y-51808825D02*
X133131950Y-51808825D01*
X143149000Y-47391000D02*
X144038000Y-47391000D01*
X137681000Y-57417000D02*
X137858500Y-57594500D01*
X137160000Y-57658000D02*
X138062000Y-58560000D01*
X121031000Y-49289000D02*
X121031000Y-49797000D01*
D60*
X136722000Y-58055000D02*
X136722000Y-57347000D01*
D59*
X130556000Y-50432000D02*
X130534000Y-50410000D01*
X139954000Y-50038000D02*
X140081000Y-49911000D01*
D62*
X139573000Y-48133000D02*
X139573000Y-50038000D01*
D59*
X153543000Y-49403000D02*
X153543000Y-48702000D01*
X138049000Y-58039000D02*
X138049000Y-58293000D01*
X137160000Y-56896000D02*
X137287000Y-56896000D01*
D60*
X136322000Y-57379264D02*
X136322000Y-58055000D01*
X134722000Y-57480000D02*
X134322000Y-57080000D01*
D59*
X137160000Y-57277000D02*
X137160000Y-57658000D01*
D60*
X136919264Y-56782000D02*
X136322000Y-57379264D01*
D59*
X137541000Y-57023000D02*
X137922000Y-57023000D01*
X138049000Y-58293000D02*
X137795000Y-58039000D01*
D60*
X137672000Y-59005000D02*
X136842000Y-59005000D01*
D59*
X133542000Y-54161746D02*
X133502000Y-54201746D01*
X140525500Y-47180500D02*
X142938500Y-47180500D01*
D60*
X134175500Y-56739434D02*
X134112000Y-56675934D01*
D59*
X142938500Y-47180500D02*
X143149000Y-47391000D01*
X138922000Y-56085000D02*
X139778000Y-56085000D01*
D62*
X139446000Y-56769000D02*
X138938000Y-56769000D01*
D59*
X138316000Y-57518000D02*
X138316000Y-58560000D01*
X137033000Y-57036000D02*
X137287000Y-57036000D01*
X117986000Y-55385000D02*
X117851000Y-55250000D01*
D60*
X134322000Y-58055000D02*
X134322000Y-58897000D01*
X134322000Y-58055000D02*
X134322000Y-57080000D01*
D59*
X138922000Y-56085000D02*
X138922000Y-56753000D01*
D60*
X136779000Y-59068000D02*
X136722000Y-59011000D01*
X134322000Y-58897000D02*
X134366000Y-58941000D01*
D59*
X138176000Y-57912000D02*
X138049000Y-58039000D01*
X137668000Y-57417000D02*
X137668000Y-57531000D01*
X154559000Y-50036000D02*
X154176000Y-50036000D01*
X137795000Y-58039000D02*
X137795000Y-57912000D01*
X137033000Y-57277000D02*
X137160000Y-57277000D01*
X122811000Y-48400000D02*
X124821000Y-50410000D01*
D62*
X144551000Y-47904000D02*
X144138000Y-47491000D01*
D59*
X124821000Y-50410000D02*
X129330000Y-50410000D01*
D62*
X140525500Y-47180500D02*
X139573000Y-48133000D01*
D59*
X138277000Y-57531000D02*
X138163000Y-57417000D01*
X120777000Y-50051000D02*
X120777000Y-52718000D01*
D60*
X134322000Y-67405000D02*
X134452000Y-67535000D01*
D59*
X138316000Y-58560000D02*
X138176000Y-58420000D01*
D60*
X134322000Y-65155000D02*
X134322000Y-64402000D01*
D59*
X134112000Y-55484000D02*
X134112000Y-56675934D01*
X137668000Y-57785000D02*
X137160000Y-57277000D01*
X154176000Y-50036000D02*
X153543000Y-49403000D01*
X138176000Y-58420000D02*
X138049000Y-58293000D01*
D62*
X144551000Y-48641000D02*
X144551000Y-47904000D01*
D59*
X137668000Y-57417000D02*
X137681000Y-57417000D01*
D62*
X139573000Y-53467000D02*
X139827000Y-53721000D01*
D59*
X139573000Y-50038000D02*
X139954000Y-50038000D01*
X138966000Y-56797000D02*
X138938000Y-56769000D01*
D60*
X134722000Y-58055000D02*
X134722000Y-58916000D01*
D59*
X128386997Y-67693997D02*
X127942497Y-68138497D01*
X130838000Y-51194000D02*
X130838000Y-50714000D01*
D60*
X134322000Y-65155000D02*
X134322000Y-67405000D01*
D59*
X137287000Y-56896000D02*
X138303000Y-56896000D01*
X121031000Y-49797000D02*
X120777000Y-50051000D01*
X133131950Y-51764000D02*
X133542000Y-52174050D01*
D60*
X136322000Y-58055000D02*
X136322000Y-58992000D01*
D59*
X139778000Y-56085000D02*
X139827000Y-56134000D01*
X144038000Y-47391000D02*
X144551000Y-47904000D01*
X133502000Y-54874000D02*
X134112000Y-55484000D01*
X129773994Y-66307000D02*
X128386997Y-67693997D01*
X122811000Y-49033000D02*
X122555000Y-49289000D01*
D60*
X136842000Y-59005000D02*
X136779000Y-59068000D01*
D59*
X138062000Y-58560000D02*
X138316000Y-58560000D01*
D62*
X138303000Y-57277000D02*
X138163000Y-57417000D01*
D59*
X131120000Y-50432000D02*
X130838000Y-50714000D01*
X138966000Y-58433000D02*
X138966000Y-58900000D01*
X137287000Y-57036000D02*
X137668000Y-57417000D01*
X132093000Y-50432000D02*
X132461000Y-50800000D01*
X132461000Y-51181000D02*
X133088825Y-51808825D01*
D60*
X136722000Y-59011000D02*
X136722000Y-58055000D01*
D59*
X133502000Y-54201746D02*
X133502000Y-54874000D01*
X136908665Y-56898665D02*
X136911330Y-56896000D01*
D60*
X135327498Y-64329502D02*
X135509000Y-64148000D01*
D59*
X138163000Y-57417000D02*
X138316000Y-57417000D01*
X130534000Y-50410000D02*
X129330000Y-50410000D01*
D60*
X130572000Y-59005000D02*
X131508000Y-59005000D01*
X137672000Y-62605000D02*
X139198000Y-62605000D01*
D59*
X138049000Y-58039000D02*
X137668000Y-57658000D01*
D62*
X139827000Y-56388000D02*
X139446000Y-56769000D01*
X139573000Y-50038000D02*
X139573000Y-53467000D01*
D59*
X137668000Y-57658000D02*
X137668000Y-57531000D01*
X138966000Y-57531000D02*
X138966000Y-56797000D01*
X138303000Y-56896000D02*
X138303000Y-57277000D01*
X127375000Y-71012000D02*
X127375000Y-68705994D01*
X138316000Y-57518000D02*
X138176000Y-57658000D01*
D60*
X134175500Y-56845500D02*
X134175500Y-56739434D01*
D62*
X144138000Y-47491000D02*
X142501000Y-47491000D01*
D59*
X137668000Y-57531000D02*
X137668000Y-57785000D01*
D60*
X137672000Y-62605000D02*
X136671000Y-62605000D01*
D59*
X119761000Y-55385000D02*
X117986000Y-55385000D01*
D62*
X139827000Y-56134000D02*
X139827000Y-56388000D01*
D59*
X136722000Y-57347000D02*
X136912500Y-57156500D01*
X126238000Y-74059000D02*
X126238000Y-72149000D01*
X127375000Y-68705994D02*
X127942497Y-68138497D01*
D60*
X129731000Y-59005000D02*
X130572000Y-59005000D01*
D59*
X136652000Y-57277000D02*
X136652000Y-57155330D01*
X124846000Y-77991000D02*
X124846000Y-75451000D01*
X138316000Y-57417000D02*
X138316000Y-57518000D01*
X138922000Y-56753000D02*
X138938000Y-56769000D01*
X132461000Y-50800000D02*
X132461000Y-51181000D01*
D60*
X134722000Y-58055000D02*
X134722000Y-57480000D01*
D59*
X137668000Y-57417000D02*
X138163000Y-57417000D01*
X138966000Y-57531000D02*
X138277000Y-57531000D01*
D60*
X134322000Y-57080000D02*
X134322000Y-56992000D01*
D62*
X139827000Y-53721000D02*
X139827000Y-56134000D01*
D59*
X138303000Y-57277000D02*
X137795000Y-57277000D01*
D60*
X131426000Y-62605000D02*
X131445000Y-62624000D01*
D62*
X150851000Y-48768000D02*
X153482000Y-48768000D01*
D60*
X130572000Y-62605000D02*
X131426000Y-62605000D01*
D59*
X126238000Y-72149000D02*
X127375000Y-71012000D01*
X133542000Y-52174050D02*
X133542000Y-54161746D01*
X120777000Y-52718000D02*
X120777000Y-53480000D01*
D60*
%TO.N,+1V1*%
X133922000Y-57354000D02*
X133922000Y-57016264D01*
X133922000Y-58055000D02*
X133922000Y-57354000D01*
X134722000Y-65155000D02*
X134722000Y-66078000D01*
X135382000Y-59576000D02*
X135236569Y-59576000D01*
X135922000Y-58055000D02*
X135922000Y-59163000D01*
X133477000Y-56571264D02*
X133477000Y-55838243D01*
X134722000Y-66078000D02*
X134722000Y-66408294D01*
X134722000Y-66078000D02*
X134722000Y-66805000D01*
X132842000Y-54341000D02*
X132842000Y-54877000D01*
X133922000Y-57016264D02*
X133477000Y-56571264D01*
X135001353Y-67084353D02*
X135452000Y-67535000D01*
X135236569Y-59576000D02*
X135166067Y-59505498D01*
X135001353Y-66687647D02*
X135001353Y-67084353D01*
X135922000Y-59163000D02*
X135763000Y-59322000D01*
X137922000Y-56085000D02*
X137192000Y-56085000D01*
X134722000Y-66408294D02*
X135001353Y-66687647D01*
X133477000Y-55838243D02*
X133205726Y-55566969D01*
X132842000Y-54877000D02*
X133205726Y-55240726D01*
X133205726Y-55240726D02*
X133205726Y-55566969D01*
X135922000Y-57355000D02*
X135922000Y-58055000D01*
X137192000Y-56085000D02*
X135922000Y-57355000D01*
D59*
%TO.N,Protected_VBATT+*%
X149830000Y-54453000D02*
X149733000Y-54356000D01*
D62*
X156276000Y-51816000D02*
X155321000Y-51816000D01*
D59*
X153148000Y-54453000D02*
X149830000Y-54453000D01*
X152781000Y-54820000D02*
X153148000Y-54453000D01*
X153148000Y-53989000D02*
X153148000Y-54453000D01*
D62*
X155321000Y-51816000D02*
X153148000Y-53989000D01*
%TO.N,Net-(C11-Pad1)*%
X155448000Y-54453000D02*
X155448000Y-57277000D01*
D59*
X152781000Y-57912000D02*
X152400000Y-58293000D01*
D62*
X155448000Y-58547000D02*
X154813000Y-57912000D01*
X155448000Y-60753000D02*
X155448000Y-58547000D01*
X155448000Y-57277000D02*
X154813000Y-57912000D01*
X152400000Y-58293000D02*
X149733000Y-58293000D01*
D59*
X156276000Y-63119000D02*
X156276000Y-61581000D01*
X156276000Y-61581000D02*
X155448000Y-60753000D01*
%TO.N,Net-(C22-Pad1)*%
X122306000Y-75451000D02*
X120429000Y-73574000D01*
X119761000Y-73574000D02*
X119324000Y-73137000D01*
X119324000Y-73137000D02*
X119324000Y-72314000D01*
X120429000Y-73574000D02*
X119761000Y-73574000D01*
D60*
%TO.N,Net-(C23-Pad1)*%
X117358000Y-74820884D02*
X117734116Y-75197000D01*
X120650000Y-75832000D02*
X121793000Y-76975000D01*
X117348000Y-73940116D02*
X117348000Y-74816000D01*
X117757000Y-73010000D02*
X117757000Y-73546000D01*
X118024000Y-72743000D02*
X117757000Y-73010000D01*
X121793000Y-77478000D02*
X122306000Y-77991000D01*
X118024000Y-72314000D02*
X118024000Y-72743000D01*
X121793000Y-76975000D02*
X121793000Y-77478000D01*
X120396000Y-75197000D02*
X120650000Y-75451000D01*
X117757000Y-73546000D02*
X117358000Y-73945000D01*
X120650000Y-75451000D02*
X120650000Y-75832000D01*
X117734116Y-75197000D02*
X120396000Y-75197000D01*
%TO.N,Net-(C37-Pad1)*%
X133425000Y-84175000D02*
X134075000Y-84175000D01*
X132800000Y-86625000D02*
X133425000Y-86000000D01*
X133105000Y-83225000D02*
X133105000Y-83705000D01*
X133105000Y-83705000D02*
X133575000Y-84175000D01*
X132775000Y-84825000D02*
X133425000Y-84175000D01*
X133575000Y-84175000D02*
X134075000Y-84175000D01*
%TO.N,Net-(C40-Pad1)*%
X133155000Y-82275000D02*
X133105000Y-82225000D01*
X134075000Y-82275000D02*
X133155000Y-82275000D01*
D59*
%TO.N,Net-(D1-Pad1)*%
X144653000Y-54356000D02*
X142240000Y-51943000D01*
X142240000Y-51943000D02*
X142113000Y-51943000D01*
X141364000Y-51956000D02*
X141872000Y-51956000D01*
X142113000Y-51943000D02*
X142100000Y-51956000D01*
X142100000Y-51956000D02*
X140369000Y-51956000D01*
X141872000Y-51956000D02*
X144272000Y-54356000D01*
D60*
X141364000Y-51956000D02*
X140369000Y-51956000D01*
D59*
X144272000Y-54356000D02*
X144653000Y-54356000D01*
%TO.N,VBUS*%
X144653000Y-57404000D02*
X140843000Y-53594000D01*
D60*
X136594500Y-49225500D02*
X136594500Y-49726500D01*
D59*
X140843000Y-53594000D02*
X140716000Y-53594000D01*
D63*
X138269000Y-51401000D02*
X138269000Y-51956000D01*
D59*
X138269000Y-51956000D02*
X138269000Y-52798000D01*
X144653000Y-58293000D02*
X144653000Y-57404000D01*
D63*
X136594500Y-49726500D02*
X138269000Y-51401000D01*
D59*
X138269000Y-52798000D02*
X138430000Y-52959000D01*
D61*
%TO.N,+BATT*%
X152649000Y-67823000D02*
X152649000Y-73909000D01*
X154305000Y-65699000D02*
X154305000Y-63695000D01*
X155575000Y-66969000D02*
X154305000Y-65699000D01*
X155575000Y-66969000D02*
X153503000Y-66969000D01*
X155443000Y-76703000D02*
X157226000Y-76703000D01*
X154305000Y-63153000D02*
X154339000Y-63119000D01*
X152649000Y-73909000D02*
X155443000Y-76703000D01*
X154305000Y-63695000D02*
X154305000Y-63153000D01*
D59*
X154339000Y-64042000D02*
X154339000Y-63373000D01*
D61*
X153503000Y-66969000D02*
X152649000Y-67823000D01*
D59*
%TO.N,Net-(D4-Pad2)*%
X150622000Y-60934500D02*
X149580500Y-60934500D01*
X149580500Y-60934500D02*
X149352000Y-60706000D01*
X149352000Y-60706000D02*
X148719000Y-60706000D01*
D60*
%TO.N,Net-(J2-Pad2)*%
X124587000Y-47511000D02*
X126111000Y-47511000D01*
X123825000Y-46749000D02*
X124587000Y-47511000D01*
D64*
%TO.N,USB_D+*%
X134818500Y-51580000D02*
X135255000Y-51143500D01*
X135255000Y-51143500D02*
X135255000Y-50270780D01*
D63*
X135294500Y-49225500D02*
X135294500Y-50061000D01*
D64*
%TO.N,USB_D-*%
X135982000Y-51143500D02*
X135982000Y-50270780D01*
D63*
X135944500Y-49225500D02*
X135944500Y-50061000D01*
D64*
X136418500Y-51580000D02*
X135982000Y-51143500D01*
D60*
%TO.N,SPI0_CSn__BMI088_CS_GYRO*%
X125095000Y-61100000D02*
X123952000Y-59957000D01*
X116596000Y-66695000D02*
X117851000Y-67950000D01*
X123952000Y-59957000D02*
X122555000Y-59957000D01*
X116596000Y-65075883D02*
X116596000Y-66695000D01*
X130572000Y-61405000D02*
X127559000Y-61405000D01*
X127254000Y-61100000D02*
X125095000Y-61100000D01*
X127559000Y-61405000D02*
X127254000Y-61100000D01*
X117523883Y-64148000D02*
X116596000Y-65075883D01*
X118364000Y-64148000D02*
X117523883Y-64148000D01*
X122555000Y-59957000D02*
X118364000Y-64148000D01*
%TO.N,ACCEL_INT*%
X122555000Y-61100000D02*
X118245000Y-65410000D01*
X118245000Y-65410000D02*
X117851000Y-65410000D01*
X124523500Y-61671500D02*
X123952000Y-61100000D01*
X127451000Y-61805000D02*
X127317500Y-61671500D01*
X123952000Y-61100000D02*
X122555000Y-61100000D01*
X130572000Y-61805000D02*
X127451000Y-61805000D01*
X127317500Y-61671500D02*
X124523500Y-61671500D01*
%TO.N,SPI0_RX__BMI088_MISO*%
X116586000Y-61605000D02*
X116586000Y-53975000D01*
X128861736Y-58560000D02*
X129706736Y-59405000D01*
X122288000Y-58433000D02*
X122555000Y-58433000D01*
X127762000Y-58560000D02*
X128861736Y-58560000D01*
X129706736Y-59405000D02*
X130572000Y-59405000D01*
X117851000Y-62870000D02*
X122288000Y-58433000D01*
X116586000Y-53975000D02*
X117851000Y-52710000D01*
X117851000Y-62870000D02*
X116586000Y-61605000D01*
X127508000Y-58306000D02*
X127127000Y-57925000D01*
X127508000Y-58306000D02*
X127762000Y-58560000D01*
%TO.N,SPI0_CSn__BMI088_CS_ACCEL*%
X130572000Y-59805000D02*
X129682472Y-59805000D01*
X126492000Y-58173884D02*
X126492000Y-57544000D01*
X129682472Y-59805000D02*
X129642000Y-59805000D01*
X128905000Y-59068000D02*
X127889000Y-59068000D01*
X127889000Y-59068000D02*
X127762000Y-59068000D01*
X126151486Y-57203486D02*
X125552662Y-57203486D01*
X127762000Y-59068000D02*
X127386116Y-59068000D01*
X129642000Y-59805000D02*
X128905000Y-59068000D01*
X127386116Y-59068000D02*
X126492000Y-58173884D01*
X126492000Y-57544000D02*
X126151486Y-57203486D01*
%TO.N,GYRO_INT*%
X123317000Y-58433000D02*
X123317000Y-57036000D01*
X128556000Y-61005000D02*
X128270000Y-60719000D01*
X125603000Y-60719000D02*
X123317000Y-58433000D01*
X128270000Y-60719000D02*
X128016000Y-60719000D01*
X123317000Y-57036000D02*
X123139497Y-56858497D01*
X129609680Y-61005000D02*
X128556000Y-61005000D01*
X130572000Y-61005000D02*
X129609680Y-61005000D01*
X128016000Y-60719000D02*
X125603000Y-60719000D01*
X123139497Y-56858497D02*
X122123497Y-56858497D01*
X122123497Y-56858497D02*
X118782503Y-56858497D01*
X118782503Y-56858497D02*
X117851000Y-57790000D01*
%TO.N,SPI0_TX__BMI088_MOSI*%
X122852264Y-56147000D02*
X124079000Y-57373736D01*
X128918000Y-60605000D02*
X130572000Y-60605000D01*
X117851000Y-50170000D02*
X119127500Y-51446500D01*
X126746000Y-60338000D02*
X126619000Y-60211000D01*
X124079000Y-57373736D02*
X124079000Y-57544000D01*
X119127500Y-51446500D02*
X119126000Y-51448000D01*
X119126000Y-51448000D02*
X119126000Y-53861000D01*
X119126000Y-53861000D02*
X121412000Y-56147000D01*
X128651000Y-60338000D02*
X126746000Y-60338000D01*
X126619000Y-60211000D02*
X124079000Y-57671000D01*
X121412000Y-56147000D02*
X122852264Y-56147000D01*
X128651000Y-60338000D02*
X128918000Y-60605000D01*
%TO.N,SPI0_SCK__BMI088_SCLK*%
X125984000Y-58560000D02*
X124841000Y-57417000D01*
X124841000Y-57417000D02*
X124841000Y-56655000D01*
X128905000Y-59830000D02*
X127381000Y-59830000D01*
X122809000Y-55512000D02*
X122042000Y-54745000D01*
X130572000Y-60205000D02*
X129280000Y-60205000D01*
X126111000Y-58560000D02*
X125984000Y-58560000D01*
X120015000Y-53607000D02*
X120015000Y-49797000D01*
X127381000Y-59830000D02*
X126111000Y-58560000D01*
X122042000Y-54745000D02*
X121153000Y-54745000D01*
X123698000Y-55512000D02*
X122809000Y-55512000D01*
X121153000Y-54745000D02*
X120015000Y-53607000D01*
X120015000Y-49797000D02*
X120016500Y-49795500D01*
X124841000Y-56655000D02*
X123698000Y-55512000D01*
X129280000Y-60205000D02*
X128905000Y-59830000D01*
X120016500Y-49795500D02*
X117851000Y-47630000D01*
%TO.N,SPI1_SCK__BMP280_SCLK*%
X126238000Y-67323000D02*
X129756000Y-63805000D01*
X124846000Y-70371000D02*
X126238000Y-68979000D01*
X129756000Y-63805000D02*
X130572000Y-63805000D01*
X126238000Y-68979000D02*
X126238000Y-67323000D01*
%TO.N,Net-(J14-Pad6)*%
X119634000Y-71514000D02*
X120909000Y-71514000D01*
X119324000Y-71204000D02*
X119634000Y-71514000D01*
X119324000Y-70714000D02*
X119324000Y-71204000D01*
X120909000Y-71514000D02*
X122306000Y-72911000D01*
%TO.N,SPI1_TX__BMP280_MOSI*%
X129864000Y-64205000D02*
X130572000Y-64205000D01*
X124846000Y-72911000D02*
X127000000Y-70757000D01*
X129540000Y-65545000D02*
X129540000Y-64529000D01*
X127000000Y-68085000D02*
X129540000Y-65545000D01*
X127000000Y-70757000D02*
X127000000Y-68085000D01*
X129540000Y-64529000D02*
X129864000Y-64205000D01*
%TO.N,Net-(J14-Pad8)*%
X119974000Y-70714000D02*
X121963000Y-70714000D01*
X121963000Y-70714000D02*
X122306000Y-70371000D01*
%TO.N,SPI1_RX__BMP280_MISO*%
X126238000Y-65291000D02*
X128524000Y-63005000D01*
X124846000Y-65291000D02*
X126238000Y-65291000D01*
X128524000Y-63005000D02*
X130572000Y-63005000D01*
%TO.N,Net-(J14-Pad10)*%
X118674000Y-70489000D02*
X121332000Y-67831000D01*
X118674000Y-70714000D02*
X118674000Y-70489000D01*
X121332000Y-67831000D02*
X122306000Y-67831000D01*
%TO.N,SPI1_CSn__BMP280_CSn*%
X128905000Y-63772000D02*
X128905000Y-63767000D01*
X124846000Y-67831000D02*
X128905000Y-63772000D01*
X128905000Y-63767000D02*
X129267000Y-63405000D01*
X129267000Y-63405000D02*
X130572000Y-63405000D01*
%TO.N,Net-(J14-Pad12)*%
X121646000Y-73986000D02*
X119974000Y-72314000D01*
X123556000Y-73434000D02*
X123004000Y-73986000D01*
X123556000Y-66541000D02*
X123556000Y-73434000D01*
X123004000Y-73986000D02*
X121646000Y-73986000D01*
X122306000Y-65291000D02*
X123556000Y-66541000D01*
%TO.N,PWM_7_A__Reaction_Control_Wheel_In_B*%
X129156852Y-68303000D02*
X130208208Y-68303000D01*
X132322000Y-66189208D02*
X132322000Y-65155000D01*
X128524000Y-68935852D02*
X129156852Y-68303000D01*
X131318000Y-75669000D02*
X128524000Y-72875000D01*
X130208208Y-68303000D02*
X132322000Y-66189208D01*
X128524000Y-72875000D02*
X128524000Y-68935852D01*
%TO.N,PWM_6_A__Reaction_Control_Wheel_In_A*%
X127762000Y-69482000D02*
X127762000Y-71155330D01*
X130511340Y-67151340D02*
X129959680Y-67703000D01*
X127762000Y-68849324D02*
X127762000Y-69482000D01*
X127017665Y-71899665D02*
X126937500Y-71979830D01*
X131522000Y-66140680D02*
X130511340Y-67151340D01*
X128778000Y-74295000D02*
X128778000Y-75669000D01*
X126937500Y-71979830D02*
X126937500Y-72446622D01*
X129959680Y-67703000D02*
X128908324Y-67703000D01*
X127530330Y-71387000D02*
X127017665Y-71899665D01*
X128908324Y-67703000D02*
X127762000Y-68849324D01*
X127889000Y-73279000D02*
X128778000Y-74168000D01*
X128778000Y-74168000D02*
X128778000Y-74295000D01*
X131522000Y-65155000D02*
X131522000Y-66140680D01*
X127762000Y-71155330D02*
X127530330Y-71387000D01*
%TO.N,/QSPI_SS*%
X131522000Y-57240000D02*
X131191000Y-56909000D01*
X121791000Y-47763000D02*
X122805000Y-46749000D01*
X127880660Y-55249660D02*
X123041000Y-50410000D01*
X131522000Y-58055000D02*
X131522000Y-57240000D01*
X123041000Y-50410000D02*
X122130000Y-50410000D01*
X131191000Y-56909000D02*
X128651000Y-56909000D01*
X121791000Y-48400000D02*
X121791000Y-47763000D01*
X128651000Y-55249660D02*
X127880660Y-55249660D01*
X128651000Y-56909000D02*
X128651000Y-57025500D01*
X122130000Y-50410000D02*
X121791000Y-50071000D01*
X121791000Y-50071000D02*
X121791000Y-48400000D01*
%TO.N,XOUT*%
X133362000Y-67184000D02*
X133922000Y-66624000D01*
X133362000Y-67515000D02*
X133362000Y-67184000D01*
X133922000Y-66624000D02*
X133922000Y-65155000D01*
%TO.N,PWM_0_A__Servo_A*%
X136322000Y-65155000D02*
X136322000Y-65852324D01*
X136653000Y-66183324D02*
X136653000Y-66561000D01*
X136322000Y-65852324D02*
X136653000Y-66183324D01*
%TO.N,ADC_3__Battery_Read*%
X141288000Y-58229000D02*
X141986000Y-58229000D01*
X140450835Y-59066165D02*
X141288000Y-58229000D01*
X137672000Y-59405000D02*
X139082975Y-59405000D01*
%TO.N,/QSPI_SD0*%
X132722000Y-58055000D02*
X132722000Y-57089056D01*
X132722000Y-57089056D02*
X129852944Y-54220000D01*
X129852944Y-54220000D02*
X129330000Y-54220000D01*
%TO.N,/QSPI_SD1*%
X131922000Y-57355000D02*
X131922000Y-57137584D01*
X126102660Y-55249660D02*
X122809000Y-51956000D01*
X126492000Y-56401000D02*
X126492000Y-56528000D01*
X131922000Y-58055000D02*
X131922000Y-57355000D01*
X129667000Y-56401000D02*
X126492000Y-56401000D01*
X126492000Y-55249660D02*
X126102660Y-55249660D01*
X131188208Y-56403792D02*
X131185416Y-56401000D01*
X131886708Y-57102292D02*
X131188208Y-56403792D01*
X131922000Y-57137584D02*
X131886708Y-57102292D01*
X131185416Y-56401000D02*
X129667000Y-56401000D01*
%TO.N,/QSPI_SD2*%
X122914000Y-52950000D02*
X122130000Y-52950000D01*
X125114490Y-55874160D02*
X123698000Y-54457670D01*
X123698000Y-54457670D02*
X123698000Y-53734000D01*
X131082840Y-55874160D02*
X125114490Y-55874160D01*
X132322000Y-58055000D02*
X132322000Y-57113320D01*
X123698000Y-53734000D02*
X122914000Y-52950000D01*
X132322000Y-57113320D02*
X131082840Y-55874160D01*
%TO.N,/QSPI_SD3*%
X130153000Y-51680000D02*
X131699000Y-53226000D01*
X133522000Y-57040528D02*
X132507000Y-56025528D01*
X132080000Y-54877000D02*
X132080000Y-53607000D01*
X129330000Y-51680000D02*
X130153000Y-51680000D01*
X132507000Y-55304000D02*
X132080000Y-54877000D01*
X132507000Y-56020000D02*
X132507000Y-55304000D01*
X133522000Y-58055000D02*
X133522000Y-57040528D01*
X132080000Y-53607000D02*
X131699000Y-53226000D01*
%TO.N,/QSPI_SCLK*%
X132207000Y-55766000D02*
X132207000Y-56147000D01*
X129330000Y-52950000D02*
X130153000Y-52950000D01*
X131064000Y-53861000D02*
X131064000Y-54623000D01*
X132207000Y-56149792D02*
X132207000Y-56147000D01*
X133122000Y-57064792D02*
X132207000Y-56149792D01*
X131064000Y-54623000D02*
X132207000Y-55766000D01*
X130153000Y-52950000D02*
X131064000Y-53861000D01*
X133122000Y-58055000D02*
X133122000Y-57064792D01*
%TO.N,GND*%
X118024000Y-70714000D02*
X118024000Y-69893500D01*
X132145000Y-82225000D02*
X131225000Y-82225000D01*
X118674000Y-71951000D02*
X118674000Y-72314000D01*
X118024000Y-69893500D02*
X117983000Y-69852500D01*
X134122000Y-61605000D02*
X132972000Y-61605000D01*
X134122000Y-61605000D02*
X134122000Y-62741000D01*
X136375000Y-84175000D02*
X136425000Y-84225000D01*
X138922000Y-55125000D02*
X138922000Y-54258000D01*
X135255000Y-62738000D02*
X135255000Y-62751000D01*
X135182000Y-72330000D02*
X135382000Y-72530000D01*
X133766000Y-94862500D02*
X133500000Y-95128500D01*
X131798000Y-51194000D02*
X131798000Y-52169000D01*
X140828000Y-56515000D02*
X139926000Y-57417000D01*
X132161000Y-67577000D02*
X132161000Y-67750000D01*
X142983000Y-62592000D02*
X143002000Y-62611000D01*
X134122000Y-61605000D02*
X134122000Y-61598000D01*
X133917000Y-54047000D02*
X134112000Y-54242000D01*
X134112000Y-54242000D02*
X134112000Y-54524000D01*
X118024000Y-70714000D02*
X118024000Y-71301000D01*
X128298000Y-57826000D02*
X127508000Y-57036000D01*
X133994500Y-48123500D02*
X134493000Y-47625000D01*
X138922000Y-54258000D02*
X138938000Y-54242000D01*
X130925000Y-86625000D02*
X129900000Y-86625000D01*
X118717000Y-72357000D02*
X118674000Y-72314000D01*
X122533000Y-54220000D02*
X123190000Y-54877000D01*
X130096000Y-69995000D02*
X129692000Y-70399000D01*
X132145000Y-83225000D02*
X131225000Y-83225000D01*
D59*
X143115000Y-46341000D02*
X142621000Y-45847000D01*
X158176000Y-61788000D02*
X158496000Y-61468000D01*
D60*
X135004000Y-61605000D02*
X135128000Y-61481000D01*
X137922000Y-55125000D02*
X137922000Y-54315000D01*
X131362000Y-69995000D02*
X130096000Y-69995000D01*
D59*
X142047000Y-48514000D02*
X142113000Y-48580000D01*
D60*
X134122000Y-61605000D02*
X135255000Y-62738000D01*
X135452000Y-68495000D02*
X136242000Y-68495000D01*
X139926000Y-58433000D02*
X140081000Y-58433000D01*
X118024000Y-71301000D02*
X118674000Y-71951000D01*
X134125000Y-61608000D02*
X134122000Y-61605000D01*
X133917000Y-51494000D02*
X133917000Y-54047000D01*
X134122000Y-62741000D02*
X134112000Y-62751000D01*
X133562000Y-71755000D02*
X134786000Y-71755000D01*
X136242000Y-68495000D02*
X136271000Y-68466000D01*
X134122000Y-61605000D02*
X135252000Y-61605000D01*
X134500000Y-95676500D02*
X134500000Y-95126500D01*
X136024000Y-96894500D02*
X135500000Y-96370500D01*
X135575000Y-84175000D02*
X136375000Y-84175000D01*
X142129000Y-62592000D02*
X142983000Y-62592000D01*
D59*
X150622000Y-62509500D02*
X150139500Y-62509500D01*
D60*
X118717000Y-73546000D02*
X118717000Y-73828000D01*
X125114000Y-62605000D02*
X125095000Y-62624000D01*
X140843000Y-56515000D02*
X140828000Y-56515000D01*
D59*
X158176000Y-51816000D02*
X158176000Y-50612000D01*
D60*
X135382000Y-72530000D02*
X135509000Y-72657000D01*
D59*
X157748000Y-54453000D02*
X157748000Y-55712000D01*
D60*
X140589000Y-57925000D02*
X140843000Y-57671000D01*
X134236000Y-61605000D02*
X135255000Y-62624000D01*
X134122000Y-61605000D02*
X135004000Y-61605000D01*
X134109000Y-61605000D02*
X132969000Y-60465000D01*
X134122000Y-61598000D02*
X135255000Y-60465000D01*
X126042000Y-62605000D02*
X125114000Y-62605000D01*
X129692000Y-69380000D02*
X129540000Y-69228000D01*
X118717000Y-73546000D02*
X118717000Y-72357000D01*
X134115000Y-61605000D02*
X132969000Y-62751000D01*
X134122000Y-61605000D02*
X134122000Y-60475000D01*
X133000000Y-95676500D02*
X133000000Y-94993500D01*
X133477000Y-51054000D02*
X133917000Y-51494000D01*
X134236000Y-94862500D02*
X133766000Y-94862500D01*
D59*
X144551000Y-46341000D02*
X143115000Y-46341000D01*
X153543000Y-46802000D02*
X153543000Y-45466000D01*
X150139500Y-62509500D02*
X149352000Y-61722000D01*
D60*
X135252000Y-61605000D02*
X135255000Y-61608000D01*
X140843000Y-57671000D02*
X140843000Y-57417000D01*
X135182000Y-71359000D02*
X135182000Y-72330000D01*
X132972000Y-61605000D02*
X132969000Y-61608000D01*
X134122000Y-61605000D02*
X134115000Y-61605000D01*
X130225000Y-84175000D02*
X130225000Y-83425000D01*
D59*
X158176000Y-63119000D02*
X158176000Y-61788000D01*
D60*
X133385000Y-94862500D02*
X133512000Y-94989500D01*
D59*
X140716000Y-48514000D02*
X142047000Y-48514000D01*
X158176000Y-50612000D02*
X158496000Y-50292000D01*
D60*
X130225000Y-86625000D02*
X130025000Y-86425000D01*
X134623000Y-91179500D02*
X135540000Y-91179500D01*
X134122000Y-60475000D02*
X134112000Y-60465000D01*
D59*
X151892000Y-51968500D02*
X153035000Y-51968500D01*
D60*
X132842000Y-53381000D02*
X132842000Y-52464000D01*
X133512000Y-94989500D02*
X133512000Y-95219500D01*
X134500000Y-95126500D02*
X134236000Y-94862500D01*
X131798000Y-52169000D02*
X131826000Y-52197000D01*
X133000000Y-94993500D02*
X133131000Y-94862500D01*
X129692000Y-70399000D02*
X129692000Y-69380000D01*
X134122000Y-61605000D02*
X134236000Y-61605000D01*
X135500000Y-96370500D02*
X135500000Y-95676500D01*
X132161000Y-67198736D02*
X132161000Y-67577000D01*
X140081000Y-58433000D02*
X140589000Y-57925000D01*
X134122000Y-61605000D02*
X134109000Y-61605000D01*
X133122000Y-66237736D02*
X132161000Y-67198736D01*
X137922000Y-54315000D02*
X137902000Y-54295000D01*
X122130000Y-54220000D02*
X122533000Y-54220000D01*
X130875000Y-84825000D02*
X130225000Y-84175000D01*
X128298000Y-57925000D02*
X128298000Y-57826000D01*
X118717000Y-73828000D02*
X117983000Y-74562000D01*
X133994500Y-49225500D02*
X133994500Y-48123500D01*
X132161000Y-67750000D02*
X131572000Y-68339000D01*
X133131000Y-94862500D02*
X133385000Y-94862500D01*
X134786000Y-71755000D02*
X135182000Y-71359000D01*
X133122000Y-65155000D02*
X133122000Y-66237736D01*
D59*
X157748000Y-55712000D02*
X158115000Y-56079000D01*
D60*
X135255000Y-61608000D02*
X134125000Y-61608000D01*
D61*
%TO.N,Net-(J15-Pad2)*%
X157226000Y-80632000D02*
X157226000Y-79756000D01*
X157226000Y-79756000D02*
X157226000Y-82791000D01*
X157226000Y-82791000D02*
X157734000Y-83299000D01*
X154559000Y-83299000D02*
X157226000Y-80632000D01*
X157226000Y-79243000D02*
X157226000Y-79756000D01*
D62*
%TO.N,+5V*%
X147447000Y-60704000D02*
X147447000Y-58547000D01*
D59*
X147445000Y-63117000D02*
X147447000Y-63119000D01*
X147445000Y-60706000D02*
X147447000Y-60704000D01*
X147447000Y-58547000D02*
X147193000Y-58293000D01*
%TO.N,Net-(D6-Pad2)*%
X153517500Y-50393500D02*
X153035000Y-50393500D01*
X154559000Y-51056000D02*
X154180000Y-51056000D01*
X154180000Y-51056000D02*
X153517500Y-50393500D01*
D60*
%TO.N,Net-(C20-Pad1)*%
X135064000Y-95740500D02*
X135000000Y-95676500D01*
D59*
X111887000Y-69871830D02*
X111887000Y-58687000D01*
D60*
X134000000Y-93276500D02*
X134000000Y-94080500D01*
D59*
X111887000Y-58674000D02*
X111887000Y-58687000D01*
D60*
X135036000Y-95116500D02*
X135036000Y-95640500D01*
X135064000Y-96894500D02*
X135064000Y-95740500D01*
D59*
X115311000Y-55250000D02*
X111887000Y-58674000D01*
D60*
X135036000Y-95640500D02*
X135000000Y-95676500D01*
X134845500Y-94926000D02*
X135036000Y-95116500D01*
%TO.N,Net-(J13-Pad5)*%
X112769500Y-55251500D02*
X115311000Y-52710000D01*
X112515500Y-55505500D02*
X111626500Y-56394500D01*
X112268000Y-55766000D02*
X112268000Y-55753000D01*
X112268000Y-55753000D02*
X112515500Y-55505500D01*
X111893000Y-56141000D02*
X112268000Y-55766000D01*
X112515500Y-55505500D02*
X112769500Y-55251500D01*
X112769500Y-55251500D02*
X111626500Y-56394500D01*
%TO.N,Net-(J13-Pad9)*%
X112303000Y-60798000D02*
X112303000Y-60811000D01*
X115311000Y-57790000D02*
X112303000Y-60798000D01*
X112303000Y-65531500D02*
X112303000Y-69433500D01*
X112303000Y-60811000D02*
X112303000Y-65531500D01*
%TO.N,Net-(J13-Pad11)*%
X112984000Y-62657000D02*
X112984000Y-62670000D01*
X135500000Y-93276500D02*
X135500000Y-92874500D01*
X112603000Y-63051000D02*
X112603000Y-69592764D01*
X112984000Y-62670000D02*
X112603000Y-63051000D01*
X115311000Y-60330000D02*
X112984000Y-62657000D01*
%TO.N,Net-(J13-Pad13)*%
X113538000Y-64643000D02*
X113538000Y-64656000D01*
X112903000Y-69468500D02*
X112903000Y-65418000D01*
X115311000Y-62870000D02*
X113538000Y-64643000D01*
X113538000Y-64656000D02*
X112903000Y-65291000D01*
X112903000Y-65291000D02*
X112903000Y-65418000D01*
%TO.N,Net-(J13-Pad15)*%
X113411000Y-69468500D02*
X113411000Y-67704000D01*
X115311000Y-65410000D02*
X113411000Y-67310000D01*
X113411000Y-67310000D02*
X113411000Y-67704000D01*
%TO.N,Net-(J13-Pad17)*%
X116677000Y-69316000D02*
X115311000Y-67950000D01*
%TO.N,Net-(J22-Pad1)*%
X131953030Y-81384030D02*
X128778000Y-78209000D01*
%TO.N,/D+*%
X135128000Y-56909000D02*
X134874000Y-56655000D01*
X135122000Y-56915000D02*
X135128000Y-56909000D01*
X135122000Y-57284000D02*
X135122000Y-58055000D01*
X134874000Y-56655000D02*
X134874000Y-56401000D01*
D64*
X134818500Y-53230000D02*
X135255000Y-53666500D01*
D60*
X135122000Y-57284000D02*
X135122000Y-56915000D01*
D64*
X135255000Y-56020000D02*
X134874000Y-56401000D01*
X135255000Y-53666500D02*
X135255000Y-56020000D01*
%TO.N,/D-*%
X135982000Y-53666500D02*
X136418500Y-53230000D01*
D60*
X135890000Y-56528000D02*
X135522000Y-56896000D01*
D64*
X135890000Y-56528000D02*
X135982000Y-56436000D01*
X135982000Y-56436000D02*
X135982000Y-53666500D01*
D60*
X135522000Y-56896000D02*
X135522000Y-58055000D01*
%TD*%
%TA.AperFunction,Conductor*%
%TO.N,+1V1*%
G36*
X135128000Y-59904500D02*
G01*
X132557180Y-59904500D01*
X132553611Y-59905210D01*
X132553610Y-59905210D01*
X132520425Y-59911811D01*
X132520424Y-59911812D01*
X132513278Y-59913233D01*
X132463496Y-59946496D01*
X132430233Y-59996278D01*
X132421500Y-60040180D01*
X132421500Y-60401283D01*
X132420867Y-60410942D01*
X132413750Y-60465000D01*
X132414383Y-60469808D01*
X132420867Y-60519058D01*
X132421500Y-60528717D01*
X132421500Y-61544283D01*
X132420867Y-61553942D01*
X132413750Y-61608000D01*
X132414383Y-61612808D01*
X132420867Y-61662058D01*
X132421500Y-61671717D01*
X132421500Y-62687283D01*
X132420867Y-62696942D01*
X132413750Y-62751000D01*
X132414383Y-62755808D01*
X132420867Y-62805058D01*
X132421500Y-62814717D01*
X132421500Y-63169820D01*
X132430233Y-63213722D01*
X132463496Y-63263504D01*
X132513278Y-63296767D01*
X132520424Y-63298188D01*
X132520425Y-63298189D01*
X132553610Y-63304790D01*
X132553611Y-63304790D01*
X132557180Y-63305500D01*
X132958452Y-63305500D01*
X132960237Y-63305617D01*
X132964192Y-63305617D01*
X132969000Y-63306250D01*
X132973808Y-63305617D01*
X132977763Y-63305617D01*
X132979548Y-63305500D01*
X134101452Y-63305500D01*
X134103237Y-63305617D01*
X134107192Y-63305617D01*
X134112000Y-63306250D01*
X134116808Y-63305617D01*
X134120763Y-63305617D01*
X134122548Y-63305500D01*
X135054000Y-63305500D01*
X135101566Y-63322813D01*
X135126876Y-63366650D01*
X135128000Y-63379500D01*
X135128000Y-64030002D01*
X135110687Y-64077568D01*
X135066850Y-64102878D01*
X135054000Y-64104002D01*
X134313000Y-64104002D01*
X134265434Y-64086689D01*
X134240124Y-64042852D01*
X134239000Y-64030002D01*
X134239000Y-63894000D01*
X132027000Y-63894000D01*
X131979434Y-63876687D01*
X131954124Y-63832850D01*
X131953000Y-63820000D01*
X131953000Y-59396000D01*
X131970313Y-59348434D01*
X132014150Y-59323124D01*
X132027000Y-59322000D01*
X135128000Y-59322000D01*
X135128000Y-59904500D01*
G37*
%TD.AperFunction*%
%TD*%
%TA.AperFunction,Conductor*%
%TO.N,+3.3V*%
G36*
X136879566Y-58831313D02*
G01*
X136904876Y-58875150D01*
X136906000Y-58888000D01*
X136906000Y-64328000D01*
X136888687Y-64375566D01*
X136844850Y-64400876D01*
X136832000Y-64402000D01*
X135304695Y-64402000D01*
X135257129Y-64384687D01*
X135231819Y-64340850D01*
X135240609Y-64291000D01*
X135249847Y-64275000D01*
X135255000Y-64275000D01*
X135255000Y-63750369D01*
X135255633Y-63740710D01*
X135259767Y-63709310D01*
X135260400Y-63704502D01*
X135255633Y-63668293D01*
X135255000Y-63658635D01*
X135255000Y-63379500D01*
X135272313Y-63331934D01*
X135316150Y-63306624D01*
X135329000Y-63305500D01*
X135686820Y-63305500D01*
X135690389Y-63304790D01*
X135690390Y-63304790D01*
X135723575Y-63298189D01*
X135723576Y-63298188D01*
X135730722Y-63296767D01*
X135780504Y-63263504D01*
X135813767Y-63213722D01*
X135822500Y-63169820D01*
X135822500Y-60158000D01*
X135839813Y-60110434D01*
X135883650Y-60085124D01*
X135896500Y-60084000D01*
X136144000Y-60084000D01*
X136144000Y-59227398D01*
X136145184Y-59216134D01*
X136147500Y-59210932D01*
X136147500Y-59186573D01*
X136148411Y-59174997D01*
X136151005Y-59158618D01*
X136152222Y-59150935D01*
X136150209Y-59143423D01*
X136150209Y-59143419D01*
X136150022Y-59142722D01*
X136147500Y-59123569D01*
X136147500Y-58888000D01*
X136164813Y-58840434D01*
X136208650Y-58815124D01*
X136221500Y-58814000D01*
X136832000Y-58814000D01*
X136879566Y-58831313D01*
G37*
%TD.AperFunction*%
%TA.AperFunction,Conductor*%
G36*
X134974566Y-58831313D02*
G01*
X134999876Y-58875150D01*
X135001000Y-58888000D01*
X135001000Y-58928570D01*
X134983687Y-58976136D01*
X134955320Y-58996936D01*
X134888442Y-59024637D01*
X134773446Y-59112877D01*
X134770494Y-59116724D01*
X134770493Y-59116725D01*
X134732645Y-59166049D01*
X134689953Y-59193246D01*
X134673937Y-59195000D01*
X131826000Y-59195000D01*
X131826000Y-64021000D01*
X134038000Y-64021000D01*
X134085566Y-64038313D01*
X134110876Y-64082150D01*
X134112000Y-64095000D01*
X134112000Y-64275000D01*
X134116749Y-64275000D01*
X134121133Y-64287043D01*
X134134262Y-64302690D01*
X134134262Y-64353309D01*
X134101725Y-64392086D01*
X134064725Y-64402000D01*
X131392000Y-64402000D01*
X131344434Y-64384687D01*
X131319124Y-64340850D01*
X131318000Y-64328000D01*
X131318000Y-58888000D01*
X131335313Y-58840434D01*
X131379150Y-58815124D01*
X131392000Y-58814000D01*
X134927000Y-58814000D01*
X134974566Y-58831313D01*
G37*
%TD.AperFunction*%
%TD*%
%TA.AperFunction,Conductor*%
%TO.N,+1V1*%
G36*
X135336512Y-58800749D02*
G01*
X135364520Y-58835464D01*
X135377212Y-58858646D01*
X135453715Y-58960724D01*
X135466276Y-58973285D01*
X135568351Y-59049786D01*
X135583946Y-59058324D01*
X135704394Y-59103478D01*
X135719649Y-59107105D01*
X135770514Y-59112631D01*
X135777328Y-59113000D01*
X135891000Y-59113000D01*
X135959121Y-59133002D01*
X136005614Y-59186658D01*
X136017000Y-59239000D01*
X136017000Y-59831000D01*
X135996998Y-59899121D01*
X135943342Y-59945614D01*
X135891000Y-59957000D01*
X135834445Y-59957000D01*
X135764446Y-59935767D01*
X135730722Y-59913233D01*
X135686820Y-59904500D01*
X134112000Y-59904500D01*
X134112000Y-59322000D01*
X135128000Y-59322000D01*
X135128000Y-58895973D01*
X135148002Y-58827852D01*
X135201658Y-58781359D01*
X135271932Y-58771255D01*
X135336512Y-58800749D01*
G37*
%TD.AperFunction*%
%TD*%
%TA.AperFunction,Conductor*%
%TO.N,+3.3V*%
G36*
X141959566Y-44848313D02*
G01*
X141984876Y-44892150D01*
X141986000Y-44905000D01*
X141986000Y-46228000D01*
X142885158Y-47015511D01*
X142909532Y-47059872D01*
X142899689Y-47109525D01*
X142865551Y-47139194D01*
X142488128Y-47300947D01*
X142100449Y-47467095D01*
X142067249Y-47472967D01*
X141284171Y-47430020D01*
X140277948Y-47374836D01*
X140231401Y-47354944D01*
X140208530Y-47309787D01*
X140208000Y-47300947D01*
X140208000Y-44905000D01*
X140225313Y-44857434D01*
X140269150Y-44832124D01*
X140282000Y-44831000D01*
X141912000Y-44831000D01*
X141959566Y-44848313D01*
G37*
%TD.AperFunction*%
%TD*%
%TA.AperFunction,Conductor*%
%TO.N,+3.3V*%
G36*
X140040445Y-47907989D02*
G01*
X140075052Y-47944931D01*
X140081000Y-47974000D01*
X140081000Y-49149000D01*
X140089833Y-49148948D01*
X140089834Y-49148948D01*
X140886828Y-49144217D01*
X140934496Y-49161247D01*
X140960065Y-49204934D01*
X140961267Y-49218014D01*
X140965373Y-50725471D01*
X140948190Y-50773085D01*
X140904421Y-50798514D01*
X140891391Y-50799673D01*
X140140375Y-50799800D01*
X139388455Y-50799927D01*
X139340885Y-50782622D01*
X139315568Y-50738789D01*
X139314442Y-50725755D01*
X139318943Y-48792571D01*
X139333743Y-48748343D01*
X139947800Y-47929600D01*
X139990190Y-47901935D01*
X140040445Y-47907989D01*
G37*
%TD.AperFunction*%
%TD*%
M02*
